{"glyphs":{"0":{"ha":863,"x_min":77,"x_max":786,"o":"m 786 468 q 765 251 786 342 q 700 98 743 159 q 589 8 656 38 q 431 -21 522 -21 q 273 8 339 -21 q 162 97 206 37 q 98 249 119 157 q 77 467 77 341 q 98 685 77 593 q 162 837 119 777 q 273 926 206 897 q 431 956 339 956 q 589 926 522 956 q 700 837 656 897 q 765 685 743 777 q 786 468 786 593 m 621 468 q 574 734 621 650 q 431 819 528 819 q 286 733 332 819 q 240 467 240 648 q 286 201 240 286 q 431 115 332 115 q 574 201 528 115 q 621 468 621 287 z "},"1":{"ha":863,"x_min":179,"x_max":564,"o":"m 407 0 l 407 650 l 179 650 l 179 758 q 292 772 246 762 q 367 803 337 783 q 415 857 397 824 q 446 939 433 890 l 564 939 l 564 0 l 407 0 z "},"2":{"ha":811,"x_min":81,"x_max":734,"o":"m 83 0 l 83 146 q 186 235 132 187 q 292 331 241 283 q 389 424 344 378 q 464 507 433 469 q 494 549 480 528 q 518 592 508 570 q 533 640 528 615 q 539 693 539 665 q 528 747 539 724 q 497 786 517 770 q 450 810 477 802 q 392 818 423 818 q 331 810 358 818 q 282 787 304 802 q 242 753 260 772 q 210 711 224 734 l 81 799 q 129 861 101 832 q 195 912 157 890 q 283 946 233 933 q 400 958 334 958 q 516 944 461 958 q 613 899 572 930 q 680 818 655 867 q 704 700 704 769 q 696 617 704 655 q 674 548 688 580 q 641 488 660 516 q 599 435 621 460 q 530 363 567 399 q 451 291 492 327 q 367 218 410 254 q 281 144 324 181 l 734 144 l 734 0 l 83 0 z "},"3":{"ha":811,"x_min":57,"x_max":704,"o":"m 704 265 q 681 140 704 193 q 613 51 657 87 q 504 -2 568 16 q 359 -20 440 -20 q 260 -9 307 -20 q 173 21 212 1 q 104 66 134 40 q 57 125 74 93 l 186 211 q 216 175 199 192 q 254 146 233 159 q 301 127 275 134 q 359 121 328 121 q 443 131 408 121 q 499 161 477 141 q 531 210 521 180 q 541 277 541 239 q 491 389 541 352 q 346 427 442 427 l 269 427 l 269 562 l 335 562 q 475 600 427 562 q 522 703 522 637 q 485 788 522 758 q 378 818 448 818 q 269 794 312 818 q 195 724 226 770 l 65 811 q 116 870 87 844 q 183 917 144 897 q 272 947 222 937 q 389 958 323 958 q 522 940 466 958 q 615 890 578 922 q 670 817 652 859 q 688 729 688 775 q 639 579 688 635 q 498 501 591 524 q 578 481 541 498 q 643 435 615 465 q 688 363 671 406 q 704 265 704 320 z "},"4":{"ha":863,"x_min":43,"x_max":794,"o":"m 672 182 l 672 0 l 521 0 l 521 182 l 43 182 l 43 330 l 517 939 l 672 939 l 672 318 l 794 318 l 794 182 l 672 182 m 521 724 l 199 318 l 521 318 l 521 724 z "},"5":{"ha":811,"x_min":54,"x_max":726,"o":"m 726 304 q 703 169 726 229 q 635 67 680 109 q 522 3 589 25 q 367 -20 455 -20 q 261 -9 309 -20 q 174 21 213 1 q 105 67 135 40 q 54 126 75 94 l 183 214 q 212 177 195 194 q 251 148 229 160 q 302 128 273 135 q 364 121 330 121 q 511 166 458 121 q 564 306 564 212 q 549 379 564 348 q 507 430 534 410 q 445 460 481 450 q 366 471 408 471 q 275 457 314 471 q 207 421 235 443 l 110 421 l 164 939 l 684 939 l 684 794 l 292 794 l 267 578 q 332 599 295 591 q 412 607 370 607 q 537 590 479 607 q 636 536 594 572 q 703 442 679 499 q 726 304 726 385 z "},"6":{"ha":811,"x_min":75,"x_max":745,"o":"m 418 -20 q 267 9 331 -20 q 160 97 203 39 q 96 239 117 155 q 75 432 75 323 q 96 637 75 541 q 162 804 117 733 q 279 917 208 876 q 454 958 351 958 q 604 937 541 958 q 711 875 667 915 l 618 753 q 544 804 582 786 q 454 822 506 822 q 365 801 401 822 q 303 744 328 781 q 264 655 278 707 q 245 542 251 604 q 288 568 265 555 q 337 589 311 580 q 394 604 363 599 q 458 610 424 610 q 576 590 524 610 q 667 533 629 571 q 724 438 704 495 q 745 304 745 380 q 722 167 745 227 q 656 65 699 106 q 553 2 614 24 q 418 -20 493 -20 m 419 117 q 542 161 497 117 q 586 300 586 205 q 575 371 586 339 q 544 426 565 403 q 491 461 523 448 q 416 473 459 473 q 365 468 390 473 q 317 455 340 463 q 276 438 295 448 q 241 418 256 428 q 249 300 241 355 q 277 204 257 245 q 331 140 297 163 q 419 117 366 117 z "},"7":{"ha":863,"x_min":85,"x_max":765,"o":"m 410 0 l 233 0 l 591 794 l 85 794 l 85 939 l 765 939 l 765 822 l 410 0 z "},"8":{"ha":811,"x_min":65,"x_max":745,"o":"m 745 248 q 720 129 745 179 q 651 45 696 79 q 544 -4 606 12 q 406 -20 481 -20 q 260 -3 323 -20 q 153 48 197 14 q 87 132 110 81 q 65 248 65 182 q 115 398 65 334 q 254 498 164 462 q 197 529 227 511 q 143 573 168 547 q 103 632 119 598 q 87 711 87 667 q 109 816 87 770 q 170 893 130 862 q 270 942 210 925 q 406 958 329 958 q 539 942 481 958 q 639 895 598 926 q 701 818 680 864 q 722 713 722 772 q 706 636 722 669 q 663 576 689 602 q 607 531 637 551 q 547 497 576 512 q 626 454 590 477 q 689 403 663 432 q 730 336 715 374 q 745 248 745 298 m 567 710 q 557 760 567 737 q 527 799 547 783 q 477 824 507 815 q 406 833 447 833 q 331 824 361 833 q 281 799 300 815 q 253 761 262 783 q 244 714 244 739 q 250 679 244 696 q 272 642 255 661 q 321 602 289 623 q 406 558 353 581 q 528 629 488 593 q 567 710 567 665 m 586 248 q 573 309 586 282 q 536 358 560 336 q 479 399 513 380 q 406 437 446 418 q 332 402 366 421 q 275 360 299 383 q 237 309 251 338 q 224 245 224 281 q 235 189 224 214 q 269 145 246 163 q 325 117 291 127 q 406 107 359 107 q 486 118 452 107 q 543 147 520 128 q 575 192 565 166 q 586 248 586 217 z "},"9":{"ha":811,"x_min":65,"x_max":734,"o":"m 179 186 q 259 134 216 151 q 354 117 302 117 q 444 137 407 117 q 506 195 481 158 q 545 283 531 232 q 566 397 559 335 q 474 348 525 369 q 359 328 423 328 q 237 347 291 328 q 144 405 182 366 q 85 501 106 444 q 65 635 65 559 q 89 772 65 712 q 155 873 113 832 q 257 937 198 915 q 389 958 317 958 q 544 929 479 958 q 652 843 610 899 q 714 703 694 786 q 734 514 734 621 q 714 304 734 401 q 648 134 694 206 q 531 21 603 62 q 354 -20 458 -20 q 199 1 264 -20 q 87 65 134 22 l 179 186 m 393 464 q 445 469 419 464 q 493 482 470 474 q 535 500 515 490 q 568 519 554 510 q 562 637 568 582 q 535 733 555 692 q 481 798 516 774 q 390 822 446 822 q 322 810 353 822 q 270 776 292 799 q 236 719 248 753 q 224 639 224 684 q 234 567 224 599 q 266 512 245 534 q 319 476 288 489 q 393 464 351 464 z "},"\u0000":{"ha":0,"x_min":0,"x_max":0,"o":""},"\r":{"ha":354,"x_min":0,"x_max":0,"o":""}," ":{"ha":354,"x_min":0,"x_max":0,"o":""},"!":{"ha":386,"x_min":96,"x_max":289,"o":"m 256 285 l 134 285 l 111 939 l 273 939 l 256 285 m 289 81 q 266 10 289 29 q 192 -9 243 -9 q 146 -4 164 -9 q 116 13 127 2 q 100 41 105 24 q 96 81 96 58 q 117 150 96 129 q 192 171 139 171 q 267 150 245 171 q 289 81 289 128 z "},"\"":{"ha":644,"x_min":106,"x_max":539,"o":"m 510 545 l 404 545 l 375 939 l 539 939 l 510 545 m 240 545 l 135 545 l 106 939 l 269 939 l 240 545 z "},"#":{"ha":966,"x_min":58,"x_max":907,"o":"m 715 572 l 660 366 l 828 366 l 828 262 l 632 262 l 561 0 l 453 0 l 522 262 l 334 262 l 262 0 l 154 0 l 225 262 l 58 262 l 58 366 l 252 366 l 309 572 l 138 572 l 138 676 l 336 676 l 407 939 l 515 939 l 444 676 l 633 676 l 705 939 l 814 939 l 743 676 l 907 676 l 907 572 l 715 572 m 416 572 l 361 366 l 550 366 l 607 572 l 416 572 z "},"$":{"ha":863,"x_min":100,"x_max":772,"o":"m 772 289 q 752 189 772 232 q 694 115 731 145 q 605 68 657 85 q 492 47 553 52 l 492 -90 l 387 -90 l 387 46 q 286 63 330 50 q 205 99 241 77 q 144 147 170 120 q 100 204 119 174 l 216 279 q 244 244 228 262 q 282 210 261 226 q 330 183 304 195 q 387 170 356 172 l 387 421 q 269 457 319 437 q 185 503 218 476 q 135 567 151 530 q 118 656 118 604 q 136 746 118 705 q 188 816 153 786 q 272 864 222 846 q 387 886 322 882 l 387 958 l 492 958 l 492 886 q 585 870 543 883 q 660 837 627 857 q 719 790 693 817 q 762 733 744 764 l 650 659 q 622 694 637 677 q 588 726 607 711 q 545 749 568 740 q 492 762 521 759 l 492 534 q 604 501 552 519 q 693 455 655 483 q 751 387 730 427 q 772 289 772 347 m 387 764 q 297 733 328 760 q 267 663 267 707 q 298 601 267 624 q 387 561 329 578 l 387 764 m 624 278 q 593 348 624 321 q 492 396 562 375 l 492 168 q 544 179 519 171 q 586 201 568 187 q 614 234 604 215 q 624 278 624 254 z "},"%":{"ha":1442,"x_min":68,"x_max":1373,"o":"m 1116 -21 q 997 1 1046 -21 q 917 64 948 24 q 872 159 886 104 q 859 279 859 214 q 873 403 859 347 q 919 498 888 458 q 998 560 949 538 q 1116 582 1047 582 q 1234 560 1185 582 q 1314 499 1283 538 q 1359 403 1345 459 q 1373 279 1373 347 q 1359 157 1373 212 q 1313 62 1344 101 q 1232 1 1281 22 q 1116 -21 1183 -21 m 396 -35 l 914 974 l 1050 974 l 532 -35 l 396 -35 m 325 355 q 206 377 255 355 q 126 439 157 399 q 82 534 96 479 q 68 656 68 589 q 82 779 68 724 q 128 874 97 835 q 208 936 159 914 q 325 958 256 958 q 443 936 394 958 q 523 874 492 914 q 569 779 554 834 q 583 656 583 723 q 569 534 583 589 q 523 439 554 479 q 443 377 492 399 q 325 355 394 355 m 1116 85 q 1169 96 1147 85 q 1205 131 1191 107 q 1225 191 1219 154 q 1231 279 1231 228 q 1225 368 1231 331 q 1205 429 1219 406 q 1169 464 1191 452 q 1116 475 1147 475 q 1062 463 1084 475 q 1027 428 1040 452 q 1007 367 1013 404 q 1002 279 1002 330 q 1007 193 1002 229 q 1027 132 1013 156 q 1062 96 1040 108 q 1116 85 1084 85 m 325 461 q 378 472 356 461 q 413 507 399 484 q 433 567 427 530 q 439 656 439 604 q 433 744 439 707 q 414 805 427 781 q 378 840 400 829 q 325 851 357 851 q 271 840 293 851 q 236 804 250 828 q 217 744 222 781 q 211 656 211 707 q 217 568 211 605 q 236 507 222 531 q 271 472 250 484 q 325 461 293 461 z "},"&":{"ha":964,"x_min":78,"x_max":922,"o":"m 734 0 l 679 66 q 629 34 655 50 q 572 6 603 18 q 503 -13 541 -5 q 416 -20 465 -20 q 271 0 334 -20 q 165 55 208 20 q 100 140 122 91 q 78 249 78 190 q 91 341 78 302 q 131 411 104 380 q 195 471 157 443 q 285 530 234 499 q 244 581 263 555 q 211 633 225 607 q 189 687 197 660 q 180 741 180 713 q 246 900 180 842 q 446 958 311 958 q 546 945 501 958 q 623 907 591 932 q 672 848 655 883 q 689 771 689 814 q 673 689 689 727 q 630 620 657 652 q 568 560 604 588 q 492 507 532 532 l 693 269 q 735 338 713 294 q 772 439 758 381 l 903 408 q 849 264 881 323 q 782 165 817 206 l 922 0 l 734 0 m 542 770 q 515 826 542 804 q 441 848 488 848 q 389 840 410 848 q 354 818 367 832 q 335 786 340 804 q 329 746 329 767 q 351 681 329 714 q 407 607 374 647 q 474 654 448 632 q 515 695 500 675 q 536 733 530 715 q 542 770 542 751 m 368 432 q 298 381 325 404 q 256 337 271 359 q 236 294 241 316 q 231 245 231 272 q 245 183 231 210 q 286 138 260 156 q 346 111 312 120 q 419 102 380 102 q 479 107 452 102 q 528 122 506 113 q 567 143 550 132 q 597 164 584 154 l 368 432 z "},"'":{"ha":375,"x_min":106,"x_max":269,"o":"m 240 545 l 135 545 l 106 939 l 269 939 l 240 545 z "},"(":{"ha":559,"x_min":90,"x_max":518,"o":"m 353 -268 q 237 -118 286 -194 q 155 38 187 -42 q 106 203 122 118 q 90 380 90 288 q 106 559 90 473 q 155 725 123 645 q 237 882 188 806 q 353 1031 286 958 l 518 1031 q 299 726 370 890 q 228 380 228 562 q 300 33 228 196 q 518 -268 372 -130 l 353 -268 z "},")":{"ha":559,"x_min":41,"x_max":469,"o":"m 41 -268 q 259 33 187 -130 q 332 380 332 196 q 259 728 332 565 q 41 1031 187 892 l 207 1031 q 322 882 273 958 q 404 725 372 806 q 453 559 437 645 q 469 380 469 473 q 453 201 469 287 q 404 35 437 115 q 322 -120 371 -45 q 207 -268 273 -195 l 41 -268 z "},"*":{"ha":631,"x_min":41,"x_max":589,"o":"m 539 589 l 359 697 l 364 518 l 267 518 l 271 697 l 92 589 l 41 672 l 233 774 l 41 875 l 92 958 l 271 851 l 267 1031 l 364 1031 l 358 851 l 539 958 l 589 873 l 396 774 l 589 672 l 539 589 z "},"+":{"ha":968,"x_min":100,"x_max":867,"o":"m 543 336 l 543 12 l 425 12 l 425 336 l 100 336 l 100 454 l 425 454 l 425 779 l 543 779 l 543 454 l 867 454 l 867 336 l 543 336 z "},",":{"ha":386,"x_min":96,"x_max":289,"o":"m 111 -199 q 139 -148 127 -176 q 159 -94 151 -121 q 171 -45 167 -68 q 176 -8 176 -22 q 115 15 134 -7 q 96 82 96 36 q 100 121 96 104 q 117 150 105 138 q 147 169 128 162 q 193 175 165 175 q 267 147 245 175 q 289 68 289 119 q 281 -12 289 27 q 262 -86 274 -52 q 235 -150 250 -121 q 205 -199 220 -179 l 111 -199 z "},"-":{"ha":547,"x_min":62,"x_max":485,"o":"m 62 285 l 62 429 l 485 429 l 485 285 l 62 285 z "},".":{"ha":386,"x_min":96,"x_max":289,"o":"m 289 82 q 266 11 289 32 q 192 -9 243 -9 q 146 -3 164 -9 q 116 14 127 3 q 100 43 105 26 q 96 82 96 60 q 117 153 96 130 q 192 175 139 175 q 267 153 245 175 q 289 82 289 131 z "},"/":{"ha":688,"x_min":-1,"x_max":618,"o":"m 140 -203 l -1 -203 l 475 1031 l 618 1031 l 140 -203 z "},":":{"ha":386,"x_min":96,"x_max":289,"o":"m 289 618 q 266 547 289 568 q 192 526 243 526 q 146 532 164 526 q 116 550 127 538 q 100 579 105 562 q 96 618 96 596 q 117 689 96 667 q 192 711 139 711 q 267 689 245 711 q 289 618 289 667 m 289 82 q 266 11 289 32 q 192 -9 243 -9 q 146 -3 164 -9 q 116 14 127 3 q 100 43 105 26 q 96 82 96 60 q 117 153 96 130 q 192 175 139 175 q 267 153 245 175 q 289 82 289 131 z "},";":{"ha":386,"x_min":96,"x_max":289,"o":"m 289 618 q 266 547 289 568 q 192 526 243 526 q 146 532 164 526 q 116 550 127 538 q 100 579 105 562 q 96 618 96 596 q 117 689 96 667 q 192 711 139 711 q 267 689 245 711 q 289 618 289 667 m 289 68 q 281 -12 289 27 q 262 -86 274 -52 q 235 -150 250 -121 q 205 -199 220 -179 l 111 -199 q 139 -148 127 -176 q 159 -94 151 -120 q 171 -44 167 -67 q 176 -8 176 -22 q 115 15 134 -7 q 96 82 96 36 q 100 121 96 104 q 117 150 105 138 q 147 169 128 162 q 193 175 165 175 q 267 147 245 175 q 289 68 289 119 z "},"<":{"ha":968,"x_min":100,"x_max":867,"o":"m 100 340 l 100 452 l 867 771 l 867 642 l 268 396 l 867 151 l 867 22 l 100 340 z "},"=":{"ha":968,"x_min":100,"x_max":867,"o":"m 100 498 l 100 616 l 867 616 l 867 498 l 100 498 m 100 175 l 100 293 l 867 293 l 867 175 l 100 175 z "},">":{"ha":968,"x_min":100,"x_max":867,"o":"m 100 22 l 100 151 l 699 396 l 100 642 l 100 771 l 867 452 l 867 340 l 100 22 z "},"?":{"ha":718,"x_min":35,"x_max":657,"o":"m 233 264 l 233 458 q 349 515 300 488 q 430 569 398 542 q 478 627 463 597 q 493 694 493 658 q 455 786 493 752 q 339 821 417 821 q 279 814 306 821 q 232 794 253 807 q 195 764 212 782 q 165 724 179 746 l 35 804 q 149 917 75 876 q 338 958 222 958 q 463 944 404 958 q 564 898 521 929 q 632 820 607 867 q 657 708 657 773 q 635 600 657 647 q 575 516 612 553 q 488 449 537 479 q 385 392 438 419 l 385 264 l 233 264 m 407 81 q 384 10 407 29 q 310 -9 361 -9 q 264 -4 282 -9 q 234 13 245 2 q 218 41 223 24 q 214 81 214 58 q 235 150 214 129 q 310 171 257 171 q 385 150 363 171 q 407 81 407 128 z "},"@":{"ha":1317,"x_min":77,"x_max":1240,"o":"m 1240 386 q 1235 294 1240 340 q 1217 207 1230 248 q 1184 129 1204 165 q 1134 67 1164 94 q 1065 26 1105 41 q 974 11 1025 11 q 862 31 903 11 q 803 102 820 50 q 712 49 760 69 q 607 29 665 29 q 484 57 534 29 q 404 131 435 85 q 360 234 374 177 q 347 350 347 292 q 366 491 347 427 q 421 599 385 554 q 511 669 458 644 q 635 693 565 693 q 719 678 677 693 q 794 642 760 663 l 794 673 l 925 673 l 925 192 q 929 156 925 170 q 940 135 932 142 q 957 124 947 127 q 982 121 968 121 q 1050 147 1023 121 q 1093 212 1078 173 q 1115 297 1109 252 q 1121 380 1121 342 q 1094 573 1121 487 q 1011 721 1067 660 q 870 815 955 782 q 669 848 785 848 q 478 812 566 848 q 329 712 391 776 q 231 562 266 649 q 196 374 196 475 q 230 175 196 262 q 325 26 263 87 q 473 -67 387 -35 q 667 -100 560 -100 q 746 -98 708 -100 q 821 -93 785 -97 q 892 -84 857 -90 q 964 -69 927 -78 l 987 -179 q 831 -203 914 -197 q 665 -210 748 -210 q 429 -170 536 -210 q 242 -55 321 -130 q 120 128 164 20 q 77 375 77 237 q 97 534 77 458 q 154 674 117 610 q 245 792 192 739 q 363 881 298 844 q 506 938 429 918 q 668 958 583 958 q 915 918 808 958 q 1094 802 1021 877 q 1203 621 1166 727 q 1240 386 1240 515 m 793 525 q 721 561 758 547 q 654 575 685 575 q 523 520 564 575 q 481 353 481 465 q 488 275 481 312 q 512 211 494 239 q 558 168 529 184 q 633 151 588 151 q 674 157 653 151 q 715 172 695 163 q 755 194 736 182 q 793 218 775 205 l 793 525 z "},"A":{"ha":890,"x_min":26,"x_max":864,"o":"m 26 0 l 342 939 l 547 939 l 864 0 l 700 0 l 628 216 l 256 216 l 184 0 l 26 0 m 301 358 l 581 358 l 441 781 l 301 358 z "},"B":{"ha":871,"x_min":113,"x_max":803,"o":"m 803 273 q 779 151 803 202 q 708 65 754 99 q 594 16 661 32 q 441 0 527 0 l 113 0 l 113 939 l 416 939 q 570 926 507 939 q 673 886 633 913 q 730 819 712 859 q 747 722 747 778 q 735 635 747 672 q 701 573 722 599 q 650 532 679 548 q 587 509 621 517 q 675 486 635 503 q 743 442 715 470 q 787 372 772 414 q 803 273 803 331 m 586 688 q 576 741 586 720 q 546 775 567 762 q 490 794 524 789 q 404 800 455 800 l 271 800 l 271 559 l 399 559 q 487 568 452 559 q 545 592 523 576 q 576 632 567 608 q 586 688 586 656 m 639 285 q 626 353 639 326 q 586 394 613 379 q 516 415 558 410 q 415 421 473 421 l 271 421 l 271 142 l 383 142 q 492 146 445 142 q 572 165 540 150 q 622 208 605 180 q 639 285 639 236 z "},"C":{"ha":900,"x_min":77,"x_max":854,"o":"m 854 160 q 799 89 830 122 q 727 32 768 56 q 629 -6 685 8 q 500 -20 574 -20 q 181 102 285 -20 q 77 469 77 224 q 181 837 77 715 q 493 958 286 958 q 619 945 564 958 q 716 909 674 932 q 788 854 758 886 q 840 786 819 823 l 714 694 q 681 740 699 718 q 638 780 663 762 q 578 807 612 797 q 496 818 543 818 q 302 730 363 818 q 240 469 240 643 q 257 311 240 376 q 306 202 273 245 q 387 140 338 160 q 497 121 435 121 q 579 131 544 121 q 641 158 614 141 q 688 199 668 176 q 726 249 709 222 l 854 160 z "},"D":{"ha":884,"x_min":104,"x_max":814,"o":"m 814 469 q 785 240 814 331 q 700 96 757 149 q 560 21 644 43 q 367 0 477 0 l 104 0 l 104 939 l 364 939 q 561 915 477 939 q 702 836 646 891 q 786 691 758 781 q 814 469 814 602 m 648 471 q 633 628 648 566 q 584 727 618 690 q 492 779 549 764 q 351 794 435 794 l 262 794 l 262 144 l 351 144 q 494 160 437 144 q 585 214 551 176 q 634 314 620 252 q 648 471 648 377 z "},"E":{"ha":781,"x_min":113,"x_max":704,"o":"m 113 0 l 113 939 l 704 939 l 704 798 l 271 798 l 271 559 l 639 559 l 639 418 l 271 418 l 271 144 l 704 144 l 704 0 l 113 0 z "},"F":{"ha":750,"x_min":113,"x_max":699,"o":"m 271 794 l 271 555 l 632 555 l 632 414 l 271 414 l 271 0 l 113 0 l 113 939 l 699 939 l 699 794 l 271 794 z "},"G":{"ha":951,"x_min":77,"x_max":850,"o":"m 725 693 q 637 785 690 753 q 498 818 584 818 q 391 799 439 818 q 310 739 343 781 q 258 629 276 696 q 240 464 240 562 q 255 314 240 378 q 301 207 269 250 q 382 142 332 164 q 501 121 431 121 q 598 132 553 121 q 690 164 644 143 l 690 349 l 485 349 l 485 490 l 848 490 l 848 81 q 691 7 777 35 q 504 -20 606 -20 q 180 101 284 -20 q 77 464 77 221 q 101 675 77 583 q 178 830 126 768 q 310 926 230 893 q 498 958 389 958 q 629 944 572 958 q 729 907 686 930 q 801 852 771 883 q 850 786 830 821 l 725 693 z "},"H":{"ha":940,"x_min":113,"x_max":828,"o":"m 669 0 l 669 414 l 271 414 l 271 0 l 113 0 l 113 939 l 271 939 l 271 558 l 669 558 l 669 939 l 828 939 l 828 0 l 669 0 z "},"I":{"ha":557,"x_min":69,"x_max":488,"o":"m 488 0 l 69 0 l 69 127 l 199 127 l 199 811 l 69 811 l 69 939 l 488 939 l 488 811 l 357 811 l 357 127 l 488 127 l 488 0 z "},"J":{"ha":612,"x_min":24,"x_max":498,"o":"m 498 256 q 482 132 498 184 q 430 46 465 80 q 341 -5 395 12 q 211 -21 286 -21 q 169 -19 193 -21 q 120 -12 145 -16 q 69 0 94 -7 q 24 14 44 6 l 77 153 q 104 141 87 147 q 140 131 121 136 q 179 123 159 126 q 212 119 198 119 q 276 129 251 119 q 315 159 300 138 q 335 217 330 181 q 340 307 340 253 l 340 939 l 498 939 l 498 256 z "},"K":{"ha":863,"x_min":113,"x_max":835,"o":"m 635 0 l 343 404 l 271 321 l 271 0 l 113 0 l 113 939 l 271 939 l 271 525 l 623 939 l 812 939 l 446 521 l 835 0 l 635 0 z "},"L":{"ha":704,"x_min":113,"x_max":681,"o":"m 113 0 l 113 939 l 271 939 l 271 144 l 681 144 l 681 0 l 113 0 z "},"M":{"ha":1105,"x_min":113,"x_max":993,"o":"m 840 0 l 840 704 l 599 248 l 504 248 l 264 704 l 264 0 l 113 0 l 113 939 l 307 939 l 554 460 l 803 939 l 993 939 l 993 0 l 840 0 z "},"N":{"ha":949,"x_min":113,"x_max":836,"o":"m 648 0 l 267 737 l 267 0 l 113 0 l 113 939 l 328 939 l 682 253 l 682 939 l 836 939 l 836 0 l 648 0 z "},"O":{"ha":925,"x_min":69,"x_max":856,"o":"m 856 469 q 834 263 856 354 q 764 110 812 173 q 642 14 716 47 q 463 -20 567 -20 q 284 14 358 -20 q 162 110 210 47 q 92 263 114 173 q 69 469 69 354 q 92 675 69 585 q 162 829 114 766 q 284 925 210 892 q 463 958 358 958 q 642 925 567 958 q 764 830 716 892 q 834 676 812 767 q 856 469 856 585 m 690 469 q 678 622 690 557 q 639 731 666 688 q 568 796 612 774 q 463 818 525 818 q 356 796 399 818 q 285 731 312 774 q 245 622 258 688 q 233 469 233 557 q 245 316 233 382 q 285 208 258 251 q 356 142 313 164 q 463 121 400 121 q 568 142 525 121 q 639 207 612 163 q 678 316 666 250 q 690 469 690 381 z "},"P":{"ha":821,"x_min":113,"x_max":761,"o":"m 761 631 q 742 485 761 546 q 681 383 722 423 q 576 324 640 343 q 422 304 512 304 l 271 304 l 271 0 l 113 0 l 113 939 l 428 939 q 570 922 508 939 q 674 869 632 905 q 739 773 717 832 q 761 631 761 715 m 596 629 q 582 713 596 680 q 542 765 568 746 q 476 791 515 784 q 387 799 437 799 l 271 799 l 271 444 l 370 444 q 472 450 429 444 q 543 476 515 456 q 583 532 570 495 q 596 629 596 568 z "},"Q":{"ha":925,"x_min":69,"x_max":859,"o":"m 859 -205 q 818 -216 840 -212 q 771 -224 795 -221 q 726 -228 748 -227 q 688 -229 704 -229 q 566 -214 618 -229 q 478 -171 515 -199 q 419 -104 441 -143 q 385 -16 397 -64 q 149 124 229 4 q 69 469 69 244 q 91 676 69 585 q 161 830 113 767 q 284 925 209 892 q 464 958 359 958 q 643 925 568 958 q 764 829 717 892 q 834 675 812 766 q 856 469 856 585 q 784 138 856 261 q 559 -12 711 16 q 573 -48 564 -33 q 598 -74 583 -64 q 637 -90 614 -85 q 693 -96 661 -96 q 721 -94 705 -96 q 754 -91 737 -93 q 787 -85 771 -88 q 817 -78 804 -81 l 859 -205 m 690 469 q 678 622 690 557 q 639 731 666 688 q 569 796 612 774 q 464 818 526 818 q 356 796 400 818 q 285 731 313 774 q 245 622 258 688 q 233 469 233 557 q 245 316 233 381 q 285 207 258 250 q 356 142 313 163 q 464 121 400 121 q 570 142 527 121 q 640 208 614 164 q 679 317 667 252 q 690 469 690 382 z "},"R":{"ha":854,"x_min":113,"x_max":823,"o":"m 640 0 l 401 370 l 271 370 l 271 0 l 113 0 l 113 939 l 429 939 q 577 924 513 939 q 682 877 640 909 q 745 793 724 845 q 766 667 766 741 q 752 552 766 600 q 711 471 737 504 q 649 418 685 437 q 571 390 613 399 l 823 0 l 640 0 m 604 659 q 594 727 604 700 q 563 770 584 754 q 508 793 541 787 q 428 800 474 800 l 271 800 l 271 509 l 419 509 q 508 516 473 509 q 565 542 544 524 q 595 588 587 559 q 604 659 604 616 z "},"S":{"ha":832,"x_min":54,"x_max":765,"o":"m 765 264 q 737 131 765 184 q 661 43 709 77 q 548 -5 612 9 q 412 -20 484 -20 q 279 -5 336 -20 q 180 33 222 9 q 107 90 137 58 q 54 160 77 123 l 179 250 q 217 200 196 224 q 265 159 237 177 q 329 131 292 142 q 414 121 366 121 q 484 127 450 121 q 545 150 518 134 q 587 191 571 165 q 603 253 603 216 q 588 312 603 288 q 547 352 572 336 q 486 379 521 368 q 412 400 452 390 q 279 438 340 418 q 172 487 217 457 q 100 563 126 517 q 74 681 74 609 q 96 796 74 745 q 159 883 117 847 q 264 939 201 920 q 408 958 327 958 q 520 947 469 958 q 611 915 570 936 q 685 862 652 893 q 742 790 718 830 l 619 699 q 531 788 582 758 q 407 818 480 818 q 281 785 328 818 q 235 693 235 753 q 247 643 235 663 q 286 608 260 623 q 352 582 312 593 q 446 557 391 570 q 527 535 488 547 q 603 508 567 524 q 668 472 638 493 q 719 422 698 452 q 753 354 741 393 q 765 264 765 315 z "},"T":{"ha":810,"x_min":25,"x_max":783,"o":"m 484 794 l 484 0 l 325 0 l 325 794 l 25 794 l 25 939 l 783 939 l 783 794 l 484 794 z "},"U":{"ha":964,"x_min":113,"x_max":851,"o":"m 851 392 q 830 199 851 278 q 765 72 810 121 q 651 1 721 23 q 482 -21 581 -21 q 313 1 383 -21 q 198 72 243 23 q 133 200 154 121 q 113 392 113 279 l 113 939 l 271 939 l 271 406 q 282 270 271 324 q 318 181 293 215 q 383 134 343 148 q 481 119 423 119 q 579 134 539 119 q 645 182 620 149 q 682 269 671 215 q 693 403 693 323 l 693 939 l 851 939 l 851 392 z "},"V":{"ha":836,"x_min":26,"x_max":810,"o":"m 515 0 l 318 0 l 26 939 l 189 939 l 419 179 l 652 939 l 810 939 l 515 0 z "},"W":{"ha":1217,"x_min":37,"x_max":1179,"o":"m 945 0 l 772 0 l 606 686 l 437 0 l 267 0 l 37 939 l 195 939 l 357 253 l 524 939 l 689 939 l 859 249 l 1023 939 l 1179 939 l 945 0 z "},"X":{"ha":846,"x_min":28,"x_max":818,"o":"m 28 0 l 336 471 l 36 939 l 218 939 l 427 595 l 642 939 l 818 939 l 514 475 l 817 0 l 636 0 l 421 350 l 203 0 l 28 0 z "},"Y":{"ha":791,"x_min":20,"x_max":771,"o":"m 475 359 l 475 0 l 315 0 l 315 355 l 20 939 l 195 939 l 397 514 l 603 939 l 771 939 l 475 359 z "},"Z":{"ha":783,"x_min":56,"x_max":718,"o":"m 56 0 l 56 140 l 518 794 l 77 794 l 77 939 l 707 939 l 707 806 l 239 144 l 718 144 l 718 0 l 56 0 z "},"[":{"ha":532,"x_min":118,"x_max":469,"o":"m 118 -268 l 118 1010 l 469 1010 l 469 895 l 253 895 l 253 -153 l 469 -153 l 469 -268 l 118 -268 z "},"\\":{"ha":688,"x_min":68,"x_max":689,"o":"m 546 -203 l 68 1031 l 212 1031 l 689 -203 l 546 -203 z "},"]":{"ha":532,"x_min":62,"x_max":414,"o":"m 62 -268 l 62 -153 l 279 -153 l 279 895 l 62 895 l 62 1010 l 414 1010 l 414 -268 l 62 -268 z "},"^":{"ha":863,"x_min":90,"x_max":772,"o":"m 646 403 l 432 807 l 215 403 l 90 403 l 374 939 l 488 939 l 772 403 l 646 403 z "},"_":{"ha":694,"x_min":-7,"x_max":701,"o":"m -7 -174 l -7 -104 l 701 -104 l 701 -174 l -7 -174 z "},"`":{"ha":722,"x_min":157,"x_max":468,"o":"m 350 819 l 157 1064 l 343 1064 l 468 819 l 350 819 z "},"a":{"ha":758,"x_min":65,"x_max":657,"o":"m 518 0 l 518 81 q 412 7 468 36 q 290 -21 356 -21 q 194 -5 236 -21 q 123 41 152 12 q 80 111 95 71 q 65 200 65 151 q 86 308 65 264 q 145 379 108 351 q 235 420 183 406 q 349 440 287 434 l 511 456 l 511 489 q 501 548 511 524 q 470 585 490 571 q 421 605 450 600 q 354 611 391 611 q 291 604 318 611 q 245 587 264 597 q 212 562 225 576 q 192 534 199 548 l 77 608 q 112 653 90 631 q 169 693 135 675 q 249 721 203 710 q 357 732 296 732 q 488 720 431 732 q 582 679 544 707 q 638 603 619 650 q 657 484 657 555 l 657 0 l 518 0 m 511 346 l 410 336 q 327 323 363 332 q 266 299 290 315 q 228 260 241 283 q 215 203 215 237 q 245 123 215 146 q 329 100 275 100 q 373 107 350 100 q 419 127 395 115 q 466 156 442 139 q 511 191 489 172 l 511 346 z "},"b":{"ha":810,"x_min":107,"x_max":739,"o":"m 739 361 q 724 215 739 284 q 674 93 708 146 q 587 10 640 41 q 457 -21 533 -21 q 396 -14 427 -21 q 338 4 366 -7 q 286 31 311 16 q 243 62 262 46 l 232 0 l 107 0 l 107 1010 l 253 1010 l 253 647 q 349 708 295 684 q 467 732 404 732 q 590 705 538 732 q 675 630 642 679 q 724 513 708 582 q 739 361 739 445 m 589 358 q 551 542 589 480 q 431 603 513 603 q 382 596 407 603 q 335 579 358 590 q 292 553 313 568 q 253 522 271 538 l 253 178 q 290 151 269 163 q 332 129 310 138 q 378 114 355 119 q 422 109 401 109 q 488 122 457 109 q 541 165 518 136 q 576 243 563 195 q 589 358 589 290 z "},"c":{"ha":708,"x_min":71,"x_max":668,"o":"m 668 106 q 625 53 649 77 q 568 13 600 30 q 495 -12 536 -3 q 403 -21 454 -21 q 250 6 313 -21 q 147 83 187 33 q 89 201 107 132 q 71 353 71 269 q 90 510 71 439 q 149 629 109 580 q 251 705 189 678 q 397 732 313 732 q 554 701 488 732 q 659 606 621 669 l 545 529 q 486 585 521 566 q 399 604 452 604 q 264 544 307 604 q 221 353 221 483 q 231 247 221 293 q 261 170 240 201 q 318 122 283 138 q 404 106 353 106 q 449 110 428 106 q 488 122 469 113 q 522 145 506 131 q 554 180 538 159 l 668 106 z "},"d":{"ha":810,"x_min":71,"x_max":703,"o":"m 564 0 l 564 69 q 464 4 519 30 q 343 -21 409 -21 q 220 6 271 -21 q 135 83 168 34 q 86 201 102 133 q 71 350 71 269 q 86 492 71 423 q 137 614 102 561 q 227 700 172 667 q 363 732 283 732 q 467 711 416 732 q 557 656 518 690 l 557 1010 l 703 1010 l 703 0 l 564 0 m 557 532 q 521 559 541 546 q 480 582 502 572 q 435 597 458 591 q 389 603 412 603 q 324 588 355 603 q 271 543 294 574 q 235 466 248 513 q 221 353 221 418 q 261 171 221 233 q 378 109 300 109 q 427 115 402 109 q 475 133 452 121 q 519 158 498 144 q 557 189 540 173 l 557 532 z "},"e":{"ha":754,"x_min":71,"x_max":689,"o":"m 221 325 q 232 230 222 271 q 265 162 243 189 q 323 120 288 134 q 411 106 359 106 q 497 122 460 106 q 567 179 535 139 l 679 103 q 633 50 659 73 q 575 11 608 26 q 499 -13 542 -5 q 403 -21 457 -21 q 152 73 233 -21 q 71 350 71 167 q 88 506 71 436 q 143 627 105 576 q 243 704 182 677 q 395 732 305 732 q 530 708 474 732 q 621 641 586 684 q 673 536 656 597 q 689 401 689 475 l 689 325 l 221 325 m 545 432 q 507 567 545 521 q 390 614 470 614 q 320 602 349 614 q 272 567 292 590 q 241 510 253 544 q 224 432 230 476 l 545 432 z "},"f":{"ha":437,"x_min":26,"x_max":498,"o":"m 465 882 q 418 897 444 891 q 367 903 392 903 q 319 896 338 903 q 289 874 300 889 q 274 837 278 860 q 269 781 269 813 l 269 711 l 421 711 l 421 593 l 269 593 l 269 0 l 123 0 l 123 593 l 26 593 l 26 711 l 123 711 l 123 781 q 136 890 123 843 q 178 968 149 937 q 252 1015 206 1000 q 364 1031 298 1031 q 436 1024 401 1031 q 498 1008 471 1018 l 465 882 z "},"g":{"ha":810,"x_min":71,"x_max":703,"o":"m 703 14 q 684 -111 703 -58 q 624 -198 665 -163 q 519 -251 583 -233 q 367 -268 456 -268 q 217 -251 285 -268 q 97 -204 150 -235 l 144 -86 q 246 -127 191 -111 q 367 -143 301 -143 q 454 -134 418 -143 q 513 -107 490 -125 q 546 -58 536 -88 q 557 14 557 -28 l 557 85 q 463 24 517 48 q 345 0 410 0 q 221 27 273 0 q 136 102 170 54 q 86 216 102 150 q 71 363 71 283 q 86 500 71 433 q 137 618 102 566 q 228 701 172 669 q 364 732 284 732 q 473 709 420 732 q 567 648 526 686 l 578 711 l 703 711 l 703 14 m 557 532 q 477 584 519 564 q 387 603 435 603 q 316 585 347 603 q 264 535 286 567 q 232 460 243 504 q 221 366 221 417 q 230 268 221 312 q 257 194 239 224 q 306 146 276 163 q 376 129 335 129 q 469 151 423 129 q 557 210 515 172 l 557 532 z "},"h":{"ha":807,"x_min":107,"x_max":705,"o":"m 559 0 l 559 406 q 556 496 559 459 q 541 556 552 533 q 509 589 530 578 q 456 599 489 599 q 408 590 433 599 q 356 566 382 581 q 304 531 330 551 q 253 489 277 511 l 253 0 l 107 0 l 107 1010 l 253 1010 l 253 612 q 304 657 276 635 q 365 695 333 679 q 430 722 396 712 q 497 732 463 732 q 596 715 556 732 q 660 665 636 698 q 695 584 684 632 q 705 475 705 536 l 705 0 l 559 0 z "},"i":{"ha":359,"x_min":93,"x_max":267,"o":"m 267 899 q 245 837 267 854 q 179 819 224 819 q 112 840 130 819 q 93 899 93 860 q 113 959 93 941 q 179 978 132 978 q 246 960 226 978 q 267 899 267 941 m 107 0 l 107 711 l 253 711 l 253 0 l 107 0 z "},"j":{"ha":372,"x_min":-104,"x_max":277,"o":"m 277 899 q 255 837 277 854 q 189 819 234 819 q 148 824 165 819 q 122 840 132 829 q 109 864 113 850 q 104 899 104 879 q 123 959 104 941 q 189 978 142 978 q 257 960 237 978 q 277 899 277 941 m 262 -31 q 251 -137 262 -92 q 212 -211 239 -182 q 141 -254 184 -240 q 35 -268 98 -268 q 6 -267 22 -268 q -30 -263 -11 -265 q -68 -257 -48 -260 q -104 -248 -87 -253 l -71 -123 q -22 -138 -47 -133 q 32 -143 3 -143 q 76 -134 60 -143 q 102 -107 93 -125 q 114 -61 111 -89 q 117 4 117 -33 l 117 711 l 262 711 l 262 -31 z "},"k":{"ha":728,"x_min":107,"x_max":704,"o":"m 533 0 l 325 307 l 253 228 l 253 0 l 107 0 l 107 1010 l 253 1010 l 253 406 l 517 711 l 689 711 l 414 406 l 704 0 l 533 0 z "},"l":{"ha":366,"x_min":110,"x_max":256,"o":"m 110 0 l 110 1010 l 256 1010 l 256 0 l 110 0 z "},"m":{"ha":1187,"x_min":107,"x_max":1086,"o":"m 940 0 l 940 419 q 937 507 940 472 q 924 562 934 541 q 897 590 915 582 q 850 599 880 599 q 805 590 828 599 q 759 565 782 581 q 712 530 735 550 q 669 489 690 510 l 669 0 l 524 0 l 524 419 q 520 508 524 473 q 507 563 517 543 q 480 591 498 583 q 435 599 463 599 q 387 589 412 599 q 339 563 363 579 q 293 528 315 547 q 253 489 271 508 l 253 0 l 107 0 l 107 711 l 253 711 l 253 612 q 302 660 276 638 q 355 697 328 682 q 412 723 382 713 q 475 732 442 732 q 598 700 555 732 q 656 602 641 667 q 713 656 685 632 q 769 697 741 680 q 829 723 798 713 q 896 732 861 732 q 989 714 953 732 q 1048 662 1026 696 q 1078 581 1069 629 q 1086 475 1086 534 l 1086 0 l 940 0 z "},"n":{"ha":807,"x_min":107,"x_max":705,"o":"m 559 0 l 559 406 q 556 495 559 458 q 542 555 553 532 q 510 589 530 578 q 456 599 490 599 q 408 590 433 599 q 356 566 382 581 q 304 531 330 551 q 253 489 277 511 l 253 0 l 107 0 l 107 711 l 253 711 l 253 612 q 304 657 276 635 q 365 695 333 679 q 430 722 396 712 q 497 732 463 732 q 597 715 557 732 q 661 665 637 698 q 695 584 685 632 q 705 475 705 536 l 705 0 l 559 0 z "},"o":{"ha":796,"x_min":71,"x_max":725,"o":"m 725 354 q 706 198 725 267 q 648 80 688 129 q 547 5 608 31 q 399 -21 485 -21 q 250 5 312 -21 q 148 81 187 32 q 89 199 108 130 q 71 354 71 268 q 90 511 71 441 q 148 630 109 581 q 250 706 188 680 q 399 732 312 732 q 547 706 485 732 q 648 630 608 680 q 706 511 688 581 q 725 354 725 441 m 574 354 q 533 543 574 481 q 399 604 492 604 q 263 543 306 604 q 221 354 221 481 q 263 168 221 231 q 399 106 304 106 q 532 168 490 106 q 574 354 574 231 z "},"p":{"ha":810,"x_min":107,"x_max":739,"o":"m 739 361 q 723 217 739 286 q 672 95 707 148 q 583 11 637 42 q 453 -21 529 -21 q 345 -1 395 -21 q 253 56 295 19 l 253 -268 l 107 -268 l 107 711 l 245 711 l 245 640 q 346 706 290 681 q 467 732 401 732 q 589 705 538 732 q 674 629 640 677 q 723 511 707 580 q 739 361 739 443 m 589 358 q 549 541 589 478 q 432 603 509 603 q 383 596 408 603 q 335 579 358 590 q 291 553 312 568 q 253 522 270 538 l 253 178 q 289 151 269 163 q 330 129 308 138 q 374 114 351 119 q 421 109 397 109 q 486 123 455 109 q 539 167 516 137 q 575 244 562 197 q 589 358 589 292 z "},"q":{"ha":810,"x_min":71,"x_max":703,"o":"m 557 -268 l 557 64 q 460 2 515 26 q 343 -21 406 -21 q 218 7 270 -21 q 133 84 166 35 q 85 201 100 133 q 71 350 71 269 q 77 446 71 399 q 98 536 83 494 q 135 614 112 578 q 189 676 157 650 q 263 717 221 703 q 358 732 305 732 q 418 725 389 732 q 474 707 447 718 q 525 680 501 695 q 567 648 548 665 l 578 711 l 703 711 l 703 -268 l 557 -268 m 557 532 q 519 560 540 547 q 476 583 498 573 q 431 597 454 592 q 386 603 408 603 q 323 589 353 603 q 270 544 293 574 q 234 466 248 513 q 221 353 221 418 q 259 170 221 231 q 378 109 298 109 q 426 115 401 109 q 474 132 450 121 q 518 158 497 143 q 557 189 539 172 l 557 532 z "},"r":{"ha":559,"x_min":107,"x_max":543,"o":"m 514 568 q 486 576 503 572 q 450 579 469 579 q 394 571 420 579 q 343 549 368 563 q 297 516 319 535 q 253 476 275 497 l 253 0 l 107 0 l 107 711 l 253 711 l 253 603 q 300 649 276 627 q 352 687 325 671 q 408 713 378 703 q 469 722 437 722 q 512 719 494 722 q 543 708 530 715 l 514 568 z "},"s":{"ha":684,"x_min":60,"x_max":621,"o":"m 621 197 q 598 97 621 138 q 537 29 575 56 q 448 -9 498 3 q 343 -21 398 -21 q 242 -12 288 -21 q 162 15 197 -2 q 101 54 127 31 q 60 104 76 77 l 171 179 q 243 118 200 136 q 339 100 286 100 q 391 104 366 100 q 435 118 416 108 q 466 146 454 129 q 478 191 478 164 q 469 225 478 211 q 441 251 460 239 q 392 272 422 262 q 319 292 362 281 q 227 319 271 304 q 150 360 183 335 q 96 424 116 386 q 75 519 75 463 q 92 604 75 565 q 143 671 109 642 q 228 715 178 699 q 346 732 279 732 q 434 723 393 732 q 508 698 475 714 q 568 659 542 682 q 610 608 593 636 l 498 533 q 474 562 488 548 q 440 587 460 576 q 397 605 421 598 q 343 611 373 611 q 252 589 286 611 q 218 525 218 567 q 225 492 218 505 q 249 467 233 478 q 290 448 264 456 q 353 431 316 439 q 464 397 414 415 q 549 354 514 380 q 602 291 583 328 q 621 197 621 253 z "},"t":{"ha":497,"x_min":26,"x_max":481,"o":"m 481 0 q 412 -15 450 -9 q 339 -21 374 -21 q 240 -7 281 -21 q 173 36 199 7 q 134 109 146 64 q 122 215 122 154 l 122 593 l 26 593 l 26 711 l 122 711 l 122 909 l 268 909 l 268 711 l 440 711 l 440 593 l 268 593 l 268 237 q 272 173 268 199 q 287 131 277 147 q 314 107 297 115 q 354 100 330 100 q 404 105 378 100 q 450 119 431 111 l 481 0 z "},"u":{"ha":807,"x_min":102,"x_max":700,"o":"m 554 0 l 554 98 q 502 53 530 75 q 443 15 474 31 q 377 -11 411 -1 q 310 -21 344 -21 q 210 -4 250 -21 q 146 46 170 13 q 112 126 122 79 q 102 236 102 174 l 102 711 l 248 711 l 248 306 q 251 215 248 252 q 265 156 254 178 q 296 123 276 133 q 350 113 317 113 q 398 121 372 113 q 450 145 423 130 q 503 180 477 160 q 554 222 530 200 l 554 711 l 700 711 l 700 0 l 554 0 z "},"v":{"ha":694,"x_min":26,"x_max":668,"o":"m 415 0 l 277 0 l 26 711 l 178 711 l 350 197 l 519 711 l 668 711 l 415 0 z "},"w":{"ha":1031,"x_min":31,"x_max":1000,"o":"m 817 0 l 684 0 l 517 498 l 349 0 l 215 0 l 31 711 l 182 711 l 297 211 l 461 711 l 576 711 l 743 212 l 854 711 l 1000 711 l 817 0 z "},"x":{"ha":708,"x_min":29,"x_max":679,"o":"m 503 0 l 350 249 l 192 0 l 29 0 l 269 351 l 32 711 l 205 711 l 358 464 l 515 711 l 679 711 l 439 359 l 679 0 l 503 0 z "},"y":{"ha":721,"x_min":-8,"x_max":696,"o":"m 25 -123 q 76 -138 49 -133 q 127 -143 102 -143 q 166 -136 148 -143 q 200 -113 184 -129 q 232 -71 217 -97 q 262 -8 248 -45 l 283 43 l 25 711 l 179 711 l 361 224 l 546 711 l 696 711 l 390 -52 q 342 -151 366 -110 q 287 -218 317 -192 q 218 -256 256 -244 q 131 -268 180 -268 q 60 -262 97 -268 q -8 -248 22 -257 l 25 -123 z "},"z":{"ha":632,"x_min":47,"x_max":585,"o":"m 47 0 l 47 109 l 399 593 l 56 593 l 56 711 l 574 711 l 574 606 l 221 118 l 585 118 l 585 0 l 47 0 z "},"{":{"ha":642,"x_min":69,"x_max":586,"o":"m 539 -268 q 334 -199 402 -268 q 265 -1 265 -131 l 265 96 q 255 188 265 146 q 222 258 244 229 q 168 303 201 288 q 89 319 134 319 l 69 319 l 69 444 l 89 444 q 168 460 134 444 q 222 504 201 475 q 255 574 244 533 q 265 667 265 616 l 265 764 q 333 963 265 895 q 539 1031 401 1031 l 586 1031 l 586 916 l 554 916 q 435 876 471 916 q 400 753 400 837 l 400 639 q 388 548 400 589 q 353 475 376 507 q 298 420 330 444 q 224 380 265 396 q 297 343 264 366 q 352 287 330 319 q 388 213 375 254 q 400 123 400 172 l 400 8 q 409 -64 400 -34 q 435 -115 417 -95 q 483 -143 454 -134 q 554 -153 512 -153 l 586 -153 l 586 -268 l 539 -268 z "},"|":{"ha":559,"x_min":212,"x_max":347,"o":"m 212 -268 l 212 1031 l 347 1031 l 347 -268 l 212 -268 z "},"}":{"ha":642,"x_min":56,"x_max":572,"o":"m 56 -268 l 56 -153 l 86 -153 q 158 -143 128 -153 q 206 -115 187 -134 q 233 -64 224 -95 q 241 8 241 -34 l 241 123 q 254 213 241 172 q 289 287 267 254 q 345 343 312 319 q 418 380 377 366 q 344 420 377 396 q 289 475 311 444 q 254 548 266 507 q 241 639 241 589 l 241 753 q 206 876 241 837 q 86 916 170 916 l 56 916 l 56 1031 l 103 1031 q 309 961 242 1031 q 376 764 376 892 l 376 667 q 387 574 376 616 q 419 504 397 533 q 473 460 440 475 q 553 444 507 444 l 572 444 l 572 319 l 553 319 q 474 303 507 319 q 419 258 441 288 q 387 188 397 229 q 376 96 376 146 l 376 -1 q 308 -200 376 -132 q 103 -268 240 -268 l 56 -268 z "},"~":{"ha":954,"x_min":104,"x_max":850,"o":"m 104 536 q 170 582 139 566 q 227 607 201 599 q 276 618 254 616 q 315 621 298 621 q 401 604 358 621 q 487 567 445 587 q 568 531 528 547 q 643 514 608 514 q 701 523 673 514 q 754 545 728 531 q 804 576 780 559 q 850 612 828 594 l 850 484 q 811 455 833 471 q 763 427 789 440 q 708 405 737 414 q 646 396 678 396 q 556 413 602 396 q 467 449 511 429 q 385 486 424 469 q 313 503 345 503 q 252 493 281 503 q 196 470 222 484 q 146 438 170 456 q 104 404 123 421 l 104 536 z "}," ":{"ha":354,"x_min":0,"x_max":0,"o":""},"¡":{"ha":386,"x_min":96,"x_max":289,"o":"m 289 652 q 268 582 289 604 q 193 561 246 561 q 118 582 140 561 q 96 652 96 603 q 118 720 96 699 q 193 742 140 742 q 267 720 245 742 q 289 652 289 699 m 111 -268 l 132 460 l 254 460 l 273 -268 l 111 -268 z "},"¢":{"ha":708,"x_min":71,"x_max":668,"o":"m 225 -176 l 264 0 q 176 51 212 18 q 116 130 139 84 q 81 231 92 175 q 71 353 71 288 q 90 510 71 439 q 149 629 109 580 q 251 705 189 678 q 397 732 313 732 q 411 731 405 732 q 425 730 418 730 l 457 873 l 558 873 l 522 713 q 601 671 566 698 q 659 606 635 644 l 545 529 q 521 558 534 546 q 493 581 509 571 l 389 106 l 404 106 q 449 110 428 106 q 488 122 469 113 q 522 145 506 131 q 554 180 538 159 l 668 106 q 625 53 649 77 q 568 13 600 30 q 495 -12 536 -3 q 403 -21 454 -21 q 381 -20 391 -21 q 361 -20 370 -20 l 326 -176 l 225 -176 m 221 353 q 237 220 221 275 q 294 136 254 165 l 397 604 l 380 604 q 262 540 302 604 q 221 353 221 475 z "},"£":{"ha":863,"x_min":72,"x_max":803,"o":"m 72 0 l 72 125 q 121 147 101 131 q 155 185 142 163 q 177 234 169 208 q 188 288 184 260 q 193 342 192 315 q 193 390 193 368 l 89 390 l 89 498 l 186 498 q 179 531 184 511 q 166 577 173 551 q 155 635 160 604 q 150 701 150 667 q 176 815 150 767 q 246 896 201 864 q 351 943 291 928 q 479 958 411 958 q 667 920 587 958 q 791 806 747 881 l 667 730 q 588 805 637 777 q 479 833 539 833 q 349 793 393 833 q 306 682 306 752 q 311 628 306 655 q 322 576 316 600 q 335 531 329 551 q 342 498 340 511 l 599 498 l 599 390 l 347 390 q 343 320 347 355 q 331 251 340 285 q 302 188 321 218 q 253 134 283 157 l 803 134 l 803 0 l 72 0 z "},"¤":{"ha":863,"x_min":87,"x_max":774,"o":"m 160 78 l 87 150 l 201 264 q 164 341 176 302 q 153 418 153 380 q 163 496 153 456 q 200 572 174 536 l 87 685 l 160 758 l 273 647 q 352 686 312 675 q 431 697 393 697 q 510 685 469 697 q 587 647 551 673 l 701 758 l 774 685 l 663 574 q 701 495 690 535 q 711 418 711 454 q 699 341 711 380 q 661 262 687 302 l 774 150 l 701 78 l 587 189 q 511 152 550 163 q 431 142 471 142 q 353 152 393 142 q 275 191 313 163 l 160 78 m 603 418 q 589 485 603 454 q 552 540 576 517 q 498 577 529 564 q 431 590 467 590 q 362 576 393 590 q 309 539 331 562 q 274 484 286 515 q 261 418 261 453 q 274 352 261 383 q 311 298 288 321 q 365 261 334 275 q 431 248 395 248 q 498 261 467 248 q 553 298 530 275 q 590 352 576 321 q 603 418 603 383 z "},"¥":{"ha":863,"x_min":37,"x_max":825,"o":"m 593 545 l 768 545 l 768 443 l 534 443 l 510 400 l 510 354 l 768 354 l 768 254 l 510 254 l 510 0 l 351 0 l 351 254 l 93 254 l 93 354 l 351 354 l 351 396 l 323 443 l 93 443 l 93 545 l 267 545 l 37 939 l 212 939 l 433 545 l 657 939 l 825 939 l 593 545 z "},"¦":{"ha":559,"x_min":212,"x_max":347,"o":"m 212 585 l 212 1031 l 347 1031 l 347 585 l 212 585 m 212 -268 l 212 178 l 347 178 l 347 -268 l 212 -268 z "},"§":{"ha":743,"x_min":68,"x_max":675,"o":"m 675 339 q 635 221 675 271 q 521 127 595 172 q 608 45 582 85 q 635 -37 635 5 q 615 -130 635 -90 q 559 -196 595 -170 q 472 -236 523 -222 q 357 -249 420 -249 q 192 -222 257 -249 q 87 -144 127 -195 l 191 -68 q 262 -116 221 -102 q 354 -131 303 -131 q 416 -125 391 -131 q 457 -107 441 -119 q 479 -81 473 -96 q 486 -49 486 -66 q 474 -14 486 -31 q 439 21 463 3 q 381 59 416 39 q 301 106 347 79 q 213 160 255 133 q 138 219 170 188 q 87 288 106 251 q 68 370 68 324 q 79 434 68 404 q 111 490 91 464 q 160 538 132 516 q 222 581 189 561 q 138 661 167 621 q 110 749 110 701 q 127 835 110 796 q 179 901 144 874 q 266 943 214 928 q 389 958 318 958 q 552 931 486 958 q 657 854 618 903 l 554 777 q 488 822 528 806 q 392 839 447 839 q 291 818 323 839 q 258 757 258 797 q 268 726 258 741 q 299 693 278 711 q 354 655 321 676 q 436 606 388 634 q 530 548 487 577 q 606 488 574 519 q 656 419 638 456 q 675 339 675 382 m 534 334 q 520 376 534 356 q 480 417 507 397 q 417 461 454 438 q 332 513 379 484 q 240 444 274 477 q 207 372 207 411 q 224 328 207 350 q 270 284 241 306 q 335 240 298 262 q 411 196 372 218 q 456 226 434 211 q 496 258 479 241 q 524 294 513 275 q 534 334 534 312 z "},"¨":{"ha":722,"x_min":134,"x_max":587,"o":"m 587 899 q 567 836 587 854 q 501 818 546 818 q 435 839 452 818 q 418 899 418 860 q 436 960 418 941 q 501 979 455 979 q 568 960 549 979 q 587 899 587 941 m 302 899 q 282 836 302 854 q 216 818 262 818 q 151 839 168 818 q 134 899 134 860 q 152 960 134 941 q 216 979 170 979 q 283 960 264 979 q 302 899 302 941 z "},"©":{"ha":1240,"x_min":74,"x_max":1164,"o":"m 619 -134 q 472 -114 543 -134 q 341 -59 402 -95 q 232 26 281 -24 q 147 137 182 76 q 93 268 112 197 q 74 414 74 338 q 93 560 74 490 q 148 691 113 630 q 233 801 184 751 q 343 885 283 850 q 474 939 404 920 q 619 958 543 958 q 766 939 696 958 q 897 884 836 920 q 1007 799 958 849 q 1091 689 1056 749 q 1145 559 1126 629 q 1164 414 1164 489 q 1144 267 1164 337 q 1090 135 1125 196 q 1006 24 1055 74 q 896 -60 956 -25 q 765 -115 836 -96 q 619 -134 695 -134 m 619 -37 q 739 -21 682 -37 q 846 24 796 -5 q 936 95 895 54 q 1005 186 976 136 q 1049 294 1034 237 q 1065 414 1065 351 q 1031 588 1065 507 q 936 731 996 670 q 794 827 876 792 q 619 863 713 863 q 445 827 526 863 q 304 731 364 792 q 209 588 243 670 q 174 414 174 507 q 190 294 174 352 q 234 186 205 237 q 304 95 263 136 q 394 24 345 54 q 500 -21 444 -5 q 619 -37 557 -37 m 636 115 q 427 191 494 115 q 359 415 359 267 q 426 640 359 563 q 633 717 492 717 q 711 708 677 717 q 772 682 745 699 q 821 642 800 665 q 859 590 842 618 l 758 532 q 736 563 748 549 q 710 589 725 578 q 677 606 696 600 q 632 612 658 612 q 516 564 551 612 q 482 415 482 516 q 518 266 482 311 q 633 220 554 220 q 678 225 659 220 q 713 242 698 231 q 742 268 729 253 q 766 300 755 282 l 868 243 q 828 193 849 216 q 780 152 807 170 q 717 125 752 135 q 636 115 682 115 z "},"ª":{"ha":547,"x_min":62,"x_max":456,"o":"m 351 482 l 351 525 q 287 485 321 500 q 212 469 253 469 q 148 480 176 469 q 101 510 120 490 q 72 556 82 529 q 62 615 62 583 q 77 687 62 658 q 116 734 91 715 q 176 762 141 752 q 250 775 210 771 l 347 783 l 347 799 q 325 853 347 839 q 254 868 302 868 q 216 864 232 868 q 188 853 199 860 q 167 837 176 846 q 153 818 159 828 l 66 871 q 93 904 77 888 q 132 932 109 920 q 185 951 155 944 q 257 958 216 958 q 343 950 306 958 q 405 923 380 942 q 443 872 430 904 q 456 794 456 841 l 456 482 l 351 482 m 347 700 l 292 694 q 202 672 230 689 q 174 616 174 655 q 189 572 174 585 q 237 559 205 559 q 291 575 262 559 q 347 612 319 591 l 347 700 z "},"«":{"ha":901,"x_min":45,"x_max":848,"o":"m 681 36 l 406 355 l 681 675 l 848 675 l 574 355 l 848 36 l 681 36 m 321 36 l 45 355 l 321 675 l 489 675 l 212 355 l 489 36 l 321 36 z "},"¬":{"ha":968,"x_min":100,"x_max":867,"o":"m 749 233 l 749 551 l 100 551 l 100 669 l 867 669 l 867 233 l 749 233 z "},"­":{"ha":547,"x_min":62,"x_max":485,"o":"m 62 285 l 62 429 l 485 429 l 485 285 l 62 285 z "},"®":{"ha":1240,"x_min":74,"x_max":1164,"o":"m 619 -134 q 472 -114 543 -134 q 341 -59 402 -95 q 232 26 281 -24 q 147 137 182 76 q 93 268 112 197 q 74 414 74 338 q 93 560 74 490 q 148 691 113 630 q 233 801 184 751 q 343 885 283 850 q 474 939 404 920 q 619 958 543 958 q 766 939 696 958 q 897 884 836 920 q 1007 799 958 849 q 1091 689 1056 749 q 1145 559 1126 629 q 1164 414 1164 489 q 1144 267 1164 337 q 1090 135 1125 196 q 1006 24 1055 74 q 896 -60 956 -25 q 765 -115 836 -96 q 619 -134 695 -134 m 619 -37 q 739 -21 682 -37 q 846 24 796 -5 q 936 95 895 54 q 1005 186 976 136 q 1049 294 1034 237 q 1065 414 1065 351 q 1031 588 1065 507 q 936 731 996 670 q 794 827 876 792 q 619 863 713 863 q 445 827 526 863 q 304 731 364 792 q 209 588 243 670 q 174 414 174 507 q 190 294 174 352 q 234 186 205 237 q 304 95 263 136 q 394 24 345 54 q 500 -21 444 -5 q 619 -37 557 -37 m 416 136 l 416 713 l 614 713 q 706 705 665 713 q 776 676 747 696 q 821 623 805 656 q 836 541 836 590 q 807 430 836 470 q 729 374 778 391 l 889 136 l 749 136 l 604 354 l 533 354 l 533 136 l 416 136 m 533 454 l 610 454 q 663 459 642 454 q 695 473 684 463 q 710 497 706 482 q 714 534 714 513 q 710 570 714 555 q 694 594 705 585 q 664 608 683 604 q 615 612 645 612 l 533 612 l 533 454 z "},"¯":{"ha":722,"x_min":143,"x_max":578,"o":"m 143 851 l 143 961 l 578 961 l 578 851 l 143 851 z "},"°":{"ha":587,"x_min":93,"x_max":494,"o":"m 494 842 q 478 763 494 800 q 434 698 462 726 q 371 655 407 671 q 294 639 334 639 q 216 655 253 639 q 152 698 180 671 q 109 763 125 726 q 93 842 93 800 q 109 919 93 883 q 152 983 125 956 q 216 1025 180 1010 q 293 1040 252 1040 q 372 1024 335 1040 q 436 982 409 1008 q 479 919 463 955 q 494 842 494 882 m 393 840 q 386 879 393 861 q 365 910 378 897 q 333 931 351 924 q 294 939 315 939 q 254 931 273 939 q 223 909 236 923 q 202 878 210 896 q 195 842 195 861 q 202 802 195 821 q 223 770 210 784 q 255 748 237 756 q 294 741 273 741 q 333 748 315 741 q 365 770 351 756 q 386 802 378 784 q 393 840 393 820 z "},"±":{"ha":968,"x_min":100,"x_max":867,"o":"m 543 555 l 543 231 l 425 231 l 425 555 l 100 555 l 100 673 l 425 673 l 425 997 l 543 997 l 543 673 l 867 673 l 867 555 l 543 555 m 100 0 l 100 118 l 867 118 l 867 0 l 100 0 z "},"²":{"ha":619,"x_min":61,"x_max":543,"o":"m 69 441 l 69 550 q 142 604 103 575 q 218 661 181 632 q 287 715 255 689 q 338 764 318 742 q 368 806 359 785 q 378 851 378 827 q 353 902 378 886 q 294 918 329 918 q 224 899 254 918 q 174 851 195 880 l 61 918 q 158 1001 99 970 q 300 1032 216 1032 q 464 989 406 1032 q 522 864 522 947 q 501 771 522 810 q 446 700 480 732 q 410 669 431 686 q 364 632 389 652 q 311 592 339 613 q 256 553 283 572 l 543 553 l 543 441 l 69 441 z "},"³":{"ha":619,"x_min":49,"x_max":525,"o":"m 525 612 q 508 532 525 566 q 459 475 491 498 q 381 441 427 452 q 277 429 335 429 q 203 437 238 429 q 138 459 168 445 q 86 492 109 473 q 49 534 63 511 l 161 595 q 209 553 179 570 q 277 536 238 536 q 324 543 304 536 q 356 559 344 549 q 374 585 368 570 q 379 618 379 600 q 351 675 379 656 q 268 693 323 693 l 199 693 l 199 796 l 260 796 q 348 814 321 796 q 375 867 375 832 q 352 910 375 894 q 288 926 330 926 q 219 911 248 926 q 168 867 190 896 l 61 928 q 98 968 77 949 q 147 1002 119 987 q 212 1024 175 1016 q 297 1032 249 1032 q 394 1020 353 1032 q 462 988 435 1008 q 502 940 489 967 q 515 882 515 912 q 414 753 515 788 q 497 700 469 736 q 525 612 525 664 z "},"´":{"ha":722,"x_min":281,"x_max":591,"o":"m 399 819 l 281 819 l 406 1064 l 591 1064 l 399 819 z "},"µ":{"ha":804,"x_min":92,"x_max":707,"o":"m 707 0 l 571 0 l 566 78 q 488 4 529 28 q 393 -21 448 -21 q 350 -18 370 -21 q 312 -9 330 -16 q 275 6 293 -3 q 237 31 256 16 l 237 -268 l 92 -268 l 92 711 l 237 711 l 237 187 q 267 159 250 172 q 303 136 283 146 q 346 120 323 125 q 392 114 369 114 q 561 204 488 114 l 561 711 l 707 711 l 707 0 z "},"¶":{"ha":873,"x_min":33,"x_max":839,"o":"m 710 895 l 710 -268 l 576 -268 l 576 895 l 456 895 l 456 -268 l 322 -268 l 322 424 q 211 447 263 427 q 119 503 159 467 q 56 592 79 539 q 33 717 33 646 q 57 839 33 785 q 124 931 81 893 q 230 989 168 969 q 370 1010 292 1010 l 839 1010 l 839 895 l 710 895 z "},"·":{"ha":386,"x_min":96,"x_max":289,"o":"m 289 504 q 266 433 289 454 q 192 412 243 412 q 146 418 164 412 q 116 436 127 425 q 100 465 105 448 q 96 504 96 482 q 117 575 96 553 q 192 597 139 597 q 267 575 245 597 q 289 504 289 553 z "},"¸":{"ha":722,"x_min":150,"x_max":504,"o":"m 504 -143 q 458 -235 504 -203 q 321 -268 412 -268 q 263 -265 290 -268 q 215 -257 237 -262 q 176 -248 193 -253 q 150 -237 159 -242 l 191 -154 q 219 -163 203 -159 q 252 -172 235 -168 q 287 -178 269 -176 q 321 -180 304 -180 q 377 -171 359 -180 q 395 -138 395 -161 q 385 -112 395 -123 q 358 -94 374 -101 q 319 -84 341 -87 q 273 -79 297 -81 l 325 20 l 418 20 l 400 -18 q 476 -64 449 -31 q 504 -143 504 -97 z "},"¹":{"ha":619,"x_min":119,"x_max":412,"o":"m 272 441 l 272 828 l 119 828 l 119 916 q 197 923 165 917 q 249 941 229 929 q 282 972 270 953 q 302 1019 294 991 l 412 1019 l 412 441 l 272 441 z "},"º":{"ha":566,"x_min":65,"x_max":498,"o":"m 498 713 q 486 612 498 656 q 447 535 473 567 q 380 486 421 503 q 283 469 340 469 q 185 487 227 469 q 117 536 144 504 q 78 613 90 568 q 65 713 65 658 q 78 814 65 769 q 117 892 90 860 q 185 941 144 924 q 283 958 227 958 q 380 941 340 958 q 447 891 421 923 q 486 814 473 859 q 498 713 498 768 m 387 713 q 362 827 387 791 q 283 864 336 864 q 203 827 229 864 q 178 713 178 791 q 203 598 178 634 q 283 562 228 562 q 362 598 336 562 q 387 713 387 634 z "},"»":{"ha":901,"x_min":53,"x_max":857,"o":"m 581 36 l 412 36 l 689 355 l 412 675 l 581 675 l 857 355 l 581 36 m 221 36 l 53 36 l 328 355 l 53 675 l 221 675 l 496 355 l 221 36 z "},"¼":{"ha":1369,"x_min":68,"x_max":1305,"o":"m 457 -35 l 323 -35 l 839 974 l 977 974 l 457 -35 m 221 363 l 221 749 l 68 749 l 68 837 q 146 844 115 838 q 198 862 178 850 q 231 893 219 874 q 252 941 243 913 l 361 941 l 361 363 l 221 363 m 1223 112 l 1223 -3 l 1091 -3 l 1091 112 l 764 112 l 764 211 l 1099 574 l 1223 574 l 1223 214 l 1305 214 l 1305 112 l 1223 112 m 1091 418 l 903 214 l 1091 214 l 1091 418 z "},"½":{"ha":1369,"x_min":42,"x_max":1276,"o":"m 407 -35 l 273 -35 l 789 974 l 926 974 l 407 -35 m 195 363 l 195 749 l 42 749 l 42 837 q 120 844 88 838 q 172 862 151 850 q 205 893 193 874 q 225 941 217 913 l 335 941 l 335 363 l 195 363 m 802 -5 l 802 104 q 875 157 836 129 q 951 214 914 186 q 1020 269 988 243 q 1071 317 1051 296 q 1101 360 1092 339 q 1111 405 1111 381 q 1086 456 1111 439 q 1027 472 1062 472 q 958 453 987 472 q 907 405 928 433 l 794 472 q 891 555 832 524 q 1033 586 949 586 q 1197 543 1139 586 q 1255 418 1255 500 q 1234 325 1255 363 q 1179 254 1213 286 q 1143 223 1164 240 q 1097 186 1122 205 q 1044 146 1072 167 q 989 106 1017 125 l 1276 106 l 1276 -5 l 802 -5 z "},"¾":{"ha":1369,"x_min":56,"x_max":1321,"o":"m 533 -35 l 399 -35 l 915 974 l 1053 974 l 533 -35 m 1239 111 l 1239 -5 l 1107 -5 l 1107 111 l 779 111 l 779 210 l 1114 573 l 1239 573 l 1239 212 l 1321 212 l 1321 111 l 1239 111 m 1107 416 l 918 212 l 1107 212 l 1107 416 m 532 534 q 515 453 532 488 q 466 396 498 419 q 388 362 434 374 q 283 351 342 351 q 210 358 245 351 q 145 380 174 366 q 93 413 115 394 q 56 456 70 433 l 168 516 q 215 475 186 492 q 283 458 245 458 q 331 464 311 458 q 363 480 351 470 q 380 506 375 491 q 386 539 386 521 q 358 596 386 578 q 275 614 330 614 l 205 614 l 205 718 l 267 718 q 355 735 328 718 q 382 788 382 753 q 359 831 382 815 q 294 848 336 848 q 225 832 254 848 q 175 788 197 817 l 68 849 q 105 890 84 871 q 154 923 125 909 q 219 945 182 937 q 304 954 256 954 q 400 942 359 954 q 469 909 441 930 q 509 861 496 888 q 522 803 522 833 q 420 674 522 709 q 504 621 475 657 q 532 534 532 585 z "},"¿":{"ha":718,"x_min":61,"x_max":684,"o":"m 504 652 q 482 582 504 604 q 408 561 460 561 q 363 566 381 561 q 333 582 345 571 q 316 610 321 593 q 311 652 311 627 q 334 722 311 702 q 408 742 357 742 q 454 736 436 742 q 484 719 473 730 q 499 690 495 707 q 504 652 504 673 m 684 -114 q 569 -227 643 -186 q 380 -268 496 -268 q 256 -253 314 -268 q 154 -207 197 -239 q 86 -126 111 -176 q 61 -5 61 -76 q 83 111 61 60 q 143 200 106 161 q 231 270 181 239 q 334 332 280 302 l 334 460 l 485 460 l 485 265 q 381 204 429 233 q 299 145 334 176 q 245 81 264 115 q 225 4 225 47 q 263 -96 225 -61 q 379 -131 301 -131 q 438 -124 412 -131 q 486 -104 465 -117 q 523 -74 507 -92 q 553 -33 539 -56 l 684 -114 z "},"À":{"ha":890,"x_min":26,"x_max":864,"o":"m 26 0 l 342 939 l 547 939 l 864 0 l 700 0 l 628 216 l 256 216 l 184 0 l 26 0 m 301 358 l 581 358 l 441 781 l 301 358 m 443 1047 l 250 1292 l 436 1292 l 561 1047 l 443 1047 z "},"Á":{"ha":890,"x_min":26,"x_max":864,"o":"m 26 0 l 342 939 l 547 939 l 864 0 l 700 0 l 628 216 l 256 216 l 184 0 l 26 0 m 301 358 l 581 358 l 441 781 l 301 358 m 460 1047 l 342 1047 l 467 1292 l 652 1292 l 460 1047 z "},"Â":{"ha":890,"x_min":26,"x_max":864,"o":"m 26 0 l 342 939 l 547 939 l 864 0 l 700 0 l 628 216 l 256 216 l 184 0 l 26 0 m 301 358 l 581 358 l 441 781 l 301 358 m 554 1047 l 443 1186 l 330 1047 l 208 1047 l 366 1292 l 519 1292 l 677 1047 l 554 1047 z "},"Ã":{"ha":890,"x_min":26,"x_max":864,"o":"m 26 0 l 342 939 l 547 939 l 864 0 l 700 0 l 628 216 l 256 216 l 184 0 l 26 0 m 301 358 l 581 358 l 441 781 l 301 358 m 176 1059 q 189 1137 178 1101 q 220 1200 199 1173 q 271 1241 240 1226 q 343 1256 301 1256 q 391 1249 370 1256 q 430 1231 412 1242 q 463 1208 448 1220 q 492 1185 478 1196 q 520 1167 507 1174 q 550 1160 534 1160 q 576 1168 566 1160 q 593 1189 587 1176 q 602 1217 599 1202 q 606 1246 604 1232 l 709 1246 q 695 1167 705 1204 q 665 1105 685 1131 q 614 1063 645 1078 q 541 1048 584 1048 q 488 1056 511 1048 q 449 1074 466 1063 q 418 1098 431 1085 q 391 1122 404 1111 q 365 1140 378 1133 q 335 1147 351 1147 q 307 1139 317 1147 q 290 1119 296 1131 q 282 1090 284 1106 q 279 1059 280 1074 l 176 1059 z "},"Ä":{"ha":890,"x_min":26,"x_max":864,"o":"m 26 0 l 342 939 l 547 939 l 864 0 l 700 0 l 628 216 l 256 216 l 184 0 l 26 0 m 301 358 l 581 358 l 441 781 l 301 358 m 669 1126 q 649 1064 669 1082 q 583 1046 628 1046 q 517 1067 534 1046 q 500 1126 500 1088 q 518 1188 500 1168 q 583 1207 537 1207 q 650 1188 631 1207 q 669 1126 669 1169 m 385 1126 q 364 1064 385 1082 q 298 1046 344 1046 q 233 1067 250 1046 q 216 1126 216 1088 q 234 1188 216 1168 q 298 1207 252 1207 q 366 1188 347 1207 q 385 1126 385 1169 z "},"Å":{"ha":890,"x_min":26,"x_max":864,"o":"m 26 0 l 342 939 l 547 939 l 864 0 l 700 0 l 628 216 l 256 216 l 184 0 l 26 0 m 301 358 l 581 358 l 441 781 l 301 358 m 589 1156 q 552 1050 589 1088 q 443 1013 515 1013 q 378 1023 406 1013 q 333 1052 351 1033 q 307 1097 315 1071 q 298 1156 298 1123 q 334 1260 298 1221 q 443 1299 370 1299 q 553 1260 518 1299 q 589 1156 589 1221 m 506 1156 q 490 1204 506 1188 q 443 1219 473 1219 q 396 1203 412 1219 q 380 1156 380 1186 q 395 1108 380 1126 q 443 1090 410 1090 q 491 1107 477 1090 q 506 1156 506 1124 z "},"Æ":{"ha":1206,"x_min":22,"x_max":1129,"o":"m 574 0 l 574 252 l 282 252 l 183 0 l 22 0 l 390 939 l 1129 939 l 1129 798 l 732 798 l 732 557 l 1069 557 l 1069 415 l 732 415 l 732 144 l 1129 144 l 1129 0 l 574 0 m 574 798 l 492 798 l 335 393 l 574 393 l 574 798 z "},"Ç":{"ha":900,"x_min":77,"x_max":854,"o":"m 668 -143 q 622 -235 668 -203 q 485 -268 576 -268 q 428 -265 454 -268 q 379 -257 401 -262 q 340 -248 357 -253 q 314 -237 323 -242 l 354 -154 q 383 -163 367 -159 q 416 -172 399 -168 q 450 -178 433 -176 q 485 -180 468 -180 q 540 -171 522 -180 q 558 -138 558 -161 q 548 -112 558 -123 q 521 -94 538 -101 q 483 -84 505 -87 q 437 -79 460 -81 l 469 -19 q 180 102 277 -11 q 77 469 77 224 q 181 837 77 715 q 493 958 286 958 q 619 945 564 958 q 716 909 674 932 q 788 854 758 886 q 840 786 819 823 l 714 694 q 681 740 699 718 q 638 780 663 762 q 578 807 612 797 q 496 818 543 818 q 302 730 363 818 q 240 469 240 643 q 257 311 240 376 q 306 202 273 245 q 387 140 338 160 q 497 121 435 121 q 579 131 544 121 q 641 158 614 141 q 688 199 668 176 q 726 249 709 222 l 854 160 q 799 89 830 122 q 727 32 768 56 q 629 -5 685 8 q 564 -16 600 -13 l 564 -18 q 641 -64 613 -31 q 668 -143 668 -97 z "},"È":{"ha":781,"x_min":113,"x_max":704,"o":"m 113 0 l 113 939 l 704 939 l 704 798 l 271 798 l 271 559 l 639 559 l 639 418 l 271 418 l 271 144 l 704 144 l 704 0 l 113 0 m 399 1047 l 205 1292 l 392 1292 l 517 1047 l 399 1047 z "},"É":{"ha":781,"x_min":113,"x_max":704,"o":"m 113 0 l 113 939 l 704 939 l 704 798 l 271 798 l 271 559 l 639 559 l 639 418 l 271 418 l 271 144 l 704 144 l 704 0 l 113 0 m 425 1047 l 307 1047 l 432 1292 l 618 1292 l 425 1047 z "},"Ê":{"ha":781,"x_min":113,"x_max":704,"o":"m 113 0 l 113 939 l 704 939 l 704 798 l 271 798 l 271 559 l 639 559 l 639 418 l 271 418 l 271 144 l 704 144 l 704 0 l 113 0 m 517 1047 l 406 1186 l 292 1047 l 171 1047 l 328 1292 l 482 1292 l 640 1047 l 517 1047 z "},"Ë":{"ha":781,"x_min":113,"x_max":704,"o":"m 113 0 l 113 939 l 704 939 l 704 798 l 271 798 l 271 559 l 639 559 l 639 418 l 271 418 l 271 144 l 704 144 l 704 0 l 113 0 m 627 1126 q 607 1064 627 1082 q 541 1046 586 1046 q 475 1067 492 1046 q 458 1126 458 1088 q 476 1188 458 1168 q 541 1207 495 1207 q 608 1188 589 1207 q 627 1126 627 1169 m 342 1126 q 322 1064 342 1082 q 256 1046 302 1046 q 191 1067 208 1046 q 174 1126 174 1088 q 192 1188 174 1168 q 256 1207 210 1207 q 323 1188 304 1207 q 342 1126 342 1169 z "},"Ì":{"ha":557,"x_min":58,"x_max":488,"o":"m 488 0 l 69 0 l 69 127 l 199 127 l 199 811 l 69 811 l 69 939 l 488 939 l 488 811 l 357 811 l 357 127 l 488 127 l 488 0 m 251 1047 l 58 1292 l 244 1292 l 369 1047 l 251 1047 z "},"Í":{"ha":557,"x_min":69,"x_max":500,"o":"m 488 0 l 69 0 l 69 127 l 199 127 l 199 811 l 69 811 l 69 939 l 488 939 l 488 811 l 357 811 l 357 127 l 488 127 l 488 0 m 308 1047 l 190 1047 l 315 1292 l 500 1292 l 308 1047 z "},"Î":{"ha":557,"x_min":45,"x_max":513,"o":"m 488 0 l 69 0 l 69 127 l 199 127 l 199 811 l 69 811 l 69 939 l 488 939 l 488 811 l 357 811 l 357 127 l 488 127 l 488 0 m 391 1047 l 279 1186 l 166 1047 l 45 1047 l 202 1292 l 356 1292 l 513 1047 l 391 1047 z "},"Ï":{"ha":557,"x_min":54,"x_max":507,"o":"m 488 0 l 69 0 l 69 127 l 199 127 l 199 811 l 69 811 l 69 939 l 488 939 l 488 811 l 357 811 l 357 127 l 488 127 l 488 0 m 507 1126 q 487 1064 507 1082 q 421 1046 466 1046 q 355 1067 372 1046 q 338 1126 338 1088 q 356 1188 338 1168 q 421 1207 375 1207 q 488 1188 469 1207 q 507 1126 507 1169 m 222 1126 q 202 1064 222 1082 q 136 1046 182 1046 q 71 1067 87 1046 q 54 1126 54 1088 q 72 1188 54 1168 q 136 1207 90 1207 q 203 1188 184 1207 q 222 1126 222 1169 z "},"Ð":{"ha":942,"x_min":22,"x_max":865,"o":"m 865 469 q 834 240 865 331 q 743 96 804 149 q 593 21 683 43 q 385 0 503 0 l 113 0 l 113 408 l 22 408 l 22 533 l 113 533 l 113 939 l 383 939 q 595 915 505 939 q 746 836 686 891 q 836 691 806 781 q 865 469 865 602 m 700 471 q 683 628 700 566 q 628 727 666 690 q 527 779 589 764 q 372 794 464 794 l 271 794 l 271 533 l 493 533 l 493 408 l 271 408 l 271 144 l 372 144 q 528 160 465 144 q 629 214 591 176 q 683 314 667 252 q 700 471 700 377 z "},"Ñ":{"ha":949,"x_min":113,"x_max":836,"o":"m 648 0 l 267 737 l 267 0 l 113 0 l 113 939 l 328 939 l 682 253 l 682 939 l 836 939 l 836 0 l 648 0 m 197 1044 q 210 1123 199 1086 q 241 1185 220 1159 q 292 1227 261 1212 q 364 1242 322 1242 q 412 1235 391 1242 q 451 1217 433 1227 q 484 1194 469 1206 q 513 1171 499 1181 q 542 1153 528 1160 q 571 1145 555 1145 q 597 1154 587 1145 q 614 1175 608 1162 q 623 1202 620 1187 q 627 1232 625 1217 l 730 1232 q 716 1153 726 1190 q 686 1090 706 1117 q 635 1049 666 1064 q 562 1034 605 1034 q 509 1042 532 1034 q 470 1060 487 1049 q 439 1084 452 1071 q 412 1107 425 1097 q 386 1126 399 1118 q 356 1133 372 1133 q 328 1125 338 1133 q 311 1104 317 1117 q 303 1076 305 1092 q 300 1044 301 1060 l 197 1044 z "},"Ò":{"ha":925,"x_min":69,"x_max":856,"o":"m 856 469 q 834 263 856 354 q 764 110 812 173 q 642 14 716 47 q 463 -20 567 -20 q 284 14 358 -20 q 162 110 210 47 q 92 263 114 173 q 69 469 69 354 q 92 675 69 585 q 162 829 114 766 q 284 925 210 892 q 463 958 358 958 q 642 925 567 958 q 764 830 716 892 q 834 676 812 767 q 856 469 856 585 m 690 469 q 678 622 690 557 q 639 731 666 688 q 568 796 612 774 q 463 818 525 818 q 356 796 399 818 q 285 731 312 774 q 245 622 258 688 q 233 469 233 557 q 245 316 233 382 q 285 208 258 251 q 356 142 313 164 q 463 121 400 121 q 568 142 525 121 q 639 207 612 163 q 678 316 666 250 q 690 469 690 381 m 469 1047 l 276 1292 l 463 1292 l 587 1047 l 469 1047 z "},"Ó":{"ha":925,"x_min":69,"x_max":856,"o":"m 856 469 q 834 263 856 354 q 764 110 812 173 q 642 14 716 47 q 463 -20 567 -20 q 284 14 358 -20 q 162 110 210 47 q 92 263 114 173 q 69 469 69 354 q 92 675 69 585 q 162 829 114 766 q 284 925 210 892 q 463 958 358 958 q 642 925 567 958 q 764 830 716 892 q 834 676 812 767 q 856 469 856 585 m 690 469 q 678 622 690 557 q 639 731 666 688 q 568 796 612 774 q 463 818 525 818 q 356 796 399 818 q 285 731 312 774 q 245 622 258 688 q 233 469 233 557 q 245 316 233 382 q 285 208 258 251 q 356 142 313 164 q 463 121 400 121 q 568 142 525 121 q 639 207 612 163 q 678 316 666 250 q 690 469 690 381 m 496 1047 l 378 1047 l 503 1292 l 688 1292 l 496 1047 z "},"Ô":{"ha":925,"x_min":69,"x_max":856,"o":"m 856 469 q 834 263 856 354 q 764 110 812 173 q 642 14 716 47 q 463 -20 567 -20 q 284 14 358 -20 q 162 110 210 47 q 92 263 114 173 q 69 469 69 354 q 92 675 69 585 q 162 829 114 766 q 284 925 210 892 q 463 958 358 958 q 642 925 567 958 q 764 830 716 892 q 834 676 812 767 q 856 469 856 585 m 690 469 q 678 622 690 557 q 639 731 666 688 q 568 796 612 774 q 463 818 525 818 q 356 796 399 818 q 285 731 312 774 q 245 622 258 688 q 233 469 233 557 q 245 316 233 382 q 285 208 258 251 q 356 142 313 164 q 463 121 400 121 q 568 142 525 121 q 639 207 612 163 q 678 316 666 250 q 690 469 690 381 m 576 1047 l 465 1186 l 352 1047 l 231 1047 l 388 1292 l 542 1292 l 699 1047 l 576 1047 z "},"Õ":{"ha":925,"x_min":69,"x_max":856,"o":"m 856 469 q 834 263 856 354 q 764 110 812 173 q 642 14 716 47 q 463 -20 567 -20 q 284 14 358 -20 q 162 110 210 47 q 92 263 114 173 q 69 469 69 354 q 92 675 69 585 q 162 829 114 766 q 284 925 210 892 q 463 958 358 958 q 642 925 567 958 q 764 830 716 892 q 834 676 812 767 q 856 469 856 585 m 690 469 q 678 622 690 557 q 639 731 666 688 q 568 796 612 774 q 463 818 525 818 q 356 796 399 818 q 285 731 312 774 q 245 622 258 688 q 233 469 233 557 q 245 316 233 382 q 285 208 258 251 q 356 142 313 164 q 463 121 400 121 q 568 142 525 121 q 639 207 612 163 q 678 316 666 250 q 690 469 690 381 m 199 1059 q 211 1137 201 1101 q 242 1200 222 1173 q 293 1241 262 1226 q 366 1256 323 1256 q 413 1249 392 1256 q 452 1231 435 1242 q 485 1208 470 1220 q 515 1185 500 1196 q 543 1167 529 1174 q 572 1160 557 1160 q 599 1168 589 1160 q 615 1189 609 1176 q 624 1217 621 1202 q 628 1246 627 1232 l 731 1246 q 718 1167 728 1204 q 687 1105 707 1131 q 637 1063 667 1078 q 563 1048 606 1048 q 511 1056 533 1048 q 471 1074 488 1063 q 440 1098 454 1085 q 414 1122 427 1111 q 387 1140 401 1133 q 357 1147 374 1147 q 329 1139 340 1147 q 313 1119 319 1131 q 304 1090 307 1106 q 302 1059 302 1074 l 199 1059 z "},"Ö":{"ha":925,"x_min":69,"x_max":856,"o":"m 856 469 q 834 263 856 354 q 764 110 812 173 q 642 14 716 47 q 463 -20 567 -20 q 284 14 358 -20 q 162 110 210 47 q 92 263 114 173 q 69 469 69 354 q 92 675 69 585 q 162 829 114 766 q 284 925 210 892 q 463 958 358 958 q 642 925 567 958 q 764 830 716 892 q 834 676 812 767 q 856 469 856 585 m 690 469 q 678 622 690 557 q 639 731 666 688 q 568 796 612 774 q 463 818 525 818 q 356 796 399 818 q 285 731 312 774 q 245 622 258 688 q 233 469 233 557 q 245 316 233 382 q 285 208 258 251 q 356 142 313 164 q 463 121 400 121 q 568 142 525 121 q 639 207 612 163 q 678 316 666 250 q 690 469 690 381 m 696 1126 q 675 1064 696 1082 q 610 1046 654 1046 q 544 1067 561 1046 q 526 1126 526 1088 q 545 1188 526 1168 q 610 1207 564 1207 q 677 1188 658 1207 q 696 1126 696 1169 m 411 1126 q 391 1064 411 1082 q 325 1046 370 1046 q 259 1067 276 1046 q 242 1126 242 1088 q 260 1188 242 1168 q 325 1207 279 1207 q 392 1188 373 1207 q 411 1126 411 1169 z "},"×":{"ha":968,"x_min":113,"x_max":852,"o":"m 770 26 l 484 313 l 197 26 l 113 110 l 400 396 l 113 682 l 197 765 l 484 479 l 770 765 l 852 682 l 567 396 l 852 110 l 770 26 z "},"Ø":{"ha":925,"x_min":32,"x_max":896,"o":"m 32 -78 l 160 110 q 91 263 113 173 q 69 469 69 353 q 92 675 69 585 q 162 829 114 766 q 284 925 210 892 q 463 958 358 958 q 594 941 536 958 q 697 892 652 924 l 778 1010 l 896 1010 l 768 822 q 834 671 813 760 q 856 469 856 583 q 834 263 856 354 q 764 110 812 173 q 642 14 716 47 q 463 -20 567 -20 q 232 41 321 -20 l 150 -78 l 32 -78 m 690 469 q 665 672 690 594 l 318 167 q 380 132 344 143 q 463 121 416 121 q 568 142 525 121 q 639 207 612 163 q 678 316 666 250 q 690 469 690 381 m 233 469 q 240 351 233 404 q 262 258 247 299 l 610 765 q 463 818 557 818 q 356 796 399 818 q 285 731 312 774 q 245 622 258 688 q 233 469 233 557 z "},"Ù":{"ha":964,"x_min":113,"x_max":851,"o":"m 851 392 q 830 199 851 278 q 765 72 810 121 q 651 1 721 23 q 482 -21 581 -21 q 313 1 383 -21 q 198 72 243 23 q 133 200 154 121 q 113 392 113 279 l 113 939 l 271 939 l 271 406 q 282 270 271 324 q 318 181 293 215 q 383 134 343 148 q 481 119 423 119 q 579 134 539 119 q 645 182 620 149 q 682 269 671 215 q 693 403 693 323 l 693 939 l 851 939 l 851 392 m 472 1047 l 279 1292 l 465 1292 l 590 1047 l 472 1047 z "},"Ú":{"ha":964,"x_min":113,"x_max":851,"o":"m 851 392 q 830 199 851 278 q 765 72 810 121 q 651 1 721 23 q 482 -21 581 -21 q 313 1 383 -21 q 198 72 243 23 q 133 200 154 121 q 113 392 113 279 l 113 939 l 271 939 l 271 406 q 282 270 271 324 q 318 181 293 215 q 383 134 343 148 q 481 119 423 119 q 579 134 539 119 q 645 182 620 149 q 682 269 671 215 q 693 403 693 323 l 693 939 l 851 939 l 851 392 m 510 1047 l 392 1047 l 517 1292 l 703 1292 l 510 1047 z "},"Û":{"ha":964,"x_min":113,"x_max":851,"o":"m 851 392 q 830 199 851 278 q 765 72 810 121 q 651 1 721 23 q 482 -21 581 -21 q 313 1 383 -21 q 198 72 243 23 q 133 200 154 121 q 113 392 113 279 l 113 939 l 271 939 l 271 406 q 282 270 271 324 q 318 181 293 215 q 383 134 343 148 q 481 119 423 119 q 579 134 539 119 q 645 182 620 149 q 682 269 671 215 q 693 403 693 323 l 693 939 l 851 939 l 851 392 m 594 1047 l 483 1186 l 370 1047 l 248 1047 l 406 1292 l 559 1292 l 717 1047 l 594 1047 z "},"Ü":{"ha":964,"x_min":113,"x_max":851,"o":"m 851 392 q 830 199 851 278 q 765 72 810 121 q 651 1 721 23 q 482 -21 581 -21 q 313 1 383 -21 q 198 72 243 23 q 133 200 154 121 q 113 392 113 279 l 113 939 l 271 939 l 271 406 q 282 270 271 324 q 318 181 293 215 q 383 134 343 148 q 481 119 423 119 q 579 134 539 119 q 645 182 620 149 q 682 269 671 215 q 693 403 693 323 l 693 939 l 851 939 l 851 392 m 709 1126 q 689 1064 709 1082 q 623 1046 668 1046 q 557 1067 574 1046 q 540 1126 540 1088 q 558 1188 540 1168 q 623 1207 577 1207 q 690 1188 671 1207 q 709 1126 709 1169 m 425 1126 q 404 1064 425 1082 q 338 1046 384 1046 q 273 1067 290 1046 q 256 1126 256 1088 q 274 1188 256 1168 q 338 1207 292 1207 q 406 1188 387 1207 q 425 1126 425 1169 z "},"Ý":{"ha":791,"x_min":20,"x_max":771,"o":"m 475 359 l 475 0 l 315 0 l 315 355 l 20 939 l 195 939 l 397 514 l 603 939 l 771 939 l 475 359 m 424 1047 l 306 1047 l 431 1292 l 616 1292 l 424 1047 z "},"Þ":{"ha":821,"x_min":113,"x_max":761,"o":"m 761 490 q 742 343 761 406 q 681 241 722 281 q 576 182 640 201 q 422 163 512 163 l 271 163 l 271 0 l 113 0 l 113 939 l 271 939 l 271 798 l 428 798 q 570 781 508 798 q 674 727 632 764 q 739 632 717 690 q 761 490 761 574 m 596 488 q 582 572 596 539 q 542 624 568 605 q 476 650 515 643 q 387 657 437 657 l 271 657 l 271 302 l 370 302 q 472 309 429 302 q 543 334 515 315 q 583 391 570 354 q 596 488 596 427 z "},"ß":{"ha":810,"x_min":107,"x_max":739,"o":"m 107 0 l 107 696 q 121 830 107 769 q 169 936 135 892 q 260 1006 203 981 q 406 1031 318 1031 q 516 1017 466 1031 q 602 975 566 1003 q 658 904 638 947 q 677 803 677 861 q 666 720 677 756 q 635 659 655 684 q 588 616 615 633 q 530 591 562 600 q 620 559 581 583 q 685 500 659 536 q 725 417 711 464 q 739 315 739 370 q 724 174 739 236 q 676 68 709 111 q 591 2 644 25 q 463 -21 538 -21 q 431 -19 448 -21 q 396 -15 414 -18 q 363 -8 379 -12 q 334 0 347 -4 l 334 132 q 385 115 355 123 q 447 107 414 107 q 553 159 520 107 q 586 321 586 210 q 571 417 586 380 q 527 476 557 455 q 452 506 497 498 q 346 514 407 514 l 346 640 q 426 647 391 640 q 484 672 460 654 q 519 718 507 689 q 530 790 530 747 q 498 876 530 848 q 403 904 466 904 q 332 891 361 904 q 286 853 304 879 q 261 790 269 828 q 253 701 253 752 l 253 0 l 107 0 z "},"à":{"ha":758,"x_min":65,"x_max":657,"o":"m 518 0 l 518 81 q 412 7 468 36 q 290 -21 356 -21 q 194 -5 236 -21 q 123 41 152 12 q 80 111 95 71 q 65 200 65 151 q 86 308 65 264 q 145 379 108 351 q 235 420 183 406 q 349 440 287 434 l 511 456 l 511 489 q 501 548 511 524 q 470 585 490 571 q 421 605 450 600 q 354 611 391 611 q 291 604 318 611 q 245 587 264 597 q 212 562 225 576 q 192 534 199 548 l 77 608 q 112 653 90 631 q 169 693 135 675 q 249 721 203 710 q 357 732 296 732 q 488 720 431 732 q 582 679 544 707 q 638 603 619 650 q 657 484 657 555 l 657 0 l 518 0 m 511 346 l 410 336 q 327 323 363 332 q 266 299 290 315 q 228 260 241 283 q 215 203 215 237 q 245 123 215 146 q 329 100 275 100 q 373 107 350 100 q 419 127 395 115 q 466 156 442 139 q 511 191 489 172 l 511 346 m 351 819 l 158 1064 l 345 1064 l 469 819 l 351 819 z "},"á":{"ha":758,"x_min":65,"x_max":657,"o":"m 518 0 l 518 81 q 412 7 468 36 q 290 -21 356 -21 q 194 -5 236 -21 q 123 41 152 12 q 80 111 95 71 q 65 200 65 151 q 86 308 65 264 q 145 379 108 351 q 235 420 183 406 q 349 440 287 434 l 511 456 l 511 489 q 501 548 511 524 q 470 585 490 571 q 421 605 450 600 q 354 611 391 611 q 291 604 318 611 q 245 587 264 597 q 212 562 225 576 q 192 534 199 548 l 77 608 q 112 653 90 631 q 169 693 135 675 q 249 721 203 710 q 357 732 296 732 q 488 720 431 732 q 582 679 544 707 q 638 603 619 650 q 657 484 657 555 l 657 0 l 518 0 m 511 346 l 410 336 q 327 323 363 332 q 266 299 290 315 q 228 260 241 283 q 215 203 215 237 q 245 123 215 146 q 329 100 275 100 q 373 107 350 100 q 419 127 395 115 q 466 156 442 139 q 511 191 489 172 l 511 346 m 386 819 l 268 819 l 393 1064 l 578 1064 l 386 819 z "},"â":{"ha":758,"x_min":65,"x_max":657,"o":"m 518 0 l 518 81 q 412 7 468 36 q 290 -21 356 -21 q 194 -5 236 -21 q 123 41 152 12 q 80 111 95 71 q 65 200 65 151 q 86 308 65 264 q 145 379 108 351 q 235 420 183 406 q 349 440 287 434 l 511 456 l 511 489 q 501 548 511 524 q 470 585 490 571 q 421 605 450 600 q 354 611 391 611 q 291 604 318 611 q 245 587 264 597 q 212 562 225 576 q 192 534 199 548 l 77 608 q 112 653 90 631 q 169 693 135 675 q 249 721 203 710 q 357 732 296 732 q 488 720 431 732 q 582 679 544 707 q 638 603 619 650 q 657 484 657 555 l 657 0 l 518 0 m 511 346 l 410 336 q 327 323 363 332 q 266 299 290 315 q 228 260 241 283 q 215 203 215 237 q 245 123 215 146 q 329 100 275 100 q 373 107 350 100 q 419 127 395 115 q 466 156 442 139 q 511 191 489 172 l 511 346 m 473 819 l 362 958 l 249 819 l 127 819 l 285 1064 l 439 1064 l 596 819 l 473 819 z "},"ã":{"ha":758,"x_min":65,"x_max":657,"o":"m 518 0 l 518 81 q 412 7 468 36 q 290 -21 356 -21 q 194 -5 236 -21 q 123 41 152 12 q 80 111 95 71 q 65 200 65 151 q 86 308 65 264 q 145 379 108 351 q 235 420 183 406 q 349 440 287 434 l 511 456 l 511 489 q 501 548 511 524 q 470 585 490 571 q 421 605 450 600 q 354 611 391 611 q 291 604 318 611 q 245 587 264 597 q 212 562 225 576 q 192 534 199 548 l 77 608 q 112 653 90 631 q 169 693 135 675 q 249 721 203 710 q 357 732 296 732 q 488 720 431 732 q 582 679 544 707 q 638 603 619 650 q 657 484 657 555 l 657 0 l 518 0 m 511 346 l 410 336 q 327 323 363 332 q 266 299 290 315 q 228 260 241 283 q 215 203 215 237 q 245 123 215 146 q 329 100 275 100 q 373 107 350 100 q 419 127 395 115 q 466 156 442 139 q 511 191 489 172 l 511 346 m 102 831 q 115 909 104 873 q 146 972 125 945 q 197 1013 166 998 q 269 1028 227 1028 q 317 1021 296 1028 q 356 1003 338 1014 q 389 980 374 992 q 418 957 404 968 q 447 939 433 946 q 476 932 460 932 q 503 940 492 932 q 519 961 513 948 q 528 989 525 974 q 532 1018 530 1004 l 635 1018 q 621 940 631 976 q 591 877 611 903 q 541 836 571 850 q 467 821 510 821 q 414 828 437 821 q 375 846 392 836 q 344 870 357 857 q 317 894 330 883 q 291 912 304 905 q 261 920 277 920 q 233 911 243 920 q 216 891 222 903 q 208 862 210 878 q 205 831 206 846 l 102 831 z "},"ä":{"ha":758,"x_min":65,"x_max":657,"o":"m 518 0 l 518 81 q 412 7 468 36 q 290 -21 356 -21 q 194 -5 236 -21 q 123 41 152 12 q 80 111 95 71 q 65 200 65 151 q 86 308 65 264 q 145 379 108 351 q 235 420 183 406 q 349 440 287 434 l 511 456 l 511 489 q 501 548 511 524 q 470 585 490 571 q 421 605 450 600 q 354 611 391 611 q 291 604 318 611 q 245 587 264 597 q 212 562 225 576 q 192 534 199 548 l 77 608 q 112 653 90 631 q 169 693 135 675 q 249 721 203 710 q 357 732 296 732 q 488 720 431 732 q 582 679 544 707 q 638 603 619 650 q 657 484 657 555 l 657 0 l 518 0 m 511 346 l 410 336 q 327 323 363 332 q 266 299 290 315 q 228 260 241 283 q 215 203 215 237 q 245 123 215 146 q 329 100 275 100 q 373 107 350 100 q 419 127 395 115 q 466 156 442 139 q 511 191 489 172 l 511 346 m 585 899 q 565 836 585 854 q 499 818 544 818 q 433 839 450 818 q 416 899 416 860 q 434 960 416 941 q 499 979 453 979 q 566 960 547 979 q 585 899 585 941 m 300 899 q 280 836 300 854 q 214 818 260 818 q 149 839 165 818 q 132 899 132 860 q 150 960 132 941 q 214 979 168 979 q 281 960 262 979 q 300 899 300 941 z "},"å":{"ha":758,"x_min":65,"x_max":657,"o":"m 518 0 l 518 81 q 412 7 468 36 q 290 -21 356 -21 q 194 -5 236 -21 q 123 41 152 12 q 80 111 95 71 q 65 200 65 151 q 86 308 65 264 q 145 379 108 351 q 235 420 183 406 q 349 440 287 434 l 511 456 l 511 489 q 501 548 511 524 q 470 585 490 571 q 421 605 450 600 q 354 611 391 611 q 291 604 318 611 q 245 587 264 597 q 212 562 225 576 q 192 534 199 548 l 77 608 q 112 653 90 631 q 169 693 135 675 q 249 721 203 710 q 357 732 296 732 q 488 720 431 732 q 582 679 544 707 q 638 603 619 650 q 657 484 657 555 l 657 0 l 518 0 m 511 346 l 410 336 q 327 323 363 332 q 266 299 290 315 q 228 260 241 283 q 215 203 215 237 q 245 123 215 146 q 329 100 275 100 q 373 107 350 100 q 419 127 395 115 q 466 156 442 139 q 511 191 489 172 l 511 346 m 505 926 q 468 821 505 859 q 359 783 431 783 q 294 793 321 783 q 249 823 267 804 q 223 868 231 842 q 214 926 214 894 q 250 1031 214 992 q 359 1069 286 1069 q 469 1031 434 1069 q 505 926 505 992 m 422 926 q 406 975 422 959 q 359 990 389 990 q 312 974 328 990 q 296 926 296 957 q 311 879 296 897 q 359 861 326 861 q 407 878 393 861 q 422 926 422 895 z "},"æ":{"ha":1190,"x_min":65,"x_max":1125,"o":"m 286 -21 q 193 -5 234 -21 q 123 40 152 11 q 80 112 95 70 q 65 204 65 153 q 87 310 65 267 q 148 380 110 353 q 238 421 186 407 q 349 440 290 435 l 511 456 l 511 489 q 501 547 511 524 q 471 585 490 570 q 422 605 451 599 q 357 611 393 611 q 293 605 320 611 q 247 587 267 598 q 214 563 227 576 q 192 534 201 549 l 77 608 q 113 654 90 631 q 169 693 135 676 q 251 721 203 711 q 361 732 298 732 q 603 639 543 732 q 696 707 640 683 q 832 732 752 732 q 967 708 911 732 q 1058 641 1023 684 q 1109 536 1093 597 q 1125 401 1125 475 l 1125 325 l 657 325 q 668 231 658 272 q 700 163 678 191 q 757 120 722 135 q 843 106 792 106 q 892 110 870 106 q 934 123 915 114 q 970 145 953 132 q 1003 179 987 159 l 1116 103 q 1070 50 1095 73 q 1012 11 1044 26 q 940 -13 980 -5 q 848 -21 899 -21 q 681 8 751 -21 q 571 97 611 37 q 507 50 541 71 q 437 13 473 28 q 363 -12 401 -3 q 286 -21 325 -21 m 322 100 q 425 123 372 100 q 529 186 478 146 q 515 253 519 214 q 511 346 511 291 l 410 336 q 327 323 363 332 q 266 299 291 315 q 228 260 241 284 q 215 201 215 236 q 223 155 215 174 q 245 123 231 136 q 279 105 259 111 q 322 100 298 100 m 981 432 q 943 567 981 521 q 825 614 905 614 q 708 568 747 614 q 660 432 669 522 l 981 432 z "},"ç":{"ha":708,"x_min":71,"x_max":668,"o":"m 567 -143 q 520 -235 567 -203 q 382 -268 473 -268 q 325 -265 352 -268 q 276 -257 298 -262 q 238 -248 254 -253 q 211 -237 221 -242 l 253 -154 q 281 -163 265 -159 q 314 -172 297 -168 q 349 -178 331 -176 q 383 -180 367 -180 q 439 -171 421 -180 q 457 -138 457 -161 q 447 -112 457 -123 q 420 -94 437 -101 q 381 -84 404 -87 q 336 -79 359 -81 l 366 -20 q 250 6 300 -15 q 147 83 187 33 q 89 201 107 132 q 71 353 71 269 q 90 510 71 439 q 149 629 109 580 q 251 705 189 678 q 397 732 313 732 q 554 701 488 732 q 659 606 621 669 l 545 529 q 486 585 521 566 q 399 604 452 604 q 264 544 307 604 q 221 353 221 483 q 231 247 221 293 q 261 170 240 201 q 318 122 283 138 q 404 106 353 106 q 449 110 428 106 q 488 122 469 113 q 522 145 506 131 q 554 180 538 159 l 668 106 q 625 53 649 77 q 568 13 600 30 q 494 -12 536 -3 q 461 -18 479 -16 l 461 -18 q 539 -64 511 -31 q 567 -143 567 -97 z "},"è":{"ha":754,"x_min":71,"x_max":689,"o":"m 221 325 q 232 230 222 271 q 265 162 243 189 q 323 120 288 134 q 411 106 359 106 q 497 122 460 106 q 567 179 535 139 l 679 103 q 633 50 659 73 q 575 11 608 26 q 499 -13 542 -5 q 403 -21 457 -21 q 152 73 233 -21 q 71 350 71 167 q 88 506 71 436 q 143 627 105 576 q 243 704 182 677 q 395 732 305 732 q 530 708 474 732 q 621 641 586 684 q 673 536 656 597 q 689 401 689 475 l 689 325 l 221 325 m 545 432 q 507 567 545 521 q 390 614 470 614 q 320 602 349 614 q 272 567 292 590 q 241 510 253 544 q 224 432 230 476 l 545 432 m 372 819 l 179 1064 l 366 1064 l 490 819 l 372 819 z "},"é":{"ha":754,"x_min":71,"x_max":689,"o":"m 221 325 q 232 230 222 271 q 265 162 243 189 q 323 120 288 134 q 411 106 359 106 q 497 122 460 106 q 567 179 535 139 l 679 103 q 633 50 659 73 q 575 11 608 26 q 499 -13 542 -5 q 403 -21 457 -21 q 152 73 233 -21 q 71 350 71 167 q 88 506 71 436 q 143 627 105 576 q 243 704 182 677 q 395 732 305 732 q 530 708 474 732 q 621 641 586 684 q 673 536 656 597 q 689 401 689 475 l 689 325 l 221 325 m 545 432 q 507 567 545 521 q 390 614 470 614 q 320 602 349 614 q 272 567 292 590 q 241 510 253 544 q 224 432 230 476 l 545 432 m 406 819 l 288 819 l 412 1064 l 598 1064 l 406 819 z "},"ê":{"ha":754,"x_min":71,"x_max":689,"o":"m 221 325 q 232 230 222 271 q 265 162 243 189 q 323 120 288 134 q 411 106 359 106 q 497 122 460 106 q 567 179 535 139 l 679 103 q 633 50 659 73 q 575 11 608 26 q 499 -13 542 -5 q 403 -21 457 -21 q 152 73 233 -21 q 71 350 71 167 q 88 506 71 436 q 143 627 105 576 q 243 704 182 677 q 395 732 305 732 q 530 708 474 732 q 621 641 586 684 q 673 536 656 597 q 689 401 689 475 l 689 325 l 221 325 m 545 432 q 507 567 545 521 q 390 614 470 614 q 320 602 349 614 q 272 567 292 590 q 241 510 253 544 q 224 432 230 476 l 545 432 m 500 819 l 389 958 l 275 819 l 154 819 l 311 1064 l 465 1064 l 623 819 l 500 819 z "},"ë":{"ha":754,"x_min":71,"x_max":689,"o":"m 221 325 q 232 230 222 271 q 265 162 243 189 q 323 120 288 134 q 411 106 359 106 q 497 122 460 106 q 567 179 535 139 l 679 103 q 633 50 659 73 q 575 11 608 26 q 499 -13 542 -5 q 403 -21 457 -21 q 152 73 233 -21 q 71 350 71 167 q 88 506 71 436 q 143 627 105 576 q 243 704 182 677 q 395 732 305 732 q 530 708 474 732 q 621 641 586 684 q 673 536 656 597 q 689 401 689 475 l 689 325 l 221 325 m 545 432 q 507 567 545 521 q 390 614 470 614 q 320 602 349 614 q 272 567 292 590 q 241 510 253 544 q 224 432 230 476 l 545 432 m 615 899 q 594 836 615 854 q 529 818 574 818 q 463 839 480 818 q 446 899 446 860 q 464 960 446 941 q 529 979 483 979 q 596 960 577 979 q 615 899 615 941 m 330 899 q 310 836 330 854 q 244 818 290 818 q 178 839 195 818 q 161 899 161 860 q 180 960 161 941 q 244 979 198 979 q 311 960 292 979 q 330 899 330 941 z "},"ì":{"ha":359,"x_min":-30,"x_max":281,"o":"m 107 0 l 107 711 l 253 711 l 253 0 l 107 0 m 163 819 l -30 1064 l 157 1064 l 281 819 l 163 819 z "},"í":{"ha":359,"x_min":90,"x_max":400,"o":"m 107 0 l 107 711 l 253 711 l 253 0 l 107 0 m 208 819 l 90 819 l 214 1064 l 400 1064 l 208 819 z "},"î":{"ha":359,"x_min":-54,"x_max":415,"o":"m 107 0 l 107 711 l 253 711 l 253 0 l 107 0 m 292 819 l 181 958 l 68 819 l -54 819 l 104 1064 l 258 1064 l 415 819 l 292 819 z "},"ï":{"ha":359,"x_min":-53,"x_max":401,"o":"m 107 0 l 107 711 l 253 711 l 253 0 l 107 0 m 401 899 q 380 836 401 854 q 315 818 359 818 q 249 839 266 818 q 231 899 231 860 q 250 960 231 941 q 315 979 269 979 q 382 960 363 979 q 401 899 401 941 m 116 899 q 96 836 116 854 q 30 818 75 818 q -36 839 -19 818 q -53 899 -53 860 q -35 960 -53 941 q 30 979 -16 979 q 97 960 78 979 q 116 899 116 941 z "},"ð":{"ha":796,"x_min":71,"x_max":725,"o":"m 725 350 q 707 202 725 270 q 651 84 690 134 q 550 7 612 35 q 399 -21 488 -21 q 245 7 308 -21 q 144 85 182 35 q 88 202 105 134 q 71 349 71 269 q 90 495 71 428 q 146 610 109 562 q 238 685 183 658 q 367 711 294 711 q 439 698 400 711 q 510 661 478 684 q 491 703 504 677 q 460 756 477 728 q 422 810 443 783 q 383 857 402 838 l 241 787 l 200 867 l 323 928 q 295 957 311 942 q 263 986 279 972 q 230 1011 246 1000 q 201 1031 214 1023 l 351 1031 q 389 1005 370 1020 q 424 975 408 991 l 538 1031 l 581 953 l 493 909 q 584 800 542 860 q 657 670 626 740 q 707 519 689 600 q 725 350 725 439 m 574 350 q 565 444 574 401 q 536 518 557 486 q 482 567 516 549 q 397 585 448 585 q 313 567 347 585 q 258 519 279 550 q 230 444 238 488 q 221 349 221 401 q 230 249 221 294 q 259 172 239 203 q 314 123 280 140 q 399 106 348 106 q 482 123 448 106 q 536 172 515 140 q 565 249 556 204 q 574 350 574 294 z "},"ñ":{"ha":807,"x_min":107,"x_max":705,"o":"m 559 0 l 559 406 q 556 495 559 458 q 542 555 553 532 q 510 589 530 578 q 456 599 490 599 q 408 590 433 599 q 356 566 382 581 q 304 531 330 551 q 253 489 277 511 l 253 0 l 107 0 l 107 711 l 253 711 l 253 612 q 304 657 276 635 q 365 695 333 679 q 430 722 396 712 q 497 732 463 732 q 597 715 557 732 q 661 665 637 698 q 695 584 685 632 q 705 475 705 536 l 705 0 l 559 0 m 140 831 q 153 909 142 873 q 184 972 163 945 q 235 1013 204 998 q 307 1028 265 1028 q 355 1021 334 1028 q 394 1003 376 1014 q 427 980 412 992 q 456 957 442 968 q 485 939 471 946 q 514 932 498 932 q 541 940 530 932 q 557 961 551 948 q 566 989 563 974 q 570 1018 568 1004 l 673 1018 q 659 940 669 976 q 629 877 649 903 q 578 836 609 850 q 505 821 548 821 q 452 828 475 821 q 413 846 430 836 q 382 870 395 857 q 355 894 368 883 q 329 912 342 905 q 299 920 315 920 q 271 911 281 920 q 254 891 260 903 q 246 862 248 878 q 243 831 244 846 l 140 831 z "},"ò":{"ha":796,"x_min":71,"x_max":725,"o":"m 725 354 q 706 198 725 267 q 648 80 688 129 q 547 5 608 31 q 399 -21 485 -21 q 250 5 312 -21 q 148 81 187 32 q 89 199 108 130 q 71 354 71 268 q 90 511 71 441 q 148 630 109 581 q 250 706 188 680 q 399 732 312 732 q 547 706 485 732 q 648 630 608 680 q 706 511 688 581 q 725 354 725 441 m 574 354 q 533 543 574 481 q 399 604 492 604 q 263 543 306 604 q 221 354 221 481 q 263 168 221 231 q 399 106 304 106 q 532 168 490 106 q 574 354 574 231 m 380 819 l 187 1064 l 374 1064 l 498 819 l 380 819 z "},"ó":{"ha":796,"x_min":71,"x_max":725,"o":"m 725 354 q 706 198 725 267 q 648 80 688 129 q 547 5 608 31 q 399 -21 485 -21 q 250 5 312 -21 q 148 81 187 32 q 89 199 108 130 q 71 354 71 268 q 90 511 71 441 q 148 630 109 581 q 250 706 188 680 q 399 732 312 732 q 547 706 485 732 q 648 630 608 680 q 706 511 688 581 q 725 354 725 441 m 574 354 q 533 543 574 481 q 399 604 492 604 q 263 543 306 604 q 221 354 221 481 q 263 168 221 231 q 399 106 304 106 q 532 168 490 106 q 574 354 574 231 m 416 819 l 298 819 l 422 1064 l 608 1064 l 416 819 z "},"ô":{"ha":796,"x_min":71,"x_max":725,"o":"m 725 354 q 706 198 725 267 q 648 80 688 129 q 547 5 608 31 q 399 -21 485 -21 q 250 5 312 -21 q 148 81 187 32 q 89 199 108 130 q 71 354 71 268 q 90 511 71 441 q 148 630 109 581 q 250 706 188 680 q 399 732 312 732 q 547 706 485 732 q 648 630 608 680 q 706 511 688 581 q 725 354 725 441 m 574 354 q 533 543 574 481 q 399 604 492 604 q 263 543 306 604 q 221 354 221 481 q 263 168 221 231 q 399 106 304 106 q 532 168 490 106 q 574 354 574 231 m 511 819 l 399 958 l 286 819 l 165 819 l 322 1064 l 476 1064 l 633 819 l 511 819 z "},"õ":{"ha":796,"x_min":71,"x_max":725,"o":"m 725 354 q 706 198 725 267 q 648 80 688 129 q 547 5 608 31 q 399 -21 485 -21 q 250 5 312 -21 q 148 81 187 32 q 89 199 108 130 q 71 354 71 268 q 90 511 71 441 q 148 630 109 581 q 250 706 188 680 q 399 732 312 732 q 547 706 485 732 q 648 630 608 680 q 706 511 688 581 q 725 354 725 441 m 574 354 q 533 543 574 481 q 399 604 492 604 q 263 543 306 604 q 221 354 221 481 q 263 168 221 231 q 399 106 304 106 q 532 168 490 106 q 574 354 574 231 m 133 831 q 145 909 135 873 q 176 972 156 945 q 227 1013 197 998 q 300 1028 258 1028 q 348 1021 326 1028 q 387 1003 369 1014 q 419 980 404 992 q 449 957 435 968 q 477 939 463 946 q 507 932 491 932 q 533 940 523 932 q 549 961 543 948 q 558 989 555 974 q 562 1018 561 1004 l 665 1018 q 652 940 662 976 q 622 877 642 903 q 571 836 602 850 q 497 821 541 821 q 445 828 467 821 q 405 846 422 836 q 374 870 388 857 q 348 894 361 883 q 321 912 335 905 q 292 920 308 920 q 263 911 274 920 q 247 891 253 903 q 239 862 241 878 q 236 831 237 846 l 133 831 z "},"ö":{"ha":796,"x_min":71,"x_max":725,"o":"m 725 354 q 706 198 725 267 q 648 80 688 129 q 547 5 608 31 q 399 -21 485 -21 q 250 5 312 -21 q 148 81 187 32 q 89 199 108 130 q 71 354 71 268 q 90 511 71 441 q 148 630 109 581 q 250 706 188 680 q 399 732 312 732 q 547 706 485 732 q 648 630 608 680 q 706 511 688 581 q 725 354 725 441 m 574 354 q 533 543 574 481 q 399 604 492 604 q 263 543 306 604 q 221 354 221 481 q 263 168 221 231 q 399 106 304 106 q 532 168 490 106 q 574 354 574 231 m 626 899 q 605 836 626 854 q 540 818 585 818 q 474 839 491 818 q 456 899 456 860 q 475 960 456 941 q 540 979 494 979 q 607 960 588 979 q 626 899 626 941 m 341 899 q 321 836 341 854 q 255 818 300 818 q 189 839 206 818 q 172 899 172 860 q 191 960 172 941 q 255 979 209 979 q 322 960 303 979 q 341 899 341 941 z "},"÷":{"ha":968,"x_min":100,"x_max":867,"o":"m 411 631 l 411 777 l 555 777 l 555 631 l 411 631 m 100 336 l 100 454 l 867 454 l 867 336 l 100 336 m 411 16 l 411 161 l 555 161 l 555 16 l 411 16 z "},"ø":{"ha":796,"x_min":71,"x_max":730,"o":"m 71 -52 l 154 72 q 90 193 110 121 q 71 354 71 264 q 90 511 71 441 q 148 630 109 581 q 250 706 188 680 q 399 732 312 732 q 572 692 503 732 l 621 762 l 730 762 l 643 633 q 705 514 685 585 q 725 354 725 443 q 706 198 725 267 q 648 80 688 129 q 547 5 608 31 q 399 -21 485 -21 q 227 17 295 -21 l 180 -52 l 71 -52 m 221 354 q 226 271 221 308 q 243 204 231 233 l 496 578 q 453 598 477 591 q 399 604 429 604 q 263 543 306 604 q 221 354 221 481 m 574 354 q 569 434 574 398 q 554 500 565 471 l 302 129 q 399 106 341 106 q 532 168 490 106 q 574 354 574 231 z "},"ù":{"ha":807,"x_min":102,"x_max":700,"o":"m 554 0 l 554 98 q 502 53 530 75 q 443 15 474 31 q 377 -11 411 -1 q 310 -21 344 -21 q 210 -4 250 -21 q 146 46 170 13 q 112 126 122 79 q 102 236 102 174 l 102 711 l 248 711 l 248 306 q 251 215 248 252 q 265 156 254 178 q 296 123 276 133 q 350 113 317 113 q 398 121 372 113 q 450 145 423 130 q 503 180 477 160 q 554 222 530 200 l 554 711 l 700 711 l 700 0 l 554 0 m 390 819 l 197 1064 l 383 1064 l 508 819 l 390 819 z "},"ú":{"ha":807,"x_min":102,"x_max":700,"o":"m 554 0 l 554 98 q 502 53 530 75 q 443 15 474 31 q 377 -11 411 -1 q 310 -21 344 -21 q 210 -4 250 -21 q 146 46 170 13 q 112 126 122 79 q 102 236 102 174 l 102 711 l 248 711 l 248 306 q 251 215 248 252 q 265 156 254 178 q 296 123 276 133 q 350 113 317 113 q 398 121 372 113 q 450 145 423 130 q 503 180 477 160 q 554 222 530 200 l 554 711 l 700 711 l 700 0 l 554 0 m 424 819 l 306 819 l 431 1064 l 616 1064 l 424 819 z "},"û":{"ha":807,"x_min":102,"x_max":700,"o":"m 554 0 l 554 98 q 502 53 530 75 q 443 15 474 31 q 377 -11 411 -1 q 310 -21 344 -21 q 210 -4 250 -21 q 146 46 170 13 q 112 126 122 79 q 102 236 102 174 l 102 711 l 248 711 l 248 306 q 251 215 248 252 q 265 156 254 178 q 296 123 276 133 q 350 113 317 113 q 398 121 372 113 q 450 145 423 130 q 503 180 477 160 q 554 222 530 200 l 554 711 l 700 711 l 700 0 l 554 0 m 512 819 l 401 958 l 288 819 l 166 819 l 323 1064 l 477 1064 l 635 819 l 512 819 z "},"ü":{"ha":807,"x_min":102,"x_max":700,"o":"m 554 0 l 554 98 q 502 53 530 75 q 443 15 474 31 q 377 -11 411 -1 q 310 -21 344 -21 q 210 -4 250 -21 q 146 46 170 13 q 112 126 122 79 q 102 236 102 174 l 102 711 l 248 711 l 248 306 q 251 215 248 252 q 265 156 254 178 q 296 123 276 133 q 350 113 317 113 q 398 121 372 113 q 450 145 423 130 q 503 180 477 160 q 554 222 530 200 l 554 711 l 700 711 l 700 0 l 554 0 m 626 899 q 605 836 626 854 q 540 818 585 818 q 474 839 491 818 q 456 899 456 860 q 475 960 456 941 q 540 979 494 979 q 607 960 588 979 q 626 899 626 941 m 341 899 q 321 836 341 854 q 255 818 300 818 q 189 839 206 818 q 172 899 172 860 q 191 960 172 941 q 255 979 209 979 q 322 960 303 979 q 341 899 341 941 z "},"ý":{"ha":721,"x_min":-8,"x_max":696,"o":"m 25 -123 q 76 -138 49 -133 q 127 -143 102 -143 q 166 -136 148 -143 q 200 -113 184 -129 q 232 -71 217 -97 q 262 -8 248 -45 l 283 43 l 25 711 l 179 711 l 361 224 l 546 711 l 696 711 l 390 -52 q 342 -151 366 -110 q 287 -218 317 -192 q 218 -256 256 -244 q 131 -268 180 -268 q 60 -262 97 -268 q -8 -248 22 -257 l 25 -123 m 380 819 l 262 819 l 387 1064 l 572 1064 l 380 819 z "},"þ":{"ha":810,"x_min":107,"x_max":739,"o":"m 739 361 q 723 217 739 286 q 672 95 707 148 q 583 11 637 42 q 453 -21 529 -21 q 345 -1 395 -21 q 253 56 295 19 l 253 -268 l 107 -268 l 107 1010 l 253 1010 l 253 644 q 348 707 293 683 q 468 732 403 732 q 590 705 539 732 q 674 628 642 677 q 723 511 707 579 q 739 361 739 443 m 589 358 q 549 541 589 478 q 432 603 509 603 q 383 596 408 603 q 335 579 358 590 q 291 553 312 568 q 253 522 270 538 l 253 178 q 289 151 269 163 q 330 129 308 138 q 374 114 351 119 q 421 109 397 109 q 486 123 455 109 q 539 167 516 137 q 575 244 562 197 q 589 358 589 292 z "},"ÿ":{"ha":721,"x_min":-8,"x_max":696,"o":"m 25 -123 q 76 -138 49 -133 q 127 -143 102 -143 q 166 -136 148 -143 q 200 -113 184 -129 q 232 -71 217 -97 q 262 -8 248 -45 l 283 43 l 25 711 l 179 711 l 361 224 l 546 711 l 696 711 l 390 -52 q 342 -151 366 -110 q 287 -218 317 -192 q 218 -256 256 -244 q 131 -268 180 -268 q 60 -262 97 -268 q -8 -248 22 -257 l 25 -123 m 589 899 q 568 836 589 854 q 503 818 547 818 q 436 839 454 818 q 419 899 419 860 q 438 960 419 941 q 503 979 456 979 q 570 960 551 979 q 589 899 589 941 m 304 899 q 283 836 304 854 q 218 818 263 818 q 152 839 169 818 q 135 899 135 860 q 153 960 135 941 q 218 979 172 979 q 285 960 266 979 q 304 899 304 941 z "},"Ā":{"ha":890,"x_min":26,"x_max":864,"o":"m 26 0 l 342 939 l 547 939 l 864 0 l 700 0 l 628 216 l 256 216 l 184 0 l 26 0 m 301 358 l 581 358 l 441 781 l 301 358 m 231 1079 l 231 1189 l 665 1189 l 665 1079 l 231 1079 z "},"ā":{"ha":758,"x_min":65,"x_max":657,"o":"m 518 0 l 518 81 q 412 7 468 36 q 290 -21 356 -21 q 194 -5 236 -21 q 123 41 152 12 q 80 111 95 71 q 65 200 65 151 q 86 308 65 264 q 145 379 108 351 q 235 420 183 406 q 349 440 287 434 l 511 456 l 511 489 q 501 548 511 524 q 470 585 490 571 q 421 605 450 600 q 354 611 391 611 q 291 604 318 611 q 245 587 264 597 q 212 562 225 576 q 192 534 199 548 l 77 608 q 112 653 90 631 q 169 693 135 675 q 249 721 203 710 q 357 732 296 732 q 488 720 431 732 q 582 679 544 707 q 638 603 619 650 q 657 484 657 555 l 657 0 l 518 0 m 511 346 l 410 336 q 327 323 363 332 q 266 299 290 315 q 228 260 241 283 q 215 203 215 237 q 245 123 215 146 q 329 100 275 100 q 373 107 350 100 q 419 127 395 115 q 466 156 442 139 q 511 191 489 172 l 511 346 m 150 851 l 150 961 l 585 961 l 585 851 l 150 851 z "},"Ă":{"ha":890,"x_min":26,"x_max":864,"o":"m 26 0 l 342 939 l 547 939 l 864 0 l 700 0 l 628 216 l 256 216 l 184 0 l 26 0 m 301 358 l 581 358 l 441 781 l 301 358 m 682 1238 q 668 1161 682 1198 q 624 1095 653 1124 q 551 1049 595 1067 q 447 1032 507 1032 q 347 1049 390 1032 q 274 1095 303 1067 q 230 1161 245 1124 q 215 1238 215 1198 l 322 1238 q 364 1180 332 1200 q 447 1160 396 1160 q 535 1180 505 1160 q 575 1238 566 1200 l 682 1238 z "},"ă":{"ha":758,"x_min":65,"x_max":657,"o":"m 518 0 l 518 81 q 412 7 468 36 q 290 -21 356 -21 q 194 -5 236 -21 q 123 41 152 12 q 80 111 95 71 q 65 200 65 151 q 86 308 65 264 q 145 379 108 351 q 235 420 183 406 q 349 440 287 434 l 511 456 l 511 489 q 501 548 511 524 q 470 585 490 571 q 421 605 450 600 q 354 611 391 611 q 291 604 318 611 q 245 587 264 597 q 212 562 225 576 q 192 534 199 548 l 77 608 q 112 653 90 631 q 169 693 135 675 q 249 721 203 710 q 357 732 296 732 q 488 720 431 732 q 582 679 544 707 q 638 603 619 650 q 657 484 657 555 l 657 0 l 518 0 m 511 346 l 410 336 q 327 323 363 332 q 266 299 290 315 q 228 260 241 283 q 215 203 215 237 q 245 123 215 146 q 329 100 275 100 q 373 107 350 100 q 419 127 395 115 q 466 156 442 139 q 511 191 489 172 l 511 346 m 602 1017 q 587 940 602 977 q 543 874 572 903 q 470 828 514 846 q 366 811 426 811 q 266 828 309 811 q 193 874 222 846 q 149 940 164 903 q 134 1017 134 977 l 241 1017 q 283 959 251 979 q 366 939 315 939 q 454 959 424 939 q 494 1017 485 979 l 602 1017 z "},"Ą":{"ha":890,"x_min":26,"x_max":864,"o":"m 863 -224 q 791 -256 827 -245 q 714 -268 755 -268 q 658 -260 684 -268 q 613 -238 632 -253 q 584 -199 595 -222 q 574 -144 574 -176 q 606 -54 574 -94 q 694 12 639 -15 l 628 216 l 256 216 l 184 0 l 26 0 l 342 939 l 547 939 l 864 0 q 780 -26 813 -13 q 727 -54 747 -40 q 700 -82 707 -68 q 692 -111 692 -96 q 704 -145 692 -134 q 736 -157 716 -157 q 773 -151 753 -157 q 812 -134 793 -145 l 863 -224 m 301 358 l 581 358 l 441 781 l 301 358 z "},"ą":{"ha":758,"x_min":65,"x_max":657,"o":"m 657 -224 q 585 -256 621 -245 q 509 -268 549 -268 q 452 -260 477 -268 q 407 -238 426 -253 q 378 -199 389 -222 q 368 -144 368 -176 q 409 -44 368 -87 q 518 25 450 -1 l 518 81 q 412 7 468 36 q 290 -21 356 -21 q 194 -5 236 -21 q 123 41 152 12 q 80 111 95 71 q 65 200 65 151 q 86 308 65 264 q 145 379 108 352 q 235 421 183 407 q 349 440 287 435 l 511 456 l 511 489 q 501 548 511 524 q 470 585 490 571 q 421 605 450 600 q 354 611 391 611 q 291 604 318 611 q 245 587 264 597 q 212 562 225 576 q 192 534 199 548 l 77 608 q 112 653 90 631 q 169 693 135 675 q 249 721 203 710 q 357 732 296 732 q 488 720 431 732 q 582 679 544 707 q 638 603 619 650 q 657 484 657 555 l 657 0 q 574 -26 607 -13 q 521 -54 541 -40 q 493 -82 501 -68 q 485 -111 485 -96 q 498 -145 485 -134 q 530 -157 511 -157 q 567 -151 547 -157 q 606 -134 587 -145 l 657 -224 m 511 346 l 410 336 q 327 323 363 332 q 266 299 290 315 q 228 260 241 283 q 215 203 215 237 q 245 123 215 146 q 329 100 275 100 q 373 107 350 100 q 419 127 395 115 q 466 156 442 139 q 511 191 489 172 l 511 346 z "},"Ć":{"ha":900,"x_min":77,"x_max":854,"o":"m 854 160 q 799 89 830 122 q 727 32 768 56 q 629 -6 685 8 q 500 -20 574 -20 q 181 102 285 -20 q 77 469 77 224 q 181 837 77 715 q 493 958 286 958 q 619 945 564 958 q 716 909 674 932 q 788 854 758 886 q 840 786 819 823 l 714 694 q 681 740 699 718 q 638 780 663 762 q 578 807 612 797 q 496 818 543 818 q 302 730 363 818 q 240 469 240 643 q 257 311 240 376 q 306 202 273 245 q 387 140 338 160 q 497 121 435 121 q 579 131 544 121 q 641 158 614 141 q 688 199 668 176 q 726 249 709 222 l 854 160 m 505 1047 l 387 1047 l 511 1292 l 697 1292 l 505 1047 z "},"ć":{"ha":708,"x_min":71,"x_max":668,"o":"m 668 106 q 625 53 649 77 q 568 13 600 30 q 495 -12 536 -3 q 403 -21 454 -21 q 250 6 313 -21 q 147 83 187 33 q 89 201 107 132 q 71 353 71 269 q 90 510 71 439 q 149 629 109 580 q 251 705 189 678 q 397 732 313 732 q 554 701 488 732 q 659 606 621 669 l 545 529 q 486 585 521 566 q 399 604 452 604 q 264 544 307 604 q 221 353 221 483 q 231 247 221 293 q 261 170 240 201 q 318 122 283 138 q 404 106 353 106 q 449 110 428 106 q 488 122 469 113 q 522 145 506 131 q 554 180 538 159 l 668 106 m 414 819 l 296 819 l 421 1064 l 607 1064 l 414 819 z "},"Ĉ":{"ha":900,"x_min":77,"x_max":854,"o":"m 854 160 q 799 89 830 122 q 727 32 768 56 q 629 -6 685 8 q 500 -20 574 -20 q 181 102 285 -20 q 77 469 77 224 q 181 837 77 715 q 493 958 286 958 q 619 945 564 958 q 716 909 674 932 q 788 854 758 886 q 840 786 819 823 l 714 694 q 681 740 699 718 q 638 780 663 762 q 578 807 612 797 q 496 818 543 818 q 302 730 363 818 q 240 469 240 643 q 257 311 240 376 q 306 202 273 245 q 387 140 338 160 q 497 121 435 121 q 579 131 544 121 q 641 158 614 141 q 688 199 668 176 q 726 249 709 222 l 854 160 m 608 1047 l 497 1186 l 384 1047 l 262 1047 l 420 1292 l 574 1292 l 731 1047 l 608 1047 z "},"ĉ":{"ha":708,"x_min":71,"x_max":668,"o":"m 668 106 q 625 53 649 77 q 568 13 600 30 q 495 -12 536 -3 q 403 -21 454 -21 q 250 6 313 -21 q 147 83 187 33 q 89 201 107 132 q 71 353 71 269 q 90 510 71 439 q 149 629 109 580 q 251 705 189 678 q 397 732 313 732 q 554 701 488 732 q 659 606 621 669 l 545 529 q 486 585 521 566 q 399 604 452 604 q 264 544 307 604 q 221 353 221 483 q 231 247 221 293 q 261 170 240 201 q 318 122 283 138 q 404 106 353 106 q 449 110 428 106 q 488 122 469 113 q 522 145 506 131 q 554 180 538 159 l 668 106 m 505 819 l 394 958 l 281 819 l 159 819 l 317 1064 l 471 1064 l 628 819 l 505 819 z "},"Ċ":{"ha":900,"x_min":77,"x_max":854,"o":"m 854 160 q 799 89 830 122 q 727 32 768 56 q 629 -6 685 8 q 500 -20 574 -20 q 181 102 285 -20 q 77 469 77 224 q 181 837 77 715 q 493 958 286 958 q 619 945 564 958 q 716 909 674 932 q 788 854 758 886 q 840 786 819 823 l 714 694 q 681 740 699 718 q 638 780 663 762 q 578 807 612 797 q 496 818 543 818 q 302 730 363 818 q 240 469 240 643 q 257 311 240 376 q 306 202 273 245 q 387 140 338 160 q 497 121 435 121 q 579 131 544 121 q 641 158 614 141 q 688 199 668 176 q 726 249 709 222 l 854 160 m 559 1129 q 538 1064 559 1082 q 469 1046 517 1046 q 427 1051 444 1046 q 401 1067 410 1057 q 387 1094 391 1078 q 383 1129 383 1109 q 402 1192 383 1172 q 469 1213 421 1213 q 539 1193 519 1213 q 559 1129 559 1173 z "},"ċ":{"ha":708,"x_min":71,"x_max":668,"o":"m 668 106 q 625 53 649 77 q 568 13 600 30 q 495 -12 536 -3 q 403 -21 454 -21 q 250 6 313 -21 q 147 83 187 33 q 89 201 107 132 q 71 353 71 269 q 90 510 71 439 q 149 629 109 580 q 251 705 189 678 q 397 732 313 732 q 554 701 488 732 q 659 606 621 669 l 545 529 q 486 585 521 566 q 399 604 452 604 q 264 544 307 604 q 221 353 221 483 q 231 247 221 293 q 261 170 240 201 q 318 122 283 138 q 404 106 353 106 q 449 110 428 106 q 488 122 469 113 q 522 145 506 131 q 554 180 538 159 l 668 106 m 473 901 q 452 836 473 854 q 383 818 431 818 q 341 823 357 818 q 315 840 324 829 q 301 866 305 850 q 297 901 297 882 q 316 964 297 944 q 383 985 335 985 q 453 965 433 985 q 473 901 473 945 z "},"Č":{"ha":900,"x_min":77,"x_max":854,"o":"m 854 160 q 799 89 830 122 q 727 32 768 56 q 629 -6 685 8 q 500 -20 574 -20 q 181 102 285 -20 q 77 469 77 224 q 181 837 77 715 q 493 958 286 958 q 619 945 564 958 q 716 909 674 932 q 788 854 758 886 q 840 786 819 823 l 714 694 q 681 740 699 718 q 638 780 663 762 q 578 807 612 797 q 496 818 543 818 q 302 730 363 818 q 240 469 240 643 q 257 311 240 376 q 306 202 273 245 q 387 140 338 160 q 497 121 435 121 q 579 131 544 121 q 641 158 614 141 q 688 199 668 176 q 726 249 709 222 l 854 160 m 561 1047 l 407 1047 l 250 1292 l 372 1292 l 483 1152 l 597 1292 l 718 1292 l 561 1047 z "},"č":{"ha":708,"x_min":71,"x_max":668,"o":"m 668 106 q 625 53 649 77 q 568 13 600 30 q 495 -12 536 -3 q 403 -21 454 -21 q 250 6 313 -21 q 147 83 187 33 q 89 201 107 132 q 71 353 71 269 q 90 510 71 439 q 149 629 109 580 q 251 705 189 678 q 397 732 313 732 q 554 701 488 732 q 659 606 621 669 l 545 529 q 486 585 521 566 q 399 604 452 604 q 264 544 307 604 q 221 353 221 483 q 231 247 221 293 q 261 170 240 201 q 318 122 283 138 q 404 106 353 106 q 449 110 428 106 q 488 122 469 113 q 522 145 506 131 q 554 180 538 159 l 668 106 m 461 819 l 307 819 l 150 1064 l 273 1064 l 383 924 l 497 1064 l 618 1064 l 461 819 z "},"Ď":{"ha":884,"x_min":104,"x_max":814,"o":"m 814 469 q 785 240 814 331 q 700 96 757 149 q 560 21 644 43 q 367 0 477 0 l 104 0 l 104 939 l 364 939 q 561 915 477 939 q 702 836 646 891 q 786 691 758 781 q 814 469 814 602 m 648 471 q 633 628 648 566 q 584 727 618 690 q 492 779 549 764 q 351 794 435 794 l 262 794 l 262 144 l 351 144 q 494 160 437 144 q 585 214 551 176 q 634 314 620 252 q 648 471 648 377 m 488 1047 l 334 1047 l 176 1292 l 299 1292 l 410 1152 l 524 1292 l 645 1292 l 488 1047 z "},"ď":{"ha":880,"x_min":71,"x_max":961,"o":"m 850 765 l 755 765 l 796 1010 l 961 1010 l 850 765 m 564 0 l 564 69 q 464 4 519 30 q 343 -21 409 -21 q 220 6 271 -21 q 135 83 168 34 q 86 201 102 133 q 71 350 71 269 q 86 492 71 423 q 137 614 102 561 q 227 700 172 667 q 363 732 283 732 q 467 711 416 732 q 557 656 518 690 l 557 1010 l 703 1010 l 703 0 l 564 0 m 557 532 q 521 559 541 546 q 480 582 502 572 q 435 597 458 591 q 389 603 412 603 q 324 588 355 603 q 271 543 294 574 q 235 466 248 513 q 221 353 221 418 q 261 171 221 233 q 378 109 300 109 q 427 115 402 109 q 475 133 452 121 q 519 158 498 144 q 557 189 540 173 l 557 532 z "},"Đ":{"ha":942,"x_min":22,"x_max":865,"o":"m 865 469 q 834 240 865 331 q 743 96 804 149 q 593 21 683 43 q 385 0 503 0 l 113 0 l 113 408 l 22 408 l 22 533 l 113 533 l 113 939 l 383 939 q 595 915 505 939 q 746 836 686 891 q 836 691 806 781 q 865 469 865 602 m 700 471 q 683 628 700 566 q 628 727 666 690 q 527 779 589 764 q 372 794 464 794 l 271 794 l 271 533 l 493 533 l 493 408 l 271 408 l 271 144 l 372 144 q 528 160 465 144 q 629 214 591 176 q 683 314 667 252 q 700 471 700 377 z "},"đ":{"ha":810,"x_min":71,"x_max":796,"o":"m 564 0 l 564 69 q 464 4 519 30 q 343 -21 409 -21 q 220 6 271 -21 q 135 83 168 34 q 86 201 102 133 q 71 350 71 269 q 86 492 71 423 q 137 614 102 561 q 227 700 172 667 q 363 732 283 732 q 467 711 416 732 q 557 656 518 690 l 557 811 l 361 811 l 361 921 l 557 921 l 557 1010 l 703 1010 l 703 921 l 796 921 l 796 811 l 703 811 l 703 0 l 564 0 m 557 532 q 521 559 541 546 q 480 582 502 572 q 435 597 458 591 q 389 603 412 603 q 324 588 355 603 q 271 543 294 574 q 235 466 248 513 q 221 353 221 418 q 261 171 221 233 q 378 109 300 109 q 427 115 402 109 q 475 133 452 121 q 519 158 498 144 q 557 189 540 173 l 557 532 z "},"Ē":{"ha":781,"x_min":113,"x_max":704,"o":"m 113 0 l 113 939 l 704 939 l 704 798 l 271 798 l 271 559 l 639 559 l 639 418 l 271 418 l 271 144 l 704 144 l 704 0 l 113 0 m 188 1079 l 188 1189 l 623 1189 l 623 1079 l 188 1079 z "},"ē":{"ha":754,"x_min":71,"x_max":689,"o":"m 221 325 q 232 230 222 271 q 265 162 243 189 q 323 120 288 134 q 411 106 359 106 q 497 122 460 106 q 567 179 535 139 l 679 103 q 633 50 659 73 q 575 11 608 26 q 499 -13 542 -5 q 403 -21 457 -21 q 152 73 233 -21 q 71 350 71 167 q 88 506 71 436 q 143 627 105 576 q 243 704 182 677 q 395 732 305 732 q 530 708 474 732 q 621 641 586 684 q 673 536 656 597 q 689 401 689 475 l 689 325 l 221 325 m 545 432 q 507 567 545 521 q 390 614 470 614 q 320 602 349 614 q 272 567 292 590 q 241 510 253 544 q 224 432 230 476 l 545 432 m 182 851 l 182 961 l 616 961 l 616 851 l 182 851 z "},"Ĕ":{"ha":781,"x_min":113,"x_max":704,"o":"m 113 0 l 113 939 l 704 939 l 704 798 l 271 798 l 271 559 l 639 559 l 639 418 l 271 418 l 271 144 l 704 144 l 704 0 l 113 0 m 665 1244 q 651 1167 665 1204 q 607 1102 636 1131 q 534 1056 578 1074 q 430 1039 490 1039 q 330 1056 373 1039 q 257 1102 286 1074 q 213 1167 228 1131 q 198 1244 198 1204 l 305 1244 q 347 1186 315 1206 q 430 1166 379 1166 q 518 1186 488 1166 q 558 1244 549 1206 l 665 1244 z "},"ĕ":{"ha":754,"x_min":71,"x_max":689,"o":"m 221 325 q 232 230 222 271 q 265 162 243 189 q 323 120 288 134 q 411 106 359 106 q 497 122 460 106 q 567 179 535 139 l 679 103 q 633 50 659 73 q 575 11 608 26 q 499 -13 542 -5 q 403 -21 457 -21 q 152 73 233 -21 q 71 350 71 167 q 88 506 71 436 q 143 627 105 576 q 243 704 182 677 q 395 732 305 732 q 530 708 474 732 q 621 641 586 684 q 673 536 656 597 q 689 401 689 475 l 689 325 l 221 325 m 545 432 q 507 567 545 521 q 390 614 470 614 q 320 602 349 614 q 272 567 292 590 q 241 510 253 544 q 224 432 230 476 l 545 432 m 627 1017 q 612 940 627 977 q 568 874 597 903 q 495 828 539 846 q 391 811 451 811 q 291 828 334 811 q 218 874 248 846 q 174 940 189 903 q 159 1017 159 977 l 267 1017 q 308 959 276 979 q 391 939 340 939 q 479 959 449 939 q 519 1017 510 979 l 627 1017 z "},"Ė":{"ha":781,"x_min":113,"x_max":704,"o":"m 113 0 l 113 939 l 704 939 l 704 798 l 271 798 l 271 559 l 639 559 l 639 418 l 271 418 l 271 144 l 704 144 l 704 0 l 113 0 m 494 1129 q 473 1064 494 1082 q 404 1046 452 1046 q 362 1051 378 1046 q 336 1067 345 1057 q 322 1094 326 1078 q 318 1129 318 1109 q 337 1192 318 1172 q 404 1213 356 1213 q 474 1193 454 1213 q 494 1129 494 1173 z "},"ė":{"ha":754,"x_min":71,"x_max":689,"o":"m 221 325 q 232 230 222 271 q 265 162 243 189 q 323 120 288 134 q 411 106 359 106 q 497 122 460 106 q 567 179 535 139 l 679 103 q 633 50 659 73 q 575 11 608 26 q 499 -13 542 -5 q 403 -21 457 -21 q 152 73 233 -21 q 71 350 71 167 q 88 506 71 436 q 143 627 105 576 q 243 704 182 677 q 395 732 305 732 q 530 708 474 732 q 621 641 586 684 q 673 536 656 597 q 689 401 689 475 l 689 325 l 221 325 m 545 432 q 507 567 545 521 q 390 614 470 614 q 320 602 349 614 q 272 567 292 590 q 241 510 253 544 q 224 432 230 476 l 545 432 m 477 901 q 456 836 477 854 q 387 818 435 818 q 345 823 361 818 q 319 840 328 829 q 305 866 309 850 q 301 901 301 882 q 320 964 301 944 q 387 985 339 985 q 457 965 437 985 q 477 901 477 945 z "},"Ę":{"ha":781,"x_min":113,"x_max":704,"o":"m 703 -224 q 631 -256 667 -245 q 554 -268 595 -268 q 498 -260 524 -268 q 453 -238 472 -253 q 424 -199 435 -222 q 414 -144 414 -176 q 440 -63 414 -98 q 511 0 467 -27 l 113 0 l 113 939 l 704 939 l 704 798 l 271 798 l 271 559 l 639 559 l 639 418 l 271 418 l 271 144 l 704 144 l 704 0 q 621 -26 654 -13 q 568 -54 587 -40 q 540 -82 548 -68 q 532 -111 532 -96 q 544 -145 532 -134 q 576 -157 557 -157 q 614 -151 594 -157 q 653 -134 634 -145 l 703 -224 z "},"ę":{"ha":754,"x_min":71,"x_max":689,"o":"m 689 325 l 221 325 q 232 230 222 271 q 265 162 243 189 q 323 120 288 134 q 411 106 359 106 q 497 122 460 106 q 567 179 535 139 l 679 103 q 628 45 656 68 q 545 -44 572 -6 q 517 -115 517 -81 q 529 -147 517 -137 q 562 -157 541 -157 q 599 -151 579 -157 q 637 -134 618 -145 l 689 -224 q 617 -256 653 -245 q 541 -268 581 -268 q 484 -261 509 -268 q 439 -239 458 -254 q 410 -202 420 -224 q 400 -150 400 -180 q 413 -82 400 -112 q 453 -20 425 -53 q 434 -21 444 -21 q 412 -21 424 -21 q 153 73 235 -21 q 71 350 71 167 q 88 506 71 436 q 143 627 105 576 q 243 704 182 677 q 395 732 305 732 q 530 708 474 732 q 621 641 586 684 q 673 536 656 597 q 689 401 689 475 l 689 325 m 545 432 q 507 567 545 521 q 390 614 470 614 q 320 602 349 614 q 272 567 292 590 q 241 510 253 544 q 224 432 230 476 l 545 432 z "},"Ě":{"ha":781,"x_min":113,"x_max":704,"o":"m 113 0 l 113 939 l 704 939 l 704 798 l 271 798 l 271 559 l 639 559 l 639 418 l 271 418 l 271 144 l 704 144 l 704 0 l 113 0 m 475 1047 l 321 1047 l 163 1292 l 286 1292 l 397 1152 l 511 1292 l 632 1292 l 475 1047 z "},"ě":{"ha":754,"x_min":71,"x_max":689,"o":"m 221 325 q 232 230 222 271 q 265 162 243 189 q 323 120 288 134 q 411 106 359 106 q 497 122 460 106 q 567 179 535 139 l 679 103 q 633 50 659 73 q 575 11 608 26 q 499 -13 542 -5 q 403 -21 457 -21 q 152 73 233 -21 q 71 350 71 167 q 88 506 71 436 q 143 627 105 576 q 243 704 182 677 q 395 732 305 732 q 530 708 474 732 q 621 641 586 684 q 673 536 656 597 q 689 401 689 475 l 689 325 l 221 325 m 545 432 q 507 567 545 521 q 390 614 470 614 q 320 602 349 614 q 272 567 292 590 q 241 510 253 544 q 224 432 230 476 l 545 432 m 467 819 l 313 819 l 155 1064 l 278 1064 l 389 924 l 503 1064 l 624 1064 l 467 819 z "},"Ĝ":{"ha":951,"x_min":77,"x_max":850,"o":"m 725 693 q 637 785 690 753 q 498 818 584 818 q 391 799 439 818 q 310 739 343 781 q 258 629 276 696 q 240 464 240 562 q 255 314 240 378 q 301 207 269 250 q 382 142 332 164 q 501 121 431 121 q 598 132 553 121 q 690 164 644 143 l 690 349 l 485 349 l 485 490 l 848 490 l 848 81 q 691 7 777 35 q 504 -20 606 -20 q 180 101 284 -20 q 77 464 77 221 q 101 675 77 583 q 178 830 126 768 q 310 926 230 893 q 498 958 389 958 q 629 944 572 958 q 729 907 686 930 q 801 852 771 883 q 850 786 830 821 l 725 693 m 608 1047 l 497 1186 l 384 1047 l 262 1047 l 420 1292 l 574 1292 l 731 1047 l 608 1047 z "},"ĝ":{"ha":810,"x_min":71,"x_max":703,"o":"m 703 14 q 684 -111 703 -58 q 624 -198 665 -163 q 519 -251 583 -233 q 367 -268 456 -268 q 217 -251 285 -268 q 97 -204 150 -235 l 144 -86 q 246 -127 191 -111 q 367 -143 301 -143 q 454 -134 418 -143 q 513 -107 490 -125 q 546 -58 536 -88 q 557 14 557 -28 l 557 85 q 463 24 517 48 q 345 0 410 0 q 221 27 273 0 q 136 102 170 54 q 86 216 102 150 q 71 363 71 283 q 86 500 71 433 q 137 618 102 566 q 228 701 172 669 q 364 732 284 732 q 473 709 420 732 q 567 648 526 686 l 578 711 l 703 711 l 703 14 m 557 532 q 477 584 519 564 q 387 603 435 603 q 316 585 347 603 q 264 535 286 567 q 232 460 243 504 q 221 366 221 417 q 230 268 221 312 q 257 194 239 224 q 306 146 276 163 q 376 129 335 129 q 469 151 423 129 q 557 210 515 172 l 557 532 m 515 819 l 404 958 l 290 819 l 169 819 l 326 1064 l 480 1064 l 637 819 l 515 819 z "},"Ğ":{"ha":951,"x_min":77,"x_max":850,"o":"m 725 693 q 637 785 690 753 q 498 818 584 818 q 391 799 439 818 q 310 739 343 781 q 258 629 276 696 q 240 464 240 562 q 255 314 240 378 q 301 207 269 250 q 382 142 332 164 q 501 121 431 121 q 598 132 553 121 q 690 164 644 143 l 690 349 l 485 349 l 485 490 l 848 490 l 848 81 q 691 7 777 35 q 504 -20 606 -20 q 180 101 284 -20 q 77 464 77 221 q 101 675 77 583 q 178 830 126 768 q 310 926 230 893 q 498 958 389 958 q 629 944 572 958 q 729 907 686 930 q 801 852 771 883 q 850 786 830 821 l 725 693 m 730 1244 q 715 1167 730 1204 q 671 1102 701 1131 q 598 1056 642 1074 q 494 1039 554 1039 q 394 1056 437 1039 q 321 1102 351 1074 q 277 1167 292 1131 q 262 1244 262 1204 l 370 1244 q 411 1186 379 1206 q 494 1166 444 1166 q 583 1186 552 1166 q 623 1244 613 1206 l 730 1244 z "},"ğ":{"ha":810,"x_min":71,"x_max":703,"o":"m 703 14 q 684 -111 703 -58 q 624 -198 665 -163 q 519 -251 583 -233 q 367 -268 456 -268 q 217 -251 285 -268 q 97 -204 150 -235 l 144 -86 q 246 -127 191 -111 q 367 -143 301 -143 q 454 -134 418 -143 q 513 -107 490 -125 q 546 -58 536 -88 q 557 14 557 -28 l 557 85 q 463 24 517 48 q 345 0 410 0 q 221 27 273 0 q 136 102 170 54 q 86 216 102 150 q 71 363 71 283 q 86 500 71 433 q 137 618 102 566 q 228 701 172 669 q 364 732 284 732 q 473 709 420 732 q 567 648 526 686 l 578 711 l 703 711 l 703 14 m 557 532 q 477 584 519 564 q 387 603 435 603 q 316 585 347 603 q 264 535 286 567 q 232 460 243 504 q 221 366 221 417 q 230 268 221 312 q 257 194 239 224 q 306 146 276 163 q 376 129 335 129 q 469 151 423 129 q 557 210 515 172 l 557 532 m 624 1017 q 609 940 624 977 q 566 874 595 903 q 492 828 536 846 q 389 811 448 811 q 288 828 332 811 q 216 874 245 846 q 172 940 186 903 q 157 1017 157 977 l 264 1017 q 306 959 273 979 q 389 939 338 939 q 477 959 446 939 q 517 1017 507 979 l 624 1017 z "},"Ġ":{"ha":951,"x_min":77,"x_max":850,"o":"m 725 693 q 637 785 690 753 q 498 818 584 818 q 391 799 439 818 q 310 739 343 781 q 258 629 276 696 q 240 464 240 562 q 255 314 240 378 q 301 207 269 250 q 382 142 332 164 q 501 121 431 121 q 598 132 553 121 q 690 164 644 143 l 690 349 l 485 349 l 485 490 l 848 490 l 848 81 q 691 7 777 35 q 504 -20 606 -20 q 180 101 284 -20 q 77 464 77 221 q 101 675 77 583 q 178 830 126 768 q 310 926 230 893 q 498 958 389 958 q 629 944 572 958 q 729 907 686 930 q 801 852 771 883 q 850 786 830 821 l 725 693 m 575 1129 q 554 1064 575 1082 q 486 1046 533 1046 q 443 1051 460 1046 q 417 1067 427 1057 q 404 1094 408 1078 q 399 1129 399 1109 q 418 1192 399 1172 q 486 1213 437 1213 q 555 1193 535 1213 q 575 1129 575 1173 z "},"ġ":{"ha":810,"x_min":71,"x_max":703,"o":"m 703 14 q 684 -111 703 -58 q 624 -198 665 -163 q 519 -251 583 -233 q 367 -268 456 -268 q 217 -251 285 -268 q 97 -204 150 -235 l 144 -86 q 246 -127 191 -111 q 367 -143 301 -143 q 454 -134 418 -143 q 513 -107 490 -125 q 546 -58 536 -88 q 557 14 557 -28 l 557 85 q 463 24 517 48 q 345 0 410 0 q 221 27 273 0 q 136 102 170 54 q 86 216 102 150 q 71 363 71 283 q 86 500 71 433 q 137 618 102 566 q 228 701 172 669 q 364 732 284 732 q 473 709 420 732 q 567 648 526 686 l 578 711 l 703 711 l 703 14 m 557 532 q 477 584 519 564 q 387 603 435 603 q 316 585 347 603 q 264 535 286 567 q 232 460 243 504 q 221 366 221 417 q 230 268 221 312 q 257 194 239 224 q 306 146 276 163 q 376 129 335 129 q 469 151 423 129 q 557 210 515 172 l 557 532 m 473 901 q 452 836 473 854 q 383 818 431 818 q 341 823 357 818 q 315 840 324 829 q 301 866 305 850 q 297 901 297 882 q 316 964 297 944 q 383 985 335 985 q 453 965 433 985 q 473 901 473 945 z "},"Ģ":{"ha":951,"x_min":77,"x_max":850,"o":"m 725 693 q 637 785 690 753 q 498 818 584 818 q 391 799 439 818 q 310 739 343 781 q 258 629 276 696 q 240 464 240 562 q 255 314 240 378 q 301 207 269 250 q 382 142 332 164 q 501 121 431 121 q 598 132 553 121 q 690 164 644 143 l 690 349 l 485 349 l 485 490 l 848 490 l 848 81 q 691 7 777 35 q 504 -20 606 -20 q 180 101 284 -20 q 77 464 77 221 q 101 675 77 583 q 178 830 126 768 q 310 926 230 893 q 498 958 389 958 q 629 944 572 958 q 729 907 686 930 q 801 852 771 883 q 850 786 830 821 l 725 693 m 443 -371 q 483 -312 468 -339 q 498 -257 497 -284 q 437 -234 456 -256 q 418 -167 418 -213 q 422 -128 418 -145 q 439 -99 427 -111 q 469 -80 450 -87 q 515 -74 488 -74 q 589 -101 566 -74 q 611 -179 611 -129 q 589 -286 611 -239 q 534 -371 567 -332 l 443 -371 z "},"ģ":{"ha":810,"x_min":71,"x_max":703,"o":"m 703 14 q 684 -111 703 -58 q 624 -198 665 -163 q 519 -251 583 -233 q 367 -268 456 -268 q 217 -251 285 -268 q 97 -204 150 -235 l 144 -86 q 246 -127 191 -111 q 367 -143 301 -143 q 454 -134 418 -143 q 513 -107 490 -125 q 546 -58 536 -88 q 557 14 557 -28 l 557 85 q 463 24 517 48 q 345 0 410 0 q 221 27 273 0 q 136 102 170 54 q 86 216 102 150 q 71 363 71 283 q 86 500 71 433 q 137 618 102 566 q 228 701 172 669 q 364 732 284 732 q 473 709 420 732 q 567 648 526 686 l 578 711 l 703 711 l 703 14 m 557 532 q 477 584 519 564 q 387 603 435 603 q 316 585 347 603 q 264 535 286 567 q 232 460 243 504 q 221 366 221 417 q 230 268 221 312 q 257 194 239 224 q 306 146 276 163 q 376 129 335 129 q 469 151 423 129 q 557 210 515 172 l 557 532 m 456 1088 q 415 1027 430 1055 q 399 974 400 1000 q 460 951 441 972 q 479 884 479 930 q 475 845 479 862 q 459 815 470 827 q 430 797 448 803 q 384 790 411 790 q 309 818 331 790 q 286 896 286 845 q 308 1002 286 956 q 364 1088 330 1048 l 456 1088 z "},"Ĥ":{"ha":940,"x_min":113,"x_max":828,"o":"m 669 0 l 669 414 l 271 414 l 271 0 l 113 0 l 113 939 l 271 939 l 271 558 l 669 558 l 669 939 l 828 939 l 828 0 l 669 0 m 585 1047 l 473 1186 l 360 1047 l 239 1047 l 396 1292 l 550 1292 l 707 1047 l 585 1047 z "},"ĥ":{"ha":807,"x_min":107,"x_max":705,"o":"m 559 0 l 559 406 q 556 496 559 459 q 541 556 552 533 q 509 589 530 578 q 456 599 489 599 q 408 590 433 599 q 356 566 382 581 q 304 531 330 551 q 253 489 277 511 l 253 0 l 107 0 l 107 1010 l 253 1010 l 253 612 q 304 657 276 635 q 365 695 333 679 q 430 722 396 712 q 497 732 463 732 q 596 715 556 732 q 660 665 636 698 q 695 584 684 632 q 705 475 705 536 l 705 0 l 559 0 m 540 1047 l 429 1186 l 315 1047 l 194 1047 l 351 1292 l 505 1292 l 663 1047 l 540 1047 z "},"Ħ":{"ha":940,"x_min":14,"x_max":926,"o":"m 669 0 l 669 414 l 271 414 l 271 0 l 113 0 l 113 682 l 14 682 l 14 800 l 113 800 l 113 939 l 271 939 l 271 800 l 669 800 l 669 939 l 828 939 l 828 800 l 926 800 l 926 682 l 828 682 l 828 0 l 669 0 m 669 558 l 669 682 l 271 682 l 271 558 l 669 558 z "},"ħ":{"ha":807,"x_min":1,"x_max":705,"o":"m 559 0 l 559 406 q 556 496 559 459 q 541 556 552 533 q 509 589 530 578 q 456 599 489 599 q 408 590 433 599 q 356 566 382 581 q 304 531 330 551 q 253 489 277 511 l 253 0 l 107 0 l 107 811 l 1 811 l 1 921 l 107 921 l 107 1010 l 253 1010 l 253 921 l 436 921 l 436 811 l 253 811 l 253 612 q 304 657 276 635 q 365 695 333 679 q 430 722 396 712 q 497 732 463 732 q 596 715 556 732 q 660 665 636 698 q 695 584 684 632 q 705 475 705 536 l 705 0 l 559 0 z "},"Ĩ":{"ha":557,"x_min":14,"x_max":547,"o":"m 488 0 l 69 0 l 69 127 l 199 127 l 199 811 l 69 811 l 69 939 l 488 939 l 488 811 l 357 811 l 357 127 l 488 127 l 488 0 m 14 1059 q 27 1137 16 1101 q 58 1200 37 1173 q 109 1241 78 1226 q 181 1256 139 1256 q 229 1249 208 1256 q 268 1231 250 1242 q 301 1208 286 1220 q 330 1185 316 1196 q 358 1167 345 1174 q 388 1160 372 1160 q 414 1168 404 1160 q 431 1189 425 1176 q 439 1217 437 1202 q 444 1246 442 1232 l 547 1246 q 533 1167 543 1204 q 503 1105 523 1131 q 452 1063 483 1078 q 378 1048 422 1048 q 326 1056 349 1048 q 287 1074 304 1063 q 256 1098 269 1085 q 229 1122 242 1111 q 203 1140 216 1133 q 173 1147 189 1147 q 145 1139 155 1147 q 128 1119 134 1131 q 120 1090 122 1106 q 117 1059 118 1074 l 14 1059 z "},"ĩ":{"ha":359,"x_min":-87,"x_max":446,"o":"m 107 0 l 107 711 l 253 711 l 253 0 l 107 0 m -87 831 q -74 909 -85 873 q -43 972 -64 945 q 7 1013 -23 998 q 80 1028 38 1028 q 128 1021 106 1028 q 167 1003 149 1014 q 200 980 184 992 q 229 957 215 968 q 257 939 243 946 q 287 932 271 932 q 313 940 303 932 q 330 961 323 948 q 338 989 336 974 q 342 1018 341 1004 l 446 1018 q 432 940 442 976 q 402 877 422 903 q 351 836 382 850 q 277 821 321 821 q 225 828 248 821 q 185 846 203 836 q 155 870 168 857 q 128 894 141 883 q 102 912 115 905 q 72 920 88 920 q 44 911 54 920 q 27 891 33 903 q 19 862 21 878 q 16 831 17 846 l -87 831 z "},"Ī":{"ha":557,"x_min":63,"x_max":498,"o":"m 488 0 l 69 0 l 69 127 l 199 127 l 199 811 l 69 811 l 69 939 l 488 939 l 488 811 l 357 811 l 357 127 l 488 127 l 488 0 m 63 1079 l 63 1189 l 498 1189 l 498 1079 l 63 1079 z "},"ī":{"ha":359,"x_min":-38,"x_max":397,"o":"m 107 0 l 107 711 l 253 711 l 253 0 l 107 0 m -38 851 l -38 961 l 397 961 l 397 851 l -38 851 z "},"Ĭ":{"ha":557,"x_min":46,"x_max":513,"o":"m 488 0 l 69 0 l 69 127 l 199 127 l 199 811 l 69 811 l 69 939 l 488 939 l 488 811 l 357 811 l 357 127 l 488 127 l 488 0 m 513 1244 q 499 1167 513 1204 q 455 1102 484 1131 q 382 1056 426 1074 q 278 1039 338 1039 q 178 1056 221 1039 q 105 1102 134 1074 q 61 1167 76 1131 q 46 1244 46 1204 l 153 1244 q 195 1186 163 1206 q 278 1166 227 1166 q 366 1186 336 1166 q 406 1244 397 1206 l 513 1244 z "},"ĭ":{"ha":359,"x_min":-55,"x_max":412,"o":"m 107 0 l 107 711 l 253 711 l 253 0 l 107 0 m 412 1017 q 398 940 412 977 q 354 874 383 903 q 281 828 325 846 q 177 811 237 811 q 77 828 120 811 q 4 874 33 846 q -40 940 -25 903 q -55 1017 -55 977 l 52 1017 q 94 959 62 979 q 177 939 126 939 q 265 959 235 939 q 305 1017 296 979 l 412 1017 z "},"Į":{"ha":557,"x_min":69,"x_max":488,"o":"m 486 -224 q 414 -256 450 -245 q 338 -268 378 -268 q 281 -260 307 -268 q 237 -238 256 -253 q 208 -199 218 -222 q 197 -144 197 -176 q 223 -63 197 -98 q 294 0 250 -27 l 69 0 l 69 127 l 199 127 l 199 811 l 69 811 l 69 939 l 488 939 l 488 811 l 357 811 l 357 127 l 488 127 l 488 0 q 404 -26 437 -13 q 351 -54 370 -40 q 323 -82 331 -68 q 315 -111 315 -96 q 328 -145 315 -134 q 359 -157 340 -157 q 397 -151 377 -157 q 436 -134 417 -145 l 486 -224 z "},"į":{"ha":359,"x_min":-9,"x_max":279,"o":"m 253 0 q 184 -24 212 -10 q 140 -53 157 -38 q 116 -83 123 -68 q 109 -111 109 -98 q 121 -145 109 -134 q 153 -157 133 -157 q 190 -151 170 -157 q 229 -134 210 -145 l 279 -224 q 208 -256 243 -245 q 131 -268 172 -268 q 75 -260 100 -268 q 30 -238 49 -253 q 1 -199 12 -222 q -9 -144 -9 -176 q 23 -54 -9 -94 q 107 11 56 -15 l 107 711 l 253 711 l 253 0 m 267 899 q 245 837 267 854 q 179 819 224 819 q 112 840 130 819 q 93 899 93 860 q 113 959 93 941 q 179 978 132 978 q 246 960 226 978 q 267 899 267 941 z "},"İ":{"ha":557,"x_min":69,"x_max":488,"o":"m 488 0 l 69 0 l 69 127 l 199 127 l 199 811 l 69 811 l 69 939 l 488 939 l 488 811 l 357 811 l 357 127 l 488 127 l 488 0 m 366 1129 q 345 1064 366 1082 q 277 1046 324 1046 q 234 1051 251 1046 q 208 1067 218 1057 q 195 1094 199 1078 q 191 1129 191 1109 q 210 1192 191 1172 q 277 1213 229 1213 q 346 1193 326 1213 q 366 1129 366 1173 z "},"ı":{"ha":359,"x_min":107,"x_max":253,"o":"m 107 0 l 107 711 l 253 711 l 253 0 l 107 0 z "},"Ĳ":{"ha":1128,"x_min":69,"x_max":1014,"o":"m 488 0 l 69 0 l 69 127 l 199 127 l 199 811 l 69 811 l 69 939 l 488 939 l 488 811 l 357 811 l 357 127 l 488 127 l 488 0 m 1014 256 q 997 132 1014 184 q 946 46 981 80 q 856 -5 911 12 q 726 -21 802 -21 q 684 -19 708 -21 q 635 -12 661 -16 q 585 0 610 -7 q 539 14 559 6 l 592 153 q 620 141 602 147 q 656 131 637 136 q 694 123 675 126 q 728 119 713 119 q 791 129 766 119 q 830 159 816 138 q 850 217 845 181 q 856 307 856 253 l 856 939 l 1014 939 l 1014 256 z "},"ĳ":{"ha":732,"x_min":93,"x_max":635,"o":"m 267 899 q 245 837 267 854 q 179 819 224 819 q 112 840 130 819 q 93 899 93 860 q 113 959 93 941 q 179 978 132 978 q 246 960 226 978 q 267 899 267 941 m 107 0 l 107 711 l 253 711 l 253 0 l 107 0 m 635 899 q 613 837 635 854 q 547 819 592 819 q 506 824 523 819 q 480 840 490 829 q 467 864 471 850 q 463 899 463 879 q 481 959 463 941 q 547 978 500 978 q 615 960 595 978 q 635 899 635 941 m 621 -31 q 609 -137 621 -92 q 570 -211 597 -182 q 499 -254 543 -240 q 393 -268 456 -268 q 364 -267 380 -268 q 329 -263 347 -265 q 290 -257 310 -260 q 254 -248 271 -253 l 288 -123 q 336 -138 311 -133 q 390 -143 361 -143 q 434 -134 418 -143 q 460 -107 451 -125 q 472 -61 469 -89 q 475 4 475 -33 l 475 711 l 621 711 l 621 -31 z "},"Ĵ":{"ha":612,"x_min":24,"x_max":654,"o":"m 498 256 q 482 132 498 184 q 430 46 465 80 q 341 -5 395 12 q 211 -21 286 -21 q 169 -19 193 -21 q 120 -12 145 -16 q 69 0 94 -7 q 24 14 44 6 l 77 153 q 104 141 87 147 q 140 131 121 136 q 179 123 159 126 q 212 119 198 119 q 276 129 251 119 q 315 159 300 138 q 335 217 330 181 q 340 307 340 253 l 340 939 l 498 939 l 498 256 m 532 1047 l 420 1186 l 307 1047 l 186 1047 l 343 1292 l 497 1292 l 654 1047 l 532 1047 z "},"ĵ":{"ha":372,"x_min":-104,"x_max":425,"o":"m 262 -31 q 251 -137 262 -92 q 212 -211 239 -182 q 141 -254 184 -240 q 35 -268 98 -268 q 6 -267 22 -268 q -30 -263 -11 -265 q -68 -257 -48 -260 q -104 -248 -87 -253 l -71 -123 q -22 -138 -47 -133 q 32 -143 3 -143 q 76 -134 60 -143 q 102 -107 93 -125 q 114 -61 111 -89 q 117 4 117 -33 l 117 711 l 262 711 l 262 -31 m 302 819 l 191 958 l 77 819 l -44 819 l 113 1064 l 267 1064 l 425 819 l 302 819 z "},"Ķ":{"ha":863,"x_min":113,"x_max":835,"o":"m 635 0 l 343 404 l 271 321 l 271 0 l 113 0 l 113 939 l 271 939 l 271 525 l 623 939 l 812 939 l 446 521 l 835 0 l 635 0 m 353 -371 q 392 -312 378 -339 q 408 -257 407 -284 q 347 -234 366 -256 q 328 -167 328 -213 q 332 -128 328 -145 q 349 -99 337 -111 q 379 -80 360 -87 q 425 -74 397 -74 q 498 -101 476 -74 q 521 -179 521 -129 q 499 -286 521 -239 q 444 -371 477 -332 l 353 -371 z "},"ķ":{"ha":728,"x_min":107,"x_max":704,"o":"m 533 0 l 325 307 l 253 228 l 253 0 l 107 0 l 107 1010 l 253 1010 l 253 406 l 517 711 l 689 711 l 414 406 l 704 0 l 533 0 m 288 -371 q 327 -312 313 -339 q 343 -257 342 -284 q 282 -234 301 -256 q 262 -167 262 -213 q 267 -128 262 -145 q 283 -99 272 -111 q 314 -80 295 -87 q 360 -74 332 -74 q 433 -101 411 -74 q 456 -179 456 -129 q 434 -286 456 -239 q 379 -371 412 -332 l 288 -371 z "},"ĸ":{"ha":728,"x_min":107,"x_max":704,"o":"m 533 0 l 325 307 l 253 228 l 253 0 l 107 0 l 107 710 l 253 710 l 253 406 l 484 673 q 528 712 503 697 q 585 726 552 726 q 625 724 600 726 q 688 711 650 721 l 652 597 q 631 603 641 601 q 612 606 621 606 q 592 600 600 606 q 576 586 585 595 l 414 406 l 704 0 l 533 0 z "},"Ĺ":{"ha":704,"x_min":113,"x_max":681,"o":"m 113 0 l 113 939 l 271 939 l 271 144 l 681 144 l 681 0 l 113 0 m 376 1047 l 258 1047 l 382 1292 l 568 1292 l 376 1047 z "},"ĺ":{"ha":366,"x_min":81,"x_max":392,"o":"m 110 0 l 110 1010 l 256 1010 l 256 0 l 110 0 m 199 1076 l 81 1076 l 206 1321 l 392 1321 l 199 1076 z "},"Ļ":{"ha":704,"x_min":113,"x_max":681,"o":"m 113 0 l 113 939 l 271 939 l 271 144 l 681 144 l 681 0 l 113 0 m 329 -371 q 369 -312 354 -339 q 385 -257 383 -284 q 323 -234 342 -256 q 304 -167 304 -213 q 309 -128 304 -145 q 325 -99 313 -111 q 355 -80 336 -87 q 401 -74 374 -74 q 475 -101 452 -74 q 497 -179 497 -129 q 475 -286 497 -239 q 420 -371 453 -332 l 329 -371 z "},"ļ":{"ha":366,"x_min":87,"x_max":280,"o":"m 110 0 l 110 1010 l 256 1010 l 256 0 l 110 0 m 112 -371 q 152 -312 137 -339 q 168 -257 166 -284 q 106 -234 125 -256 q 87 -167 87 -213 q 92 -128 87 -145 q 108 -99 96 -111 q 138 -80 119 -87 q 184 -74 157 -74 q 258 -101 235 -74 q 280 -179 280 -129 q 258 -286 280 -239 q 203 -371 236 -332 l 112 -371 z "},"Ľ":{"ha":704,"x_min":113,"x_max":681,"o":"m 113 0 l 113 939 l 271 939 l 271 144 l 681 144 l 681 0 l 113 0 m 444 695 l 349 695 l 390 940 l 554 940 l 444 695 z "},"ľ":{"ha":435,"x_min":110,"x_max":513,"o":"m 110 0 l 110 1010 l 256 1010 l 256 0 l 110 0 m 403 765 l 307 765 l 349 1010 l 513 1010 l 403 765 z "},"Ŀ":{"ha":704,"x_min":113,"x_max":681,"o":"m 113 0 l 113 939 l 271 939 l 271 144 l 681 144 l 681 0 l 113 0 m 624 512 q 603 447 624 465 q 534 429 582 429 q 492 434 509 429 q 466 450 475 439 q 452 477 456 461 q 448 512 448 492 q 467 575 448 555 q 534 595 486 595 q 604 576 584 595 q 624 512 624 556 z "},"ŀ":{"ha":525,"x_min":110,"x_max":530,"o":"m 110 0 l 110 1010 l 256 1010 l 256 0 l 110 0 m 530 512 q 509 447 530 465 q 440 429 488 429 q 398 434 414 429 q 372 450 381 439 q 358 477 362 461 q 354 512 354 492 q 373 575 354 555 q 440 595 392 595 q 510 576 490 595 q 530 512 530 556 z "},"Ł":{"ha":704,"x_min":14,"x_max":681,"o":"m 113 0 l 113 349 l 14 271 l 14 421 l 113 498 l 113 939 l 271 939 l 271 615 l 432 743 l 432 593 l 271 465 l 271 144 l 681 144 l 681 0 l 113 0 z "},"ł":{"ha":366,"x_min":14,"x_max":351,"o":"m 256 509 l 256 0 l 110 0 l 110 378 l 14 289 l 14 425 l 110 514 l 110 1010 l 256 1010 l 256 644 l 351 733 l 351 597 l 256 509 z "},"Ń":{"ha":949,"x_min":113,"x_max":836,"o":"m 648 0 l 267 737 l 267 0 l 113 0 l 113 939 l 328 939 l 682 253 l 682 939 l 836 939 l 836 0 l 648 0 m 490 1047 l 372 1047 l 497 1292 l 683 1292 l 490 1047 z "},"ń":{"ha":807,"x_min":107,"x_max":705,"o":"m 559 0 l 559 406 q 556 495 559 458 q 542 555 553 532 q 510 589 530 578 q 456 599 490 599 q 408 590 433 599 q 356 566 382 581 q 304 531 330 551 q 253 489 277 511 l 253 0 l 107 0 l 107 711 l 253 711 l 253 612 q 304 657 276 635 q 365 695 333 679 q 430 722 396 712 q 497 732 463 732 q 597 715 557 732 q 661 665 637 698 q 695 584 685 632 q 705 475 705 536 l 705 0 l 559 0 m 433 819 l 315 819 l 440 1064 l 626 1064 l 433 819 z "},"Ņ":{"ha":949,"x_min":113,"x_max":836,"o":"m 648 0 l 267 737 l 267 0 l 113 0 l 113 939 l 328 939 l 682 253 l 682 939 l 836 939 l 836 0 l 648 0 m 416 -371 q 456 -312 441 -339 q 472 -257 471 -284 q 411 -234 430 -256 q 391 -167 391 -213 q 396 -128 391 -145 q 412 -99 401 -111 q 443 -80 424 -87 q 489 -74 461 -74 q 562 -101 540 -74 q 585 -179 585 -129 q 563 -286 585 -239 q 508 -371 541 -332 l 416 -371 z "},"ņ":{"ha":807,"x_min":107,"x_max":705,"o":"m 559 0 l 559 406 q 556 495 559 458 q 542 555 553 532 q 510 589 530 578 q 456 599 490 599 q 408 590 433 599 q 356 566 382 581 q 304 531 330 551 q 253 489 277 511 l 253 0 l 107 0 l 107 711 l 253 711 l 253 612 q 304 657 276 635 q 365 695 333 679 q 430 722 396 712 q 497 732 463 732 q 597 715 557 732 q 661 665 637 698 q 695 584 685 632 q 705 475 705 536 l 705 0 l 559 0 m 326 -371 q 366 -312 351 -339 q 382 -257 380 -284 q 320 -234 340 -256 q 301 -167 301 -213 q 306 -128 301 -145 q 322 -99 311 -111 q 352 -80 334 -87 q 399 -74 371 -74 q 472 -101 450 -74 q 494 -179 494 -129 q 472 -286 494 -239 q 418 -371 450 -332 l 326 -371 z "},"Ň":{"ha":949,"x_min":113,"x_max":836,"o":"m 648 0 l 267 737 l 267 0 l 113 0 l 113 939 l 328 939 l 682 253 l 682 939 l 836 939 l 836 0 l 648 0 m 547 1047 l 393 1047 l 236 1292 l 359 1292 l 469 1152 l 583 1292 l 705 1292 l 547 1047 z "},"ň":{"ha":807,"x_min":107,"x_max":705,"o":"m 559 0 l 559 406 q 556 495 559 458 q 542 555 553 532 q 510 589 530 578 q 456 599 490 599 q 408 590 433 599 q 356 566 382 581 q 304 531 330 551 q 253 489 277 511 l 253 0 l 107 0 l 107 711 l 253 711 l 253 612 q 304 657 276 635 q 365 695 333 679 q 430 722 396 712 q 497 732 463 732 q 597 715 557 732 q 661 665 637 698 q 695 584 685 632 q 705 475 705 536 l 705 0 l 559 0 m 490 819 l 336 819 l 179 1064 l 302 1064 l 412 924 l 526 1064 l 648 1064 l 490 819 z "},"ŉ":{"ha":926,"x_min":-15,"x_max":825,"o":"m 679 0 l 679 406 q 675 495 679 458 q 661 555 672 532 q 629 589 650 578 q 575 599 609 599 q 527 590 553 599 q 476 566 502 581 q 423 531 450 551 q 372 489 397 511 l 372 0 l 227 0 l 227 711 l 372 711 l 372 612 q 424 657 395 635 q 484 695 452 679 q 549 722 515 712 q 616 732 583 732 q 716 715 676 732 q 780 665 756 698 q 814 584 804 632 q 825 475 825 536 l 825 0 l 679 0 m 178 851 q 171 771 178 810 q 152 697 163 732 q 125 633 140 662 q 95 585 110 604 l -5 585 q 26 637 14 609 q 48 692 39 666 q 61 741 57 719 q 66 775 65 763 q 4 798 23 777 q -15 865 -15 819 q -10 904 -15 887 q 6 933 -5 922 q 36 952 18 945 q 83 958 55 958 q 157 930 135 958 q 178 851 178 903 z "},"Ŋ":{"ha":949,"x_min":113,"x_max":836,"o":"m 500 -123 q 603 -143 549 -143 q 647 -135 630 -143 q 672 -110 663 -127 q 685 -65 682 -92 q 688 0 688 -38 l 267 737 l 267 0 l 113 0 l 113 939 l 328 939 l 682 290 l 682 939 l 836 939 l 836 -31 q 824 -137 836 -92 q 784 -211 811 -182 q 712 -254 756 -240 q 606 -268 669 -268 q 577 -267 593 -268 q 542 -263 560 -265 q 503 -257 523 -260 q 467 -248 484 -253 l 500 -123 z "},"ŋ":{"ha":807,"x_min":107,"x_max":705,"o":"m 107 0 l 107 711 l 253 711 l 253 612 q 304 657 276 635 q 365 695 333 679 q 430 722 396 712 q 497 732 463 732 q 597 715 557 732 q 661 665 637 698 q 695 584 685 632 q 705 475 705 536 l 705 -31 q 693 -137 705 -92 q 654 -211 682 -182 q 584 -254 627 -240 q 478 -268 541 -268 q 449 -267 466 -268 q 413 -263 432 -265 q 375 -257 394 -260 q 339 -248 355 -253 l 372 -123 q 421 -138 396 -133 q 475 -143 446 -143 q 518 -134 502 -143 q 544 -107 535 -125 q 556 -61 553 -89 q 559 4 559 -33 l 559 406 q 556 495 559 458 q 542 555 553 532 q 510 589 530 578 q 456 599 490 599 q 408 590 433 599 q 356 566 382 581 q 304 531 330 551 q 253 489 277 511 l 253 0 l 107 0 z "},"Ō":{"ha":925,"x_min":69,"x_max":856,"o":"m 856 469 q 834 263 856 354 q 764 110 812 173 q 642 14 716 47 q 463 -20 567 -20 q 284 14 358 -20 q 162 110 210 47 q 92 263 114 173 q 69 469 69 354 q 92 675 69 585 q 162 829 114 766 q 284 925 210 892 q 463 958 358 958 q 642 925 567 958 q 764 830 716 892 q 834 676 812 767 q 856 469 856 585 m 690 469 q 678 622 690 557 q 639 731 666 688 q 568 796 612 774 q 463 818 525 818 q 356 796 399 818 q 285 731 312 774 q 245 622 258 688 q 233 469 233 557 q 245 316 233 382 q 285 208 258 251 q 356 142 313 164 q 463 121 400 121 q 568 142 525 121 q 639 207 612 163 q 678 316 666 250 q 690 469 690 381 m 248 1079 l 248 1189 l 682 1189 l 682 1079 l 248 1079 z "},"ō":{"ha":796,"x_min":71,"x_max":725,"o":"m 725 354 q 706 198 725 267 q 648 80 688 129 q 547 5 608 31 q 399 -21 485 -21 q 250 5 312 -21 q 148 81 187 32 q 89 199 108 130 q 71 354 71 268 q 90 511 71 441 q 148 630 109 581 q 250 706 188 680 q 399 732 312 732 q 547 706 485 732 q 648 630 608 680 q 706 511 688 581 q 725 354 725 441 m 574 354 q 533 543 574 481 q 399 604 492 604 q 263 543 306 604 q 221 354 221 481 q 263 168 221 231 q 399 106 304 106 q 532 168 490 106 q 574 354 574 231 m 176 851 l 176 961 l 611 961 l 611 851 l 176 851 z "},"Ŏ":{"ha":925,"x_min":69,"x_max":856,"o":"m 856 469 q 834 263 856 354 q 764 110 812 173 q 642 14 716 47 q 463 -20 567 -20 q 284 14 358 -20 q 162 110 210 47 q 92 263 114 173 q 69 469 69 354 q 92 675 69 585 q 162 829 114 766 q 284 925 210 892 q 463 958 358 958 q 642 925 567 958 q 764 830 716 892 q 834 676 812 767 q 856 469 856 585 m 690 469 q 678 622 690 557 q 639 731 666 688 q 568 796 612 774 q 463 818 525 818 q 356 796 399 818 q 285 731 312 774 q 245 622 258 688 q 233 469 233 557 q 245 316 233 382 q 285 208 258 251 q 356 142 313 164 q 463 121 400 121 q 568 142 525 121 q 639 207 612 163 q 678 316 666 250 q 690 469 690 381 m 694 1244 q 680 1167 694 1204 q 636 1102 665 1131 q 563 1056 607 1074 q 459 1039 519 1039 q 359 1056 402 1039 q 286 1102 315 1074 q 242 1167 257 1131 q 227 1244 227 1204 l 334 1244 q 376 1186 344 1206 q 459 1166 408 1166 q 547 1186 517 1166 q 587 1244 578 1206 l 694 1244 z "},"ŏ":{"ha":796,"x_min":71,"x_max":725,"o":"m 725 354 q 706 198 725 267 q 648 80 688 129 q 547 5 608 31 q 399 -21 485 -21 q 250 5 312 -21 q 148 81 187 32 q 89 199 108 130 q 71 354 71 268 q 90 511 71 441 q 148 630 109 581 q 250 706 188 680 q 399 732 312 732 q 547 706 485 732 q 648 630 608 680 q 706 511 688 581 q 725 354 725 441 m 574 354 q 533 543 574 481 q 399 604 492 604 q 263 543 306 604 q 221 354 221 481 q 263 168 221 231 q 399 106 304 106 q 532 168 490 106 q 574 354 574 231 m 633 1017 q 619 940 633 977 q 575 874 604 903 q 502 828 546 846 q 398 811 458 811 q 298 828 341 811 q 225 874 254 846 q 181 940 196 903 q 166 1017 166 977 l 273 1017 q 315 959 283 979 q 398 939 347 939 q 486 959 456 939 q 526 1017 517 979 l 633 1017 z "},"Ő":{"ha":925,"x_min":69,"x_max":856,"o":"m 856 469 q 834 263 856 354 q 764 110 812 173 q 642 14 716 47 q 463 -20 567 -20 q 284 14 358 -20 q 162 110 210 47 q 92 263 114 173 q 69 469 69 354 q 92 675 69 585 q 162 829 114 766 q 284 925 210 892 q 463 958 358 958 q 642 925 567 958 q 764 830 716 892 q 834 676 812 767 q 856 469 856 585 m 690 469 q 678 622 690 557 q 639 731 666 688 q 568 796 612 774 q 463 818 525 818 q 356 796 399 818 q 285 731 312 774 q 245 622 258 688 q 233 469 233 557 q 245 316 233 382 q 285 208 258 251 q 356 142 313 164 q 463 121 400 121 q 568 142 525 121 q 639 207 612 163 q 678 316 666 250 q 690 469 690 381 m 633 1047 l 517 1047 l 641 1292 l 828 1292 l 633 1047 m 375 1047 l 257 1047 l 382 1292 l 568 1292 l 375 1047 z "},"ő":{"ha":796,"x_min":71,"x_max":765,"o":"m 725 354 q 706 198 725 267 q 648 80 688 129 q 547 5 608 31 q 399 -21 485 -21 q 250 5 312 -21 q 148 81 187 32 q 89 199 108 130 q 71 354 71 268 q 90 511 71 441 q 148 630 109 581 q 250 706 188 680 q 399 732 312 732 q 547 706 485 732 q 648 630 608 680 q 706 511 688 581 q 725 354 725 441 m 574 354 q 533 543 574 481 q 399 604 492 604 q 263 543 306 604 q 221 354 221 481 q 263 168 221 231 q 399 106 304 106 q 532 168 490 106 q 574 354 574 231 m 570 819 l 454 819 l 578 1064 l 765 1064 l 570 819 m 312 819 l 194 819 l 319 1064 l 505 1064 l 312 819 z "},"Œ":{"ha":1278,"x_min":77,"x_max":1202,"o":"m 647 0 q 571 -15 614 -9 q 486 -20 529 -20 q 300 14 378 -20 q 173 110 223 47 q 100 263 123 173 q 77 469 77 354 q 100 676 77 585 q 173 830 123 767 q 301 925 223 892 q 486 958 378 958 q 567 953 528 958 q 646 939 606 948 l 1202 939 l 1202 798 l 804 798 l 804 557 l 1140 557 l 1140 415 l 804 415 l 804 144 l 1202 144 l 1202 0 l 647 0 m 644 781 q 581 807 618 796 q 494 818 543 818 q 375 796 424 818 q 297 731 327 774 q 254 622 267 688 q 240 469 240 557 q 254 316 240 382 q 297 208 267 251 q 376 142 328 164 q 494 121 425 121 q 577 130 543 121 q 644 157 611 138 l 644 781 z "},"œ":{"ha":1253,"x_min":71,"x_max":1187,"o":"m 720 325 q 730 234 720 275 q 761 165 739 194 q 819 121 783 137 q 909 106 855 106 q 996 122 959 106 q 1065 179 1034 139 l 1178 103 q 1132 50 1158 73 q 1075 11 1107 26 q 1002 -13 1042 -5 q 911 -21 962 -21 q 821 -13 861 -21 q 748 11 781 -5 q 691 47 716 26 q 647 96 666 68 q 545 10 606 41 q 399 -21 484 -21 q 250 5 312 -21 q 148 81 187 32 q 89 199 108 130 q 71 354 71 268 q 90 511 71 441 q 148 630 109 581 q 249 706 188 680 q 395 732 310 732 q 545 700 481 732 q 647 615 610 669 q 745 700 684 669 q 897 732 806 732 q 1030 708 975 732 q 1120 641 1085 684 q 1171 536 1155 597 q 1187 401 1187 475 l 1187 325 l 720 325 m 1043 432 q 1006 567 1043 521 q 889 614 968 614 q 818 602 848 614 q 769 568 789 591 q 738 511 749 545 q 722 432 727 477 l 1043 432 m 574 351 q 568 441 574 396 q 545 523 563 486 q 492 582 526 559 q 399 604 457 604 q 263 543 306 604 q 221 354 221 481 q 263 168 221 231 q 399 106 304 106 q 489 127 455 106 q 543 184 524 149 q 568 262 562 218 q 574 351 574 307 z "},"Ŕ":{"ha":854,"x_min":113,"x_max":823,"o":"m 640 0 l 401 370 l 271 370 l 271 0 l 113 0 l 113 939 l 429 939 q 577 924 513 939 q 682 877 640 909 q 745 793 724 845 q 766 667 766 741 q 752 552 766 600 q 711 471 737 504 q 649 418 685 437 q 571 390 613 399 l 823 0 l 640 0 m 604 659 q 594 727 604 700 q 563 770 584 754 q 508 793 541 787 q 428 800 474 800 l 271 800 l 271 509 l 419 509 q 508 516 473 509 q 565 542 544 524 q 595 588 587 559 q 604 659 604 616 m 432 1047 l 314 1047 l 439 1292 l 625 1292 l 432 1047 z "},"ŕ":{"ha":559,"x_min":107,"x_max":543,"o":"m 514 568 q 486 576 503 572 q 450 579 469 579 q 394 571 420 579 q 343 549 368 563 q 297 516 319 535 q 253 476 275 497 l 253 0 l 107 0 l 107 711 l 253 711 l 253 603 q 300 649 276 627 q 352 687 325 671 q 408 713 378 703 q 469 722 437 722 q 512 719 494 722 q 543 708 530 715 l 514 568 m 316 819 l 198 819 l 323 1064 l 509 1064 l 316 819 z "},"Ŗ":{"ha":854,"x_min":113,"x_max":823,"o":"m 640 0 l 401 370 l 271 370 l 271 0 l 113 0 l 113 939 l 429 939 q 577 924 513 939 q 682 877 640 909 q 745 793 724 845 q 766 667 766 741 q 752 552 766 600 q 711 471 737 504 q 649 418 685 437 q 571 390 613 399 l 823 0 l 640 0 m 604 659 q 594 727 604 700 q 563 770 584 754 q 508 793 541 787 q 428 800 474 800 l 271 800 l 271 509 l 419 509 q 508 516 473 509 q 565 542 544 524 q 595 588 587 559 q 604 659 604 616 m 365 -371 q 405 -312 390 -339 q 420 -257 419 -284 q 359 -234 378 -256 q 340 -167 340 -213 q 345 -128 340 -145 q 361 -99 349 -111 q 391 -80 372 -87 q 437 -74 410 -74 q 511 -101 488 -74 q 533 -179 533 -129 q 511 -286 533 -239 q 456 -371 489 -332 l 365 -371 z "},"ŗ":{"ha":559,"x_min":84,"x_max":543,"o":"m 514 568 q 486 576 503 572 q 450 579 469 579 q 394 571 420 579 q 343 549 368 563 q 297 516 319 535 q 253 476 275 497 l 253 0 l 107 0 l 107 711 l 253 711 l 253 603 q 300 649 276 627 q 352 687 325 671 q 408 713 378 703 q 469 722 437 722 q 512 719 494 722 q 543 708 530 715 l 514 568 m 109 -371 q 149 -312 134 -339 q 165 -257 163 -284 q 103 -234 123 -256 q 84 -167 84 -213 q 89 -128 84 -145 q 105 -99 94 -111 q 135 -80 117 -87 q 182 -74 154 -74 q 255 -101 233 -74 q 277 -179 277 -129 q 255 -286 277 -239 q 201 -371 233 -332 l 109 -371 z "},"Ř":{"ha":854,"x_min":113,"x_max":823,"o":"m 640 0 l 401 370 l 271 370 l 271 0 l 113 0 l 113 939 l 429 939 q 577 924 513 939 q 682 877 640 909 q 745 793 724 845 q 766 667 766 741 q 752 552 766 600 q 711 471 737 504 q 649 418 685 437 q 571 390 613 399 l 823 0 l 640 0 m 604 659 q 594 727 604 700 q 563 770 584 754 q 508 793 541 787 q 428 800 474 800 l 271 800 l 271 509 l 419 509 q 508 516 473 509 q 565 542 544 524 q 595 588 587 559 q 604 659 604 616 m 496 1047 l 342 1047 l 184 1292 l 307 1292 l 418 1152 l 532 1292 l 653 1292 l 496 1047 z "},"ř":{"ha":559,"x_min":75,"x_max":544,"o":"m 514 568 q 486 576 503 572 q 450 579 469 579 q 394 571 420 579 q 343 549 368 563 q 297 516 319 535 q 253 476 275 497 l 253 0 l 107 0 l 107 711 l 253 711 l 253 603 q 300 649 276 627 q 352 687 325 671 q 408 713 378 703 q 469 722 437 722 q 512 719 494 722 q 543 708 530 715 l 514 568 m 387 819 l 233 819 l 75 1064 l 198 1064 l 309 924 l 422 1064 l 544 1064 l 387 819 z "},"Ś":{"ha":832,"x_min":54,"x_max":765,"o":"m 765 264 q 737 131 765 184 q 661 43 709 77 q 548 -5 612 9 q 412 -20 484 -20 q 279 -5 336 -20 q 180 33 222 9 q 107 90 137 58 q 54 160 77 123 l 179 250 q 217 200 196 224 q 265 159 237 177 q 329 131 292 142 q 414 121 366 121 q 484 127 450 121 q 545 150 518 134 q 587 191 571 165 q 603 253 603 216 q 588 312 603 288 q 547 352 572 336 q 486 379 521 368 q 412 400 452 390 q 279 438 340 418 q 172 487 217 457 q 100 563 126 517 q 74 681 74 609 q 96 796 74 745 q 159 883 117 847 q 264 939 201 920 q 408 958 327 958 q 520 947 469 958 q 611 915 570 936 q 685 862 652 893 q 742 790 718 830 l 619 699 q 531 788 582 758 q 407 818 480 818 q 281 785 328 818 q 235 693 235 753 q 247 643 235 663 q 286 608 260 623 q 352 582 312 593 q 446 557 391 570 q 527 535 488 547 q 603 508 567 524 q 668 472 638 493 q 719 422 698 452 q 753 354 741 393 q 765 264 765 315 m 435 1047 l 317 1047 l 441 1292 l 627 1292 l 435 1047 z "},"ś":{"ha":684,"x_min":60,"x_max":621,"o":"m 621 197 q 598 97 621 138 q 537 29 575 56 q 448 -9 498 3 q 343 -21 398 -21 q 242 -12 288 -21 q 162 15 197 -2 q 101 54 127 31 q 60 104 76 77 l 171 179 q 243 118 200 136 q 339 100 286 100 q 391 104 366 100 q 435 118 416 108 q 466 146 454 129 q 478 191 478 164 q 469 225 478 211 q 441 251 460 239 q 392 272 422 262 q 319 292 362 281 q 227 319 271 304 q 150 360 183 335 q 96 424 116 386 q 75 519 75 463 q 92 604 75 565 q 143 671 109 642 q 228 715 178 699 q 346 732 279 732 q 434 723 393 732 q 508 698 475 714 q 568 659 542 682 q 610 608 593 636 l 498 533 q 474 562 488 548 q 440 587 460 576 q 397 605 421 598 q 343 611 373 611 q 252 589 286 611 q 218 525 218 567 q 225 492 218 505 q 249 467 233 478 q 290 448 264 456 q 353 431 316 439 q 464 397 414 415 q 549 354 514 380 q 602 291 583 328 q 621 197 621 253 m 370 819 l 252 819 l 377 1064 l 563 1064 l 370 819 z "},"Ŝ":{"ha":832,"x_min":54,"x_max":765,"o":"m 765 264 q 737 131 765 184 q 661 43 709 77 q 548 -5 612 9 q 412 -20 484 -20 q 279 -5 336 -20 q 180 33 222 9 q 107 90 137 58 q 54 160 77 123 l 179 250 q 217 200 196 224 q 265 159 237 177 q 329 131 292 142 q 414 121 366 121 q 484 127 450 121 q 545 150 518 134 q 587 191 571 165 q 603 253 603 216 q 588 312 603 288 q 547 352 572 336 q 486 379 521 368 q 412 400 452 390 q 279 438 340 418 q 172 487 217 457 q 100 563 126 517 q 74 681 74 609 q 96 796 74 745 q 159 883 117 847 q 264 939 201 920 q 408 958 327 958 q 520 947 469 958 q 611 915 570 936 q 685 862 652 893 q 742 790 718 830 l 619 699 q 531 788 582 758 q 407 818 480 818 q 281 785 328 818 q 235 693 235 753 q 247 643 235 663 q 286 608 260 623 q 352 582 312 593 q 446 557 391 570 q 527 535 488 547 q 603 508 567 524 q 668 472 638 493 q 719 422 698 452 q 753 354 741 393 q 765 264 765 315 m 519 1047 l 408 1186 l 295 1047 l 174 1047 l 331 1292 l 485 1292 l 642 1047 l 519 1047 z "},"ŝ":{"ha":684,"x_min":60,"x_max":621,"o":"m 621 197 q 598 97 621 138 q 537 29 575 56 q 448 -9 498 3 q 343 -21 398 -21 q 242 -12 288 -21 q 162 15 197 -2 q 101 54 127 31 q 60 104 76 77 l 171 179 q 243 118 200 136 q 339 100 286 100 q 391 104 366 100 q 435 118 416 108 q 466 146 454 129 q 478 191 478 164 q 469 225 478 211 q 441 251 460 239 q 392 272 422 262 q 319 292 362 281 q 227 319 271 304 q 150 360 183 335 q 96 424 116 386 q 75 519 75 463 q 92 604 75 565 q 143 671 109 642 q 228 715 178 699 q 346 732 279 732 q 434 723 393 732 q 508 698 475 714 q 568 659 542 682 q 610 608 593 636 l 498 533 q 474 562 488 548 q 440 587 460 576 q 397 605 421 598 q 343 611 373 611 q 252 589 286 611 q 218 525 218 567 q 225 492 218 505 q 249 467 233 478 q 290 448 264 456 q 353 431 316 439 q 464 397 414 415 q 549 354 514 380 q 602 291 583 328 q 621 197 621 253 m 457 819 l 346 958 l 233 819 l 111 819 l 269 1064 l 422 1064 l 580 819 l 457 819 z "},"Ş":{"ha":832,"x_min":54,"x_max":765,"o":"m 579 -143 q 532 -235 579 -203 q 395 -268 486 -268 q 338 -265 365 -268 q 289 -257 311 -262 q 251 -248 267 -253 q 224 -237 234 -242 l 265 -154 q 293 -163 277 -159 q 327 -172 309 -168 q 361 -178 344 -176 q 396 -180 379 -180 q 451 -171 433 -180 q 469 -138 469 -161 q 459 -112 469 -123 q 432 -95 449 -102 q 394 -85 416 -88 q 349 -81 372 -82 l 379 -18 q 260 0 311 -15 q 170 39 209 15 q 103 94 131 63 q 54 160 75 125 l 179 250 q 217 200 196 224 q 265 159 237 177 q 329 131 292 142 q 414 121 366 121 q 484 127 450 121 q 545 150 518 134 q 587 191 571 165 q 603 253 603 216 q 588 312 603 288 q 547 352 572 336 q 486 379 521 368 q 412 400 452 390 q 279 438 340 418 q 172 487 217 457 q 100 563 126 517 q 74 681 74 609 q 96 796 74 745 q 159 883 117 847 q 264 939 201 920 q 408 958 327 958 q 520 947 469 958 q 611 915 570 936 q 685 862 652 893 q 742 790 718 830 l 619 699 q 531 788 582 758 q 407 818 480 818 q 281 785 328 818 q 235 693 235 753 q 247 643 235 663 q 286 608 260 623 q 352 582 312 593 q 446 557 391 570 q 527 535 488 547 q 603 508 567 524 q 668 472 638 493 q 719 422 698 452 q 753 354 741 393 q 765 264 765 315 q 743 143 765 193 q 681 59 720 93 q 589 7 642 26 q 475 -17 536 -11 l 473 -20 q 552 -64 524 -32 q 579 -143 579 -97 z "},"ş":{"ha":684,"x_min":60,"x_max":621,"o":"m 511 -143 q 464 -235 511 -203 q 326 -268 417 -268 q 270 -265 296 -268 q 221 -257 243 -262 q 182 -248 199 -253 q 155 -237 165 -242 l 197 -154 q 225 -163 210 -159 q 258 -172 241 -168 q 293 -178 275 -176 q 328 -180 311 -180 q 384 -171 366 -180 q 401 -138 401 -161 q 391 -112 401 -123 q 365 -95 381 -102 q 326 -85 348 -88 q 281 -81 304 -82 l 311 -20 q 222 -7 262 -18 q 151 20 182 3 q 97 58 120 36 q 60 104 75 79 l 171 179 q 243 118 200 136 q 339 100 286 100 q 391 104 366 100 q 435 118 416 108 q 466 146 454 129 q 478 191 478 164 q 469 225 478 211 q 441 251 460 239 q 392 272 422 262 q 319 292 362 281 q 227 319 271 304 q 150 360 183 335 q 96 424 116 386 q 75 519 75 463 q 92 604 75 565 q 143 671 109 642 q 228 715 178 699 q 346 732 279 732 q 434 723 393 732 q 508 698 475 714 q 568 659 542 682 q 610 608 593 636 l 498 533 q 474 562 488 548 q 440 587 460 576 q 397 605 421 598 q 343 611 373 611 q 252 589 286 611 q 218 525 218 567 q 225 492 218 505 q 249 467 233 478 q 290 448 264 456 q 353 431 316 439 q 464 397 414 415 q 549 354 514 380 q 602 291 583 328 q 621 197 621 253 q 604 110 621 147 q 558 46 587 73 q 491 5 530 20 q 407 -17 452 -11 l 406 -20 q 484 -64 456 -32 q 511 -143 511 -97 z "},"Š":{"ha":832,"x_min":54,"x_max":765,"o":"m 765 264 q 737 131 765 184 q 661 43 709 77 q 548 -5 612 9 q 412 -20 484 -20 q 279 -5 336 -20 q 180 33 222 9 q 107 90 137 58 q 54 160 77 123 l 179 250 q 217 200 196 224 q 265 159 237 177 q 329 131 292 142 q 414 121 366 121 q 484 127 450 121 q 545 150 518 134 q 587 191 571 165 q 603 253 603 216 q 588 312 603 288 q 547 352 572 336 q 486 379 521 368 q 412 400 452 390 q 279 438 340 418 q 172 487 217 457 q 100 563 126 517 q 74 681 74 609 q 96 796 74 745 q 159 883 117 847 q 264 939 201 920 q 408 958 327 958 q 520 947 469 958 q 611 915 570 936 q 685 862 652 893 q 742 790 718 830 l 619 699 q 531 788 582 758 q 407 818 480 818 q 281 785 328 818 q 235 693 235 753 q 247 643 235 663 q 286 608 260 623 q 352 582 312 593 q 446 557 391 570 q 527 535 488 547 q 603 508 567 524 q 668 472 638 493 q 719 422 698 452 q 753 354 741 393 q 765 264 765 315 m 477 1047 l 323 1047 l 166 1292 l 289 1292 l 399 1152 l 513 1292 l 635 1292 l 477 1047 z "},"š":{"ha":684,"x_min":60,"x_max":621,"o":"m 621 197 q 598 97 621 138 q 537 29 575 56 q 448 -9 498 3 q 343 -21 398 -21 q 242 -12 288 -21 q 162 15 197 -2 q 101 54 127 31 q 60 104 76 77 l 171 179 q 243 118 200 136 q 339 100 286 100 q 391 104 366 100 q 435 118 416 108 q 466 146 454 129 q 478 191 478 164 q 469 225 478 211 q 441 251 460 239 q 392 272 422 262 q 319 292 362 281 q 227 319 271 304 q 150 360 183 335 q 96 424 116 386 q 75 519 75 463 q 92 604 75 565 q 143 671 109 642 q 228 715 178 699 q 346 732 279 732 q 434 723 393 732 q 508 698 475 714 q 568 659 542 682 q 610 608 593 636 l 498 533 q 474 562 488 548 q 440 587 460 576 q 397 605 421 598 q 343 611 373 611 q 252 589 286 611 q 218 525 218 567 q 225 492 218 505 q 249 467 233 478 q 290 448 264 456 q 353 431 316 439 q 464 397 414 415 q 549 354 514 380 q 602 291 583 328 q 621 197 621 253 m 413 819 l 259 819 l 102 1064 l 224 1064 l 335 924 l 449 1064 l 570 1064 l 413 819 z "},"Ţ":{"ha":810,"x_min":25,"x_max":783,"o":"m 562 -143 q 516 -235 562 -203 q 379 -268 470 -268 q 322 -265 349 -268 q 273 -257 295 -262 q 234 -248 251 -253 q 208 -237 218 -242 l 249 -154 q 278 -163 262 -159 q 311 -172 294 -168 q 345 -178 328 -176 q 379 -180 363 -180 q 435 -171 417 -180 q 453 -138 453 -161 q 443 -112 453 -123 q 416 -94 433 -101 q 377 -84 399 -87 q 332 -79 355 -81 l 372 0 l 325 0 l 325 794 l 25 794 l 25 939 l 783 939 l 783 794 l 484 794 l 484 0 l 467 0 l 458 -18 q 535 -64 507 -31 q 562 -143 562 -97 z "},"ţ":{"ha":497,"x_min":26,"x_max":481,"o":"m 460 -143 q 413 -235 460 -203 q 275 -268 366 -268 q 219 -265 245 -268 q 170 -257 192 -262 q 131 -248 148 -253 q 104 -237 115 -242 l 146 -154 q 174 -163 158 -159 q 207 -172 190 -168 q 242 -178 224 -176 q 277 -180 260 -180 q 332 -171 314 -180 q 350 -138 350 -161 q 340 -112 350 -123 q 313 -94 330 -101 q 274 -83 296 -87 q 229 -78 252 -79 l 262 -12 q 155 59 189 3 q 122 215 122 115 l 122 593 l 26 593 l 26 711 l 122 711 l 122 909 l 268 909 l 268 711 l 440 711 l 440 593 l 268 593 l 268 237 q 272 173 268 199 q 287 131 277 147 q 314 107 297 115 q 354 100 330 100 q 404 105 378 100 q 450 119 431 111 l 481 0 q 425 -13 454 -7 q 364 -20 395 -18 q 434 -66 409 -34 q 460 -143 460 -99 z "},"Ť":{"ha":810,"x_min":25,"x_max":783,"o":"m 484 794 l 484 0 l 325 0 l 325 794 l 25 794 l 25 939 l 783 939 l 783 794 l 484 794 m 482 1047 l 328 1047 l 171 1292 l 294 1292 l 404 1152 l 518 1292 l 640 1292 l 482 1047 z "},"ť":{"ha":497,"x_min":26,"x_max":541,"o":"m 431 765 l 335 765 l 376 1010 l 541 1010 l 431 765 m 481 0 q 412 -15 450 -9 q 339 -21 374 -21 q 240 -7 281 -21 q 173 36 199 7 q 134 109 146 64 q 122 215 122 154 l 122 593 l 26 593 l 26 711 l 122 711 l 122 909 l 268 909 l 268 711 l 440 711 l 440 593 l 268 593 l 268 237 q 272 173 268 199 q 287 131 277 147 q 314 107 297 115 q 354 100 330 100 q 404 105 378 100 q 450 119 431 111 l 481 0 z "},"Ŧ":{"ha":810,"x_min":25,"x_max":783,"o":"m 484 794 l 484 562 l 623 562 l 623 453 l 484 453 l 484 0 l 325 0 l 325 453 l 187 453 l 187 562 l 325 562 l 325 794 l 25 794 l 25 939 l 783 939 l 783 794 l 484 794 z "},"ŧ":{"ha":497,"x_min":14,"x_max":481,"o":"m 268 378 l 268 237 q 272 173 268 199 q 287 131 277 147 q 314 107 297 115 q 354 100 330 100 q 404 105 378 100 q 450 119 431 111 l 481 0 q 412 -15 450 -9 q 339 -21 374 -21 q 240 -7 281 -21 q 173 36 199 7 q 134 109 146 64 q 122 215 122 154 l 122 378 l 14 378 l 14 488 l 122 488 l 122 593 l 26 593 l 26 711 l 122 711 l 122 909 l 268 909 l 268 711 l 440 711 l 440 593 l 268 593 l 268 488 l 449 488 l 449 378 l 268 378 z "},"Ũ":{"ha":964,"x_min":113,"x_max":851,"o":"m 851 392 q 830 199 851 278 q 765 72 810 121 q 651 1 721 23 q 482 -21 581 -21 q 313 1 383 -21 q 198 72 243 23 q 133 200 154 121 q 113 392 113 279 l 113 939 l 271 939 l 271 406 q 282 270 271 324 q 318 181 293 215 q 383 134 343 148 q 481 119 423 119 q 579 134 539 119 q 645 182 620 149 q 682 269 671 215 q 693 403 693 323 l 693 939 l 851 939 l 851 392 m 219 1059 q 232 1137 221 1101 q 262 1200 242 1173 q 313 1241 283 1226 q 386 1256 344 1256 q 434 1249 412 1256 q 473 1231 455 1242 q 506 1208 490 1220 q 535 1185 521 1196 q 563 1167 549 1174 q 593 1160 577 1160 q 619 1168 609 1160 q 635 1189 629 1176 q 644 1217 642 1202 q 648 1246 647 1232 l 751 1246 q 738 1167 748 1204 q 708 1105 728 1131 q 657 1063 688 1078 q 583 1048 627 1048 q 531 1056 553 1048 q 491 1074 509 1063 q 460 1098 474 1085 q 434 1122 447 1111 q 408 1140 421 1133 q 378 1147 394 1147 q 350 1139 360 1147 q 333 1119 339 1131 q 325 1090 327 1106 q 322 1059 323 1074 l 219 1059 z "},"ũ":{"ha":807,"x_min":102,"x_max":700,"o":"m 554 0 l 554 98 q 502 53 530 75 q 443 15 474 31 q 377 -11 411 -1 q 310 -21 344 -21 q 210 -4 250 -21 q 146 46 170 13 q 112 126 122 79 q 102 236 102 174 l 102 711 l 248 711 l 248 306 q 251 215 248 252 q 265 156 254 178 q 296 123 276 133 q 350 113 317 113 q 398 121 372 113 q 450 145 423 130 q 503 180 477 160 q 554 222 530 200 l 554 711 l 700 711 l 700 0 l 554 0 m 140 831 q 153 909 142 873 q 184 972 163 945 q 235 1013 204 998 q 307 1028 265 1028 q 355 1021 334 1028 q 394 1003 376 1014 q 427 980 412 992 q 456 957 442 968 q 485 939 471 946 q 514 932 498 932 q 541 940 530 932 q 557 961 551 948 q 566 989 563 974 q 570 1018 568 1004 l 673 1018 q 659 940 669 976 q 629 877 649 903 q 578 836 609 850 q 505 821 548 821 q 452 828 475 821 q 413 846 430 836 q 382 870 395 857 q 355 894 368 883 q 329 912 342 905 q 299 920 315 920 q 271 911 281 920 q 254 891 260 903 q 246 862 248 878 q 243 831 244 846 l 140 831 z "},"Ū":{"ha":964,"x_min":113,"x_max":851,"o":"m 851 392 q 830 199 851 278 q 765 72 810 121 q 651 1 721 23 q 482 -21 581 -21 q 313 1 383 -21 q 198 72 243 23 q 133 200 154 121 q 113 392 113 279 l 113 939 l 271 939 l 271 406 q 282 270 271 324 q 318 181 293 215 q 383 134 343 148 q 481 119 423 119 q 579 134 539 119 q 645 182 620 149 q 682 269 671 215 q 693 403 693 323 l 693 939 l 851 939 l 851 392 m 268 1079 l 268 1189 l 703 1189 l 703 1079 l 268 1079 z "},"ū":{"ha":807,"x_min":102,"x_max":700,"o":"m 554 0 l 554 98 q 502 53 530 75 q 443 15 474 31 q 377 -11 411 -1 q 310 -21 344 -21 q 210 -4 250 -21 q 146 46 170 13 q 112 126 122 79 q 102 236 102 174 l 102 711 l 248 711 l 248 306 q 251 215 248 252 q 265 156 254 178 q 296 123 276 133 q 350 113 317 113 q 398 121 372 113 q 450 145 423 130 q 503 180 477 160 q 554 222 530 200 l 554 711 l 700 711 l 700 0 l 554 0 m 183 851 l 183 961 l 618 961 l 618 851 l 183 851 z "},"Ŭ":{"ha":964,"x_min":113,"x_max":851,"o":"m 851 392 q 830 199 851 278 q 765 72 810 121 q 651 1 721 23 q 482 -21 581 -21 q 313 1 383 -21 q 198 72 243 23 q 133 200 154 121 q 113 392 113 279 l 113 939 l 271 939 l 271 406 q 282 270 271 324 q 318 181 293 215 q 383 134 343 148 q 481 119 423 119 q 579 134 539 119 q 645 182 620 149 q 682 269 671 215 q 693 403 693 323 l 693 939 l 851 939 l 851 392 m 721 1244 q 706 1167 721 1204 q 663 1102 692 1131 q 589 1056 633 1074 q 486 1039 545 1039 q 385 1056 429 1039 q 313 1102 342 1074 q 269 1167 283 1131 q 254 1244 254 1204 l 361 1244 q 402 1186 370 1206 q 486 1166 435 1166 q 574 1186 543 1166 q 614 1244 604 1206 l 721 1244 z "},"ŭ":{"ha":807,"x_min":102,"x_max":700,"o":"m 554 0 l 554 98 q 502 53 530 75 q 443 15 474 31 q 377 -11 411 -1 q 310 -21 344 -21 q 210 -4 250 -21 q 146 46 170 13 q 112 126 122 79 q 102 236 102 174 l 102 711 l 248 711 l 248 306 q 251 215 248 252 q 265 156 254 178 q 296 123 276 133 q 350 113 317 113 q 398 121 372 113 q 450 145 423 130 q 503 180 477 160 q 554 222 530 200 l 554 711 l 700 711 l 700 0 l 554 0 m 635 1017 q 620 940 635 977 q 576 874 606 903 q 503 828 547 846 q 399 811 459 811 q 299 828 342 811 q 227 874 256 846 q 182 940 197 903 q 168 1017 168 977 l 275 1017 q 316 959 284 979 q 399 939 349 939 q 488 959 457 939 q 528 1017 518 979 l 635 1017 z "},"Ů":{"ha":964,"x_min":113,"x_max":851,"o":"m 851 392 q 830 199 851 278 q 765 72 810 121 q 651 1 721 23 q 482 -21 581 -21 q 313 1 383 -21 q 198 72 243 23 q 133 200 154 121 q 113 392 113 279 l 113 939 l 271 939 l 271 406 q 282 270 271 324 q 318 181 293 215 q 383 134 343 148 q 481 119 423 119 q 579 134 539 119 q 645 182 620 149 q 682 269 671 215 q 693 403 693 323 l 693 939 l 851 939 l 851 392 m 629 1156 q 592 1050 629 1088 q 483 1013 555 1013 q 418 1023 446 1013 q 373 1052 391 1033 q 347 1097 355 1071 q 338 1156 338 1123 q 374 1260 338 1221 q 483 1299 410 1299 q 593 1260 558 1299 q 629 1156 629 1221 m 546 1156 q 530 1204 546 1188 q 483 1219 513 1219 q 436 1203 452 1219 q 420 1156 420 1186 q 435 1108 420 1126 q 483 1090 450 1090 q 531 1107 517 1090 q 546 1156 546 1124 z "},"ů":{"ha":807,"x_min":102,"x_max":700,"o":"m 554 0 l 554 98 q 502 53 530 75 q 443 15 474 31 q 377 -11 411 -1 q 310 -21 344 -21 q 210 -4 250 -21 q 146 46 170 13 q 112 126 122 79 q 102 236 102 174 l 102 711 l 248 711 l 248 306 q 251 215 248 252 q 265 156 254 178 q 296 123 276 133 q 350 113 317 113 q 398 121 372 113 q 450 145 423 130 q 503 180 477 160 q 554 222 530 200 l 554 711 l 700 711 l 700 0 l 554 0 m 533 928 q 496 822 533 860 q 387 785 460 785 q 323 795 350 785 q 278 824 296 805 q 251 869 260 843 q 243 928 243 895 q 278 1032 243 994 q 387 1071 314 1071 q 498 1032 463 1071 q 533 928 533 994 m 450 928 q 434 976 450 960 q 387 991 418 991 q 341 975 357 991 q 325 928 325 958 q 339 881 325 899 q 387 863 354 863 q 436 880 421 863 q 450 928 450 897 z "},"Ű":{"ha":964,"x_min":113,"x_max":851,"o":"m 851 392 q 830 199 851 278 q 765 72 810 121 q 651 1 721 23 q 482 -21 581 -21 q 313 1 383 -21 q 198 72 243 23 q 133 200 154 121 q 113 392 113 279 l 113 939 l 271 939 l 271 406 q 282 270 271 324 q 318 181 293 215 q 383 134 343 148 q 481 119 423 119 q 579 134 539 119 q 645 182 620 149 q 682 269 671 215 q 693 403 693 323 l 693 939 l 851 939 l 851 392 m 654 1047 l 537 1047 l 661 1292 l 848 1292 l 654 1047 m 395 1047 l 277 1047 l 403 1292 l 589 1292 l 395 1047 z "},"ű":{"ha":807,"x_min":102,"x_max":774,"o":"m 554 0 l 554 98 q 502 53 530 75 q 443 15 474 31 q 377 -11 411 -1 q 310 -21 344 -21 q 210 -4 250 -21 q 146 46 170 13 q 112 126 122 79 q 102 236 102 174 l 102 711 l 248 711 l 248 306 q 251 215 248 252 q 265 156 254 178 q 296 123 276 133 q 350 113 317 113 q 398 121 372 113 q 450 145 423 130 q 503 180 477 160 q 554 222 530 200 l 554 711 l 700 711 l 700 0 l 554 0 m 579 819 l 463 819 l 587 1064 l 774 1064 l 579 819 m 321 819 l 203 819 l 328 1064 l 514 1064 l 321 819 z "},"Ų":{"ha":964,"x_min":113,"x_max":851,"o":"m 851 392 q 834 211 851 286 q 779 87 817 136 q 739 24 758 54 q 708 -32 721 -6 q 687 -79 694 -58 q 679 -115 679 -100 q 691 -147 679 -137 q 725 -157 704 -157 q 762 -151 742 -157 q 800 -134 781 -145 l 851 -224 q 780 -256 816 -245 q 703 -268 743 -268 q 646 -261 671 -268 q 601 -239 620 -254 q 572 -202 583 -224 q 562 -150 562 -180 q 575 -77 562 -111 q 608 -9 587 -43 q 549 -19 580 -16 q 482 -21 517 -21 q 313 1 383 -21 q 198 72 243 23 q 133 200 154 121 q 113 392 113 279 l 113 939 l 271 939 l 271 406 q 282 270 271 324 q 318 181 293 215 q 383 134 343 148 q 481 119 423 119 q 579 134 539 119 q 645 182 620 149 q 682 269 671 215 q 693 403 693 323 l 693 939 l 851 939 l 851 392 z "},"ų":{"ha":807,"x_min":102,"x_max":700,"o":"m 699 -224 q 627 -256 663 -245 q 550 -268 591 -268 q 494 -260 519 -268 q 449 -238 468 -253 q 420 -199 431 -222 q 410 -144 410 -176 q 448 -45 410 -87 q 554 22 487 -3 l 554 98 q 502 53 530 75 q 443 15 474 31 q 377 -11 411 -1 q 310 -21 344 -21 q 210 -4 250 -21 q 146 46 170 13 q 112 126 122 79 q 102 236 102 174 l 102 711 l 248 711 l 248 306 q 251 215 248 252 q 265 156 254 178 q 296 123 276 133 q 350 113 317 113 q 398 121 372 113 q 450 145 423 130 q 503 180 477 160 q 554 222 530 200 l 554 711 l 700 711 l 700 0 q 616 -26 650 -13 q 564 -54 583 -40 q 536 -82 544 -68 q 528 -111 528 -96 q 540 -145 528 -134 q 572 -157 553 -157 q 610 -151 590 -157 q 648 -134 630 -145 l 699 -224 z "},"Ŵ":{"ha":1217,"x_min":37,"x_max":1179,"o":"m 945 0 l 772 0 l 606 686 l 437 0 l 267 0 l 37 939 l 195 939 l 357 253 l 524 939 l 689 939 l 859 249 l 1023 939 l 1179 939 l 945 0 m 721 1047 l 610 1186 l 496 1047 l 375 1047 l 532 1292 l 686 1292 l 844 1047 l 721 1047 z "},"ŵ":{"ha":1031,"x_min":31,"x_max":1000,"o":"m 817 0 l 684 0 l 517 498 l 349 0 l 215 0 l 31 711 l 182 711 l 297 211 l 461 711 l 576 711 l 743 212 l 854 711 l 1000 711 l 817 0 m 630 819 l 519 958 l 406 819 l 284 819 l 441 1064 l 595 1064 l 753 819 l 630 819 z "},"Ŷ":{"ha":791,"x_min":20,"x_max":771,"o":"m 475 359 l 475 0 l 315 0 l 315 355 l 20 939 l 195 939 l 397 514 l 603 939 l 771 939 l 475 359 m 508 1047 l 397 1186 l 283 1047 l 162 1047 l 319 1292 l 473 1292 l 631 1047 l 508 1047 z "},"ŷ":{"ha":721,"x_min":-8,"x_max":696,"o":"m 25 -123 q 76 -138 49 -133 q 127 -143 102 -143 q 166 -136 148 -143 q 200 -113 184 -129 q 232 -71 217 -97 q 262 -8 248 -45 l 283 43 l 25 711 l 179 711 l 361 224 l 546 711 l 696 711 l 390 -52 q 342 -151 366 -110 q 287 -218 317 -192 q 218 -256 256 -244 q 131 -268 180 -268 q 60 -262 97 -268 q -8 -248 22 -257 l 25 -123 m 471 819 l 360 958 l 247 819 l 125 819 l 283 1064 l 437 1064 l 594 819 l 471 819 z "},"Ÿ":{"ha":791,"x_min":20,"x_max":771,"o":"m 475 359 l 475 0 l 315 0 l 315 355 l 20 939 l 195 939 l 397 514 l 603 939 l 771 939 l 475 359 m 623 1126 q 603 1064 623 1082 q 537 1046 582 1046 q 471 1067 488 1046 q 454 1126 454 1088 q 472 1188 454 1168 q 537 1207 491 1207 q 604 1188 585 1207 q 623 1126 623 1169 m 338 1126 q 318 1064 338 1082 q 252 1046 298 1046 q 186 1067 203 1046 q 170 1126 170 1088 q 188 1188 170 1168 q 252 1207 206 1207 q 319 1188 300 1207 q 338 1126 338 1169 z "},"Ź":{"ha":783,"x_min":56,"x_max":718,"o":"m 56 0 l 56 140 l 518 794 l 77 794 l 77 939 l 707 939 l 707 806 l 239 144 l 718 144 l 718 0 l 56 0 m 398 1046 l 280 1046 l 405 1291 l 591 1291 l 398 1046 z "},"ź":{"ha":632,"x_min":47,"x_max":585,"o":"m 47 0 l 47 109 l 399 593 l 56 593 l 56 711 l 574 711 l 574 606 l 221 118 l 585 118 l 585 0 l 47 0 m 330 819 l 212 819 l 337 1064 l 523 1064 l 330 819 z "},"Ż":{"ha":783,"x_min":56,"x_max":718,"o":"m 56 0 l 56 140 l 518 794 l 77 794 l 77 939 l 707 939 l 707 806 l 239 144 l 718 144 l 718 0 l 56 0 m 454 1128 q 433 1063 454 1081 q 365 1044 412 1044 q 322 1050 339 1044 q 296 1066 306 1055 q 283 1093 287 1077 q 279 1128 279 1108 q 298 1191 279 1171 q 365 1211 317 1211 q 434 1192 414 1211 q 454 1128 454 1172 z "},"ż":{"ha":632,"x_min":47,"x_max":585,"o":"m 47 0 l 47 109 l 399 593 l 56 593 l 56 711 l 574 711 l 574 606 l 221 118 l 585 118 l 585 0 l 47 0 m 391 901 q 370 836 391 854 q 302 818 349 818 q 259 823 276 818 q 233 840 243 829 q 220 866 224 850 q 216 901 216 882 q 235 964 216 944 q 302 985 254 985 q 371 965 351 985 q 391 901 391 945 z "},"Ž":{"ha":783,"x_min":56,"x_max":718,"o":"m 56 0 l 56 140 l 518 794 l 77 794 l 77 939 l 707 939 l 707 806 l 239 144 l 718 144 l 718 0 l 56 0 m 450 1046 l 296 1046 l 138 1291 l 261 1291 l 372 1150 l 486 1291 l 607 1291 l 450 1046 z "},"ž":{"ha":632,"x_min":47,"x_max":585,"o":"m 47 0 l 47 109 l 399 593 l 56 593 l 56 711 l 574 711 l 574 606 l 221 118 l 585 118 l 585 0 l 47 0 m 385 819 l 231 819 l 74 1064 l 197 1064 l 307 924 l 421 1064 l 543 1064 l 385 819 z "},"ſ":{"ha":408,"x_min":36,"x_max":498,"o":"m 465 882 q 418 897 444 891 q 367 903 392 903 q 319 896 338 903 q 289 874 300 889 q 274 837 278 860 q 269 781 269 813 l 269 0 l 123 0 l 123 593 l 36 593 l 36 711 l 123 711 l 123 781 q 136 890 123 843 q 178 968 149 937 q 252 1015 206 1000 q 364 1031 298 1031 q 436 1024 401 1031 q 498 1008 471 1018 l 465 882 z "},"ƒ":{"ha":725,"x_min":-114,"x_max":721,"o":"m 673 879 q 615 896 641 890 q 561 903 589 903 q 525 899 540 903 q 497 882 509 895 q 477 848 486 870 q 460 791 468 827 l 443 711 l 582 711 l 559 593 l 419 593 l 288 -49 q 263 -129 279 -90 q 217 -200 246 -169 q 144 -250 189 -231 q 36 -269 100 -269 q -6 -267 15 -269 q -47 -262 -27 -265 q -84 -254 -66 -258 q -114 -245 -101 -250 l -72 -121 q -17 -136 -43 -130 q 40 -142 9 -142 q 81 -136 64 -142 q 111 -116 98 -130 q 132 -76 123 -101 q 149 -12 140 -51 l 272 593 l 170 593 l 193 711 l 296 711 l 314 794 q 348 898 327 854 q 399 972 368 943 q 474 1016 431 1002 q 576 1031 517 1031 q 656 1023 617 1031 q 721 1007 695 1015 l 673 879 z "},"Ơ":{"ha":1026,"x_min":69,"x_max":1051,"o":"m 1051 981 l 1051 864 q 1040 770 1051 811 q 1005 700 1029 728 q 943 655 981 671 q 850 640 905 640 l 840 640 q 852 559 848 602 q 856 469 856 516 q 834 263 856 354 q 764 110 812 173 q 642 14 716 47 q 463 -20 567 -20 q 284 14 358 -20 q 162 110 210 47 q 92 263 114 173 q 69 469 69 354 q 92 675 69 585 q 162 829 114 766 q 284 925 210 892 q 463 958 358 958 q 585 944 530 958 q 683 903 640 930 q 757 836 726 876 q 810 745 789 796 l 831 745 q 875 751 857 745 q 904 772 893 758 q 920 809 916 786 q 925 864 925 831 l 925 981 l 1051 981 m 690 469 q 678 622 690 557 q 639 731 666 688 q 568 796 612 774 q 463 818 525 818 q 356 796 399 818 q 285 731 312 774 q 245 622 258 688 q 233 469 233 557 q 245 316 233 382 q 285 208 258 251 q 356 142 313 164 q 463 121 400 121 q 568 142 525 121 q 639 207 612 163 q 678 316 666 250 q 690 469 690 381 z "},"ơ":{"ha":882,"x_min":71,"x_max":907,"o":"m 725 354 q 706 198 725 267 q 648 80 688 129 q 547 5 608 31 q 399 -21 485 -21 q 250 5 312 -21 q 148 81 187 32 q 89 199 108 130 q 71 354 71 268 q 90 511 71 441 q 148 630 109 581 q 250 706 188 680 q 399 732 312 732 q 583 686 512 732 q 689 558 654 640 q 760 586 740 558 q 781 677 781 614 l 781 766 l 907 766 l 907 677 q 896 588 907 627 q 862 519 885 548 q 804 474 840 490 q 718 454 768 457 q 723 406 722 431 q 725 354 725 380 m 574 354 q 533 543 574 481 q 399 604 492 604 q 263 543 306 604 q 221 354 221 481 q 263 168 221 231 q 399 106 304 106 q 532 168 490 106 q 574 354 574 231 z "},"Ư":{"ha":1067,"x_min":113,"x_max":1092,"o":"m 851 745 l 871 745 q 916 751 897 745 q 945 772 934 758 q 960 809 956 786 q 965 864 965 831 l 965 981 l 1092 981 l 1092 864 q 1080 770 1092 811 q 1042 700 1067 728 q 975 655 1016 671 q 878 640 935 640 l 851 640 l 851 392 q 830 199 851 278 q 765 72 810 121 q 651 1 721 23 q 482 -21 581 -21 q 313 1 383 -21 q 198 72 243 23 q 133 200 154 121 q 113 392 113 279 l 113 939 l 271 939 l 271 406 q 282 270 271 324 q 318 181 293 215 q 383 134 343 148 q 481 119 423 119 q 579 134 539 119 q 645 182 620 149 q 682 269 671 215 q 693 403 693 323 l 693 939 l 851 939 l 851 745 z "},"ư":{"ha":908,"x_min":102,"x_max":933,"o":"m 554 0 l 554 98 q 502 53 530 75 q 443 15 474 31 q 377 -11 411 -1 q 310 -21 344 -21 q 210 -4 250 -21 q 146 46 170 13 q 112 126 122 79 q 102 236 102 174 l 102 711 l 248 711 l 248 306 q 251 215 248 252 q 265 156 254 178 q 296 123 276 133 q 350 113 317 113 q 398 121 372 113 q 450 145 423 130 q 503 180 477 160 q 554 222 530 200 l 554 711 l 700 711 l 700 558 l 715 558 q 760 565 742 558 q 788 585 778 571 q 804 622 799 600 q 808 677 808 645 l 808 766 l 933 766 l 933 677 q 922 584 933 625 q 885 514 910 543 q 819 470 859 485 q 722 454 779 454 l 700 454 l 700 0 l 554 0 z "},"Ǎ":{"ha":890,"x_min":26,"x_max":864,"o":"m 26 0 l 342 939 l 547 939 l 864 0 l 700 0 l 628 216 l 256 216 l 184 0 l 26 0 m 301 358 l 581 358 l 441 781 l 301 358 m 522 1047 l 368 1047 l 211 1292 l 334 1292 l 444 1152 l 558 1292 l 680 1292 l 522 1047 z "},"ǎ":{"ha":758,"x_min":65,"x_max":657,"o":"m 518 0 l 518 81 q 412 7 468 36 q 290 -21 356 -21 q 194 -5 236 -21 q 123 41 152 12 q 80 111 95 71 q 65 200 65 151 q 86 308 65 264 q 145 379 108 351 q 235 420 183 406 q 349 440 287 434 l 511 456 l 511 489 q 501 548 511 524 q 470 585 490 571 q 421 605 450 600 q 354 611 391 611 q 291 604 318 611 q 245 587 264 597 q 212 562 225 576 q 192 534 199 548 l 77 608 q 112 653 90 631 q 169 693 135 675 q 249 721 203 710 q 357 732 296 732 q 488 720 431 732 q 582 679 544 707 q 638 603 619 650 q 657 484 657 555 l 657 0 l 518 0 m 511 346 l 410 336 q 327 323 363 332 q 266 299 290 315 q 228 260 241 283 q 215 203 215 237 q 245 123 215 146 q 329 100 275 100 q 373 107 350 100 q 419 127 395 115 q 466 156 442 139 q 511 191 489 172 l 511 346 m 456 819 l 302 819 l 144 1064 l 267 1064 l 378 924 l 492 1064 l 613 1064 l 456 819 z "},"Ǐ":{"ha":557,"x_min":43,"x_max":512,"o":"m 488 0 l 69 0 l 69 127 l 199 127 l 199 811 l 69 811 l 69 939 l 488 939 l 488 811 l 357 811 l 357 127 l 488 127 l 488 0 m 355 1047 l 201 1047 l 43 1292 l 166 1292 l 277 1152 l 391 1292 l 512 1292 l 355 1047 z "},"ǐ":{"ha":359,"x_min":-54,"x_max":415,"o":"m 107 0 l 107 711 l 253 711 l 253 0 l 107 0 m 258 819 l 104 819 l -54 1064 l 69 1064 l 180 924 l 294 1064 l 415 1064 l 258 819 z "},"Ǒ":{"ha":925,"x_min":69,"x_max":856,"o":"m 856 469 q 834 263 856 354 q 764 110 812 173 q 642 14 716 47 q 463 -20 567 -20 q 284 14 358 -20 q 162 110 210 47 q 92 263 114 173 q 69 469 69 354 q 92 675 69 585 q 162 829 114 766 q 284 925 210 892 q 463 958 358 958 q 642 925 567 958 q 764 830 716 892 q 834 676 812 767 q 856 469 856 585 m 690 469 q 678 622 690 557 q 639 731 666 688 q 568 796 612 774 q 463 818 525 818 q 356 796 399 818 q 285 731 312 774 q 245 622 258 688 q 233 469 233 557 q 245 316 233 382 q 285 208 258 251 q 356 142 313 164 q 463 121 400 121 q 568 142 525 121 q 639 207 612 163 q 678 316 666 250 q 690 469 690 381 m 537 1047 l 383 1047 l 226 1292 l 349 1292 l 459 1152 l 573 1292 l 694 1292 l 537 1047 z "},"ǒ":{"ha":796,"x_min":71,"x_max":725,"o":"m 725 354 q 706 198 725 267 q 648 80 688 129 q 547 5 608 31 q 399 -21 485 -21 q 250 5 312 -21 q 148 81 187 32 q 89 199 108 130 q 71 354 71 268 q 90 511 71 441 q 148 630 109 581 q 250 706 188 680 q 399 732 312 732 q 547 706 485 732 q 648 630 608 680 q 706 511 688 581 q 725 354 725 441 m 574 354 q 533 543 574 481 q 399 604 492 604 q 263 543 306 604 q 221 354 221 481 q 263 168 221 231 q 399 106 304 106 q 532 168 490 106 q 574 354 574 231 m 473 819 l 319 819 l 162 1064 l 285 1064 l 395 924 l 509 1064 l 631 1064 l 473 819 z "},"Ǔ":{"ha":964,"x_min":113,"x_max":851,"o":"m 851 392 q 830 199 851 278 q 765 72 810 121 q 651 1 721 23 q 482 -21 581 -21 q 313 1 383 -21 q 198 72 243 23 q 133 200 154 121 q 113 392 113 279 l 113 939 l 271 939 l 271 406 q 282 270 271 324 q 318 181 293 215 q 383 134 343 148 q 481 119 423 119 q 579 134 539 119 q 645 182 620 149 q 682 269 671 215 q 693 403 693 323 l 693 939 l 851 939 l 851 392 m 561 1047 l 407 1047 l 250 1292 l 372 1292 l 483 1152 l 597 1292 l 718 1292 l 561 1047 z "},"ǔ":{"ha":807,"x_min":102,"x_max":700,"o":"m 554 0 l 554 98 q 502 53 530 75 q 443 15 474 31 q 377 -11 411 -1 q 310 -21 344 -21 q 210 -4 250 -21 q 146 46 170 13 q 112 126 122 79 q 102 236 102 174 l 102 711 l 248 711 l 248 306 q 251 215 248 252 q 265 156 254 178 q 296 123 276 133 q 350 113 317 113 q 398 121 372 113 q 450 145 423 130 q 503 180 477 160 q 554 222 530 200 l 554 711 l 700 711 l 700 0 l 554 0 m 479 819 l 325 819 l 168 1064 l 290 1064 l 401 924 l 515 1064 l 636 1064 l 479 819 z "},"Ǖ":{"ha":964,"x_min":113,"x_max":851,"o":"m 851 392 q 830 199 851 278 q 765 72 810 121 q 651 1 721 23 q 482 -21 581 -21 q 313 1 383 -21 q 198 72 243 23 q 133 200 154 121 q 113 392 113 279 l 113 939 l 271 939 l 271 406 q 282 270 271 324 q 318 181 293 215 q 383 134 343 148 q 481 119 423 119 q 579 134 539 119 q 645 182 620 149 q 682 269 671 215 q 693 403 693 323 l 693 939 l 851 939 l 851 392 m 708 1101 q 687 1039 708 1057 q 622 1021 667 1021 q 582 1026 597 1021 q 556 1042 566 1031 q 542 1067 546 1053 q 538 1101 538 1082 q 557 1163 538 1143 q 622 1182 576 1182 q 689 1163 670 1182 q 708 1101 708 1144 m 423 1101 q 403 1039 423 1057 q 337 1021 382 1021 q 297 1026 313 1021 q 271 1042 281 1031 q 258 1067 262 1053 q 254 1101 254 1082 q 273 1163 254 1143 q 337 1182 291 1182 q 404 1163 385 1182 q 423 1101 423 1144 m 264 1231 l 264 1340 l 699 1340 l 699 1231 l 264 1231 z "},"ǖ":{"ha":807,"x_min":102,"x_max":700,"o":"m 554 0 l 554 98 q 502 53 530 75 q 443 15 474 31 q 377 -11 411 -1 q 310 -21 344 -21 q 210 -4 250 -21 q 146 46 170 13 q 112 126 122 79 q 102 236 102 174 l 102 711 l 248 711 l 248 306 q 251 215 248 252 q 265 156 254 178 q 296 123 276 133 q 350 113 317 113 q 398 121 372 113 q 450 145 423 130 q 503 180 477 160 q 554 222 530 200 l 554 711 l 700 711 l 700 0 l 554 0 m 630 873 q 609 811 630 829 q 544 793 589 793 q 504 798 519 793 q 478 814 488 804 q 464 840 468 825 q 460 873 460 854 q 479 935 460 916 q 544 954 498 954 q 611 935 592 954 q 630 873 630 916 m 345 873 q 325 811 345 829 q 259 793 304 793 q 219 798 235 793 q 193 814 203 804 q 180 840 184 825 q 176 873 176 854 q 195 935 176 916 q 259 954 213 954 q 326 935 307 954 q 345 873 345 916 m 186 1003 l 186 1112 l 621 1112 l 621 1003 l 186 1003 z "},"Ǘ":{"ha":964,"x_min":113,"x_max":851,"o":"m 851 392 q 830 199 851 278 q 765 72 810 121 q 651 1 721 23 q 482 -21 581 -21 q 313 1 383 -21 q 198 72 243 23 q 133 200 154 121 q 113 392 113 279 l 113 939 l 271 939 l 271 406 q 282 270 271 324 q 318 181 293 215 q 383 134 343 148 q 481 119 423 119 q 579 134 539 119 q 645 182 620 149 q 682 269 671 215 q 693 403 693 323 l 693 939 l 851 939 l 851 392 m 709 1101 q 689 1039 709 1057 q 623 1021 668 1021 q 583 1026 599 1021 q 557 1042 567 1031 q 544 1067 547 1053 q 540 1101 540 1082 q 558 1163 540 1143 q 623 1182 577 1182 q 690 1163 671 1182 q 709 1101 709 1144 m 425 1101 q 404 1039 425 1057 q 338 1021 384 1021 q 298 1026 314 1021 q 273 1042 282 1031 q 259 1067 263 1053 q 256 1101 256 1082 q 274 1163 256 1143 q 338 1182 292 1182 q 406 1163 387 1182 q 425 1101 425 1144 m 415 1198 l 498 1402 l 686 1402 l 529 1198 l 415 1198 z "},"ǘ":{"ha":807,"x_min":102,"x_max":700,"o":"m 554 0 l 554 98 q 502 53 530 75 q 443 15 474 31 q 377 -11 411 -1 q 310 -21 344 -21 q 210 -4 250 -21 q 146 46 170 13 q 112 126 122 79 q 102 236 102 174 l 102 711 l 248 711 l 248 306 q 251 215 248 252 q 265 156 254 178 q 296 123 276 133 q 350 113 317 113 q 398 121 372 113 q 450 145 423 130 q 503 180 477 160 q 554 222 530 200 l 554 711 l 700 711 l 700 0 l 554 0 m 629 873 q 608 811 629 829 q 543 793 587 793 q 502 798 518 793 q 476 814 486 804 q 463 840 467 825 q 459 873 459 854 q 478 935 459 916 q 543 954 496 954 q 610 935 591 954 q 629 873 629 916 m 344 873 q 323 811 344 829 q 258 793 303 793 q 217 798 233 793 q 192 814 201 804 q 179 840 182 825 q 175 873 175 854 q 193 935 175 916 q 258 954 212 954 q 325 935 306 954 q 344 873 344 916 m 334 971 l 418 1175 l 605 1175 l 448 971 l 334 971 z "},"Ǚ":{"ha":964,"x_min":113,"x_max":851,"o":"m 851 392 q 830 199 851 278 q 765 72 810 121 q 651 1 721 23 q 482 -21 581 -21 q 313 1 383 -21 q 198 72 243 23 q 133 200 154 121 q 113 392 113 279 l 113 939 l 271 939 l 271 406 q 282 270 271 324 q 318 181 293 215 q 383 134 343 148 q 481 119 423 119 q 579 134 539 119 q 645 182 620 149 q 682 269 671 215 q 693 403 693 323 l 693 939 l 851 939 l 851 392 m 711 1101 q 690 1039 711 1057 q 625 1021 669 1021 q 558 1042 576 1021 q 541 1101 541 1063 q 560 1162 541 1143 q 625 1181 578 1181 q 692 1162 673 1181 q 711 1101 711 1144 m 426 1101 q 406 1039 426 1057 q 340 1021 385 1021 q 274 1042 291 1021 q 257 1101 257 1063 q 275 1162 257 1143 q 340 1181 294 1181 q 407 1162 388 1181 q 426 1101 426 1144 m 372 1402 l 483 1297 l 597 1402 l 718 1402 l 561 1206 l 407 1206 l 250 1402 l 372 1402 z "},"ǚ":{"ha":807,"x_min":102,"x_max":700,"o":"m 554 0 l 554 98 q 502 53 530 75 q 443 15 474 31 q 377 -11 411 -1 q 310 -21 344 -21 q 210 -4 250 -21 q 146 46 170 13 q 112 126 122 79 q 102 236 102 174 l 102 711 l 248 711 l 248 306 q 251 215 248 252 q 265 156 254 178 q 296 123 276 133 q 350 113 317 113 q 398 121 372 113 q 450 145 423 130 q 503 180 477 160 q 554 222 530 200 l 554 711 l 700 711 l 700 0 l 554 0 m 630 873 q 609 811 630 829 q 544 793 589 793 q 478 814 495 793 q 460 873 460 835 q 479 934 460 916 q 544 953 498 953 q 611 935 592 953 q 630 873 630 916 m 345 873 q 325 811 345 829 q 259 793 304 793 q 193 814 210 793 q 176 873 176 835 q 195 934 176 916 q 259 953 213 953 q 326 935 307 953 q 345 873 345 916 m 292 1175 l 402 1069 l 516 1175 l 637 1175 l 480 978 l 326 978 l 169 1175 l 292 1175 z "},"Ǜ":{"ha":964,"x_min":113,"x_max":851,"o":"m 851 392 q 830 199 851 278 q 765 72 810 121 q 651 1 721 23 q 482 -21 581 -21 q 313 1 383 -21 q 198 72 243 23 q 133 200 154 121 q 113 392 113 279 l 113 939 l 271 939 l 271 406 q 282 270 271 324 q 318 181 293 215 q 383 134 343 148 q 481 119 423 119 q 579 134 539 119 q 645 182 620 149 q 682 269 671 215 q 693 403 693 323 l 693 939 l 851 939 l 851 392 m 708 1101 q 687 1039 708 1057 q 622 1021 667 1021 q 582 1026 597 1021 q 556 1042 566 1031 q 542 1067 546 1053 q 538 1101 538 1082 q 557 1163 538 1143 q 622 1182 576 1182 q 689 1163 670 1182 q 708 1101 708 1144 m 423 1101 q 403 1039 423 1057 q 337 1021 382 1021 q 297 1026 313 1021 q 271 1042 281 1031 q 258 1067 262 1053 q 254 1101 254 1082 q 273 1163 254 1143 q 337 1182 291 1182 q 404 1163 385 1182 q 423 1101 423 1144 m 432 1198 l 276 1402 l 463 1402 l 546 1198 l 432 1198 z "},"ǜ":{"ha":807,"x_min":102,"x_max":700,"o":"m 554 0 l 554 98 q 502 53 530 75 q 443 15 474 31 q 377 -11 411 -1 q 310 -21 344 -21 q 210 -4 250 -21 q 146 46 170 13 q 112 126 122 79 q 102 236 102 174 l 102 711 l 248 711 l 248 306 q 251 215 248 252 q 265 156 254 178 q 296 123 276 133 q 350 113 317 113 q 398 121 372 113 q 450 145 423 130 q 503 180 477 160 q 554 222 530 200 l 554 711 l 700 711 l 700 0 l 554 0 m 629 873 q 608 811 629 829 q 543 793 587 793 q 502 798 518 793 q 476 814 486 804 q 463 840 467 825 q 459 873 459 854 q 478 935 459 916 q 543 954 496 954 q 610 935 591 954 q 629 873 629 916 m 344 873 q 323 811 344 829 q 258 793 303 793 q 217 798 233 793 q 192 814 201 804 q 179 840 182 825 q 175 873 175 854 q 193 935 175 916 q 258 954 212 954 q 325 935 306 954 q 344 873 344 916 m 353 971 l 197 1175 l 383 1175 l 467 971 l 353 971 z "},"Ǻ":{"ha":890,"x_min":26,"x_max":864,"o":"m 590 1007 q 557 911 590 944 l 864 0 l 700 0 l 628 216 l 256 216 l 184 0 l 26 0 l 334 913 q 308 952 316 929 q 300 1007 300 975 q 335 1111 300 1073 q 444 1149 371 1149 q 555 1111 519 1149 q 590 1007 590 1073 m 301 358 l 581 358 l 441 781 l 301 358 m 507 1007 q 491 1055 507 1040 q 444 1071 475 1071 q 398 1055 414 1071 q 382 1007 382 1038 q 396 961 382 977 q 444 945 411 945 q 493 961 478 945 q 507 1007 507 977 m 496 1186 l 378 1186 l 465 1373 l 652 1373 l 496 1186 z "},"ǻ":{"ha":758,"x_min":65,"x_max":657,"o":"m 518 0 l 518 81 q 412 7 468 36 q 290 -21 356 -21 q 194 -5 236 -21 q 123 41 152 12 q 80 111 95 71 q 65 200 65 151 q 86 308 65 264 q 145 379 108 351 q 235 420 183 406 q 349 440 287 434 l 511 456 l 511 489 q 501 548 511 524 q 470 585 490 571 q 421 605 450 600 q 354 611 391 611 q 291 604 318 611 q 245 587 264 597 q 212 562 225 576 q 192 534 199 548 l 77 608 q 112 653 90 631 q 169 693 135 675 q 249 721 203 710 q 357 732 296 732 q 488 720 431 732 q 582 679 544 707 q 638 603 619 650 q 657 484 657 555 l 657 0 l 518 0 m 511 346 l 410 336 q 327 323 363 332 q 266 299 290 315 q 228 260 241 283 q 215 203 215 237 q 245 123 215 146 q 329 100 275 100 q 373 107 350 100 q 419 127 395 115 q 466 156 442 139 q 511 191 489 172 l 511 346 m 505 926 q 468 821 505 859 q 359 783 431 783 q 294 793 321 783 q 249 823 267 804 q 223 868 231 842 q 214 926 214 894 q 250 1031 214 992 q 359 1069 286 1069 q 469 1031 434 1069 q 505 926 505 992 m 422 926 q 406 975 422 959 q 359 990 389 990 q 312 974 328 990 q 296 926 296 957 q 311 879 296 897 q 359 861 326 861 q 407 878 393 861 q 422 926 422 895 m 384 1107 l 266 1107 l 391 1352 l 576 1352 l 384 1107 z "},"Ǽ":{"ha":1206,"x_min":22,"x_max":1129,"o":"m 574 0 l 574 252 l 282 252 l 183 0 l 22 0 l 390 939 l 1129 939 l 1129 798 l 732 798 l 732 557 l 1069 557 l 1069 415 l 732 415 l 732 144 l 1129 144 l 1129 0 l 574 0 m 574 798 l 492 798 l 335 393 l 574 393 l 574 798 m 696 1047 l 578 1047 l 703 1292 l 888 1292 l 696 1047 z "},"ǽ":{"ha":1190,"x_min":65,"x_max":1125,"o":"m 286 -21 q 193 -5 234 -21 q 123 40 152 11 q 80 112 95 70 q 65 204 65 153 q 87 310 65 267 q 148 380 110 353 q 238 421 186 407 q 349 440 290 435 l 511 456 l 511 489 q 501 547 511 524 q 471 585 490 570 q 422 605 451 599 q 357 611 393 611 q 293 605 320 611 q 247 587 267 598 q 214 563 227 576 q 192 534 201 549 l 77 608 q 113 654 90 631 q 169 693 135 676 q 251 721 203 711 q 361 732 298 732 q 603 639 543 732 q 696 707 640 683 q 832 732 752 732 q 967 708 911 732 q 1058 641 1023 684 q 1109 536 1093 597 q 1125 401 1125 475 l 1125 325 l 657 325 q 668 231 658 272 q 700 163 678 191 q 757 120 722 135 q 843 106 792 106 q 892 110 870 106 q 934 123 915 114 q 970 145 953 132 q 1003 179 987 159 l 1116 103 q 1070 50 1095 73 q 1012 11 1044 26 q 940 -13 980 -5 q 848 -21 899 -21 q 681 8 751 -21 q 571 97 611 37 q 507 50 541 71 q 437 13 473 28 q 363 -12 401 -3 q 286 -21 325 -21 m 322 100 q 425 123 372 100 q 529 186 478 146 q 515 253 519 214 q 511 346 511 291 l 410 336 q 327 323 363 332 q 266 299 291 315 q 228 260 241 284 q 215 201 215 236 q 223 155 215 174 q 245 123 231 136 q 279 105 259 111 q 322 100 298 100 m 981 432 q 943 567 981 521 q 825 614 905 614 q 708 568 747 614 q 660 432 669 522 l 981 432 m 620 819 l 502 819 l 627 1064 l 812 1064 l 620 819 z "},"Ǿ":{"ha":925,"x_min":32,"x_max":896,"o":"m 32 -78 l 160 110 q 91 263 113 173 q 69 469 69 353 q 92 675 69 585 q 162 829 114 766 q 284 925 210 892 q 463 958 358 958 q 594 941 536 958 q 697 892 652 924 l 778 1010 l 896 1010 l 768 822 q 834 671 813 760 q 856 469 856 583 q 834 263 856 354 q 764 110 812 173 q 642 14 716 47 q 463 -20 567 -20 q 232 41 321 -20 l 150 -78 l 32 -78 m 690 469 q 665 672 690 594 l 318 167 q 380 132 344 143 q 463 121 416 121 q 568 142 525 121 q 639 207 612 163 q 678 316 666 250 q 690 469 690 381 m 233 469 q 240 351 233 404 q 262 258 247 299 l 610 765 q 463 818 557 818 q 356 796 399 818 q 285 731 312 774 q 245 622 258 688 q 233 469 233 557 m 489 1047 l 371 1047 l 496 1292 l 682 1292 l 489 1047 z "},"ǿ":{"ha":796,"x_min":71,"x_max":730,"o":"m 71 -52 l 154 72 q 90 193 110 121 q 71 354 71 264 q 90 511 71 441 q 148 630 109 581 q 250 706 188 680 q 399 732 312 732 q 572 692 503 732 l 621 762 l 730 762 l 643 633 q 705 514 685 585 q 725 354 725 443 q 706 198 725 267 q 648 80 688 129 q 547 5 608 31 q 399 -21 485 -21 q 227 17 295 -21 l 180 -52 l 71 -52 m 221 354 q 226 271 221 308 q 243 204 231 233 l 496 578 q 453 598 477 591 q 399 604 429 604 q 263 543 306 604 q 221 354 221 481 m 574 354 q 569 434 574 398 q 554 500 565 471 l 302 129 q 399 106 341 106 q 532 168 490 106 q 574 354 574 231 m 416 819 l 298 819 l 422 1064 l 608 1064 l 416 819 z "},"Ș":{"ha":832,"x_min":54,"x_max":765,"o":"m 765 264 q 737 131 765 184 q 661 43 709 77 q 548 -5 612 9 q 412 -20 484 -20 q 279 -5 336 -20 q 180 33 222 9 q 107 90 137 58 q 54 160 77 123 l 179 250 q 217 200 196 224 q 265 159 237 177 q 329 131 292 142 q 414 121 366 121 q 484 127 450 121 q 545 150 518 134 q 587 191 571 165 q 603 253 603 216 q 588 312 603 288 q 547 352 572 336 q 486 379 521 368 q 412 400 452 390 q 279 438 340 418 q 172 487 217 457 q 100 563 126 517 q 74 681 74 609 q 96 796 74 745 q 159 883 117 847 q 264 939 201 920 q 408 958 327 958 q 520 947 469 958 q 611 915 570 936 q 685 862 652 893 q 742 790 718 830 l 619 699 q 531 788 582 758 q 407 818 480 818 q 281 785 328 818 q 235 693 235 753 q 247 643 235 663 q 286 608 260 623 q 352 582 312 593 q 446 557 391 570 q 527 535 488 547 q 603 508 567 524 q 668 472 638 493 q 719 422 698 452 q 753 354 741 393 q 765 264 765 315 m 370 -371 q 409 -312 395 -339 q 425 -257 424 -284 q 364 -234 383 -256 q 345 -167 345 -213 q 349 -128 345 -145 q 366 -99 354 -111 q 396 -80 377 -87 q 442 -74 414 -74 q 515 -101 493 -74 q 538 -179 538 -129 q 516 -286 538 -239 q 461 -371 494 -332 l 370 -371 z "},"ș":{"ha":684,"x_min":60,"x_max":621,"o":"m 621 197 q 598 97 621 138 q 537 29 575 56 q 448 -9 498 3 q 343 -21 398 -21 q 242 -12 288 -21 q 162 15 197 -2 q 101 54 127 31 q 60 104 76 77 l 171 179 q 243 118 200 136 q 339 100 286 100 q 391 104 366 100 q 435 118 416 108 q 466 146 454 129 q 478 191 478 164 q 469 225 478 211 q 441 251 460 239 q 392 272 422 262 q 319 292 362 281 q 227 319 271 304 q 150 360 183 335 q 96 424 116 386 q 75 519 75 463 q 92 604 75 565 q 143 671 109 642 q 228 715 178 699 q 346 732 279 732 q 434 723 393 732 q 508 698 475 714 q 568 659 542 682 q 610 608 593 636 l 498 533 q 474 562 488 548 q 440 587 460 576 q 397 605 421 598 q 343 611 373 611 q 252 589 286 611 q 218 525 218 567 q 225 492 218 505 q 249 467 233 478 q 290 448 264 456 q 353 431 316 439 q 464 397 414 415 q 549 354 514 380 q 602 291 583 328 q 621 197 621 253 m 285 -371 q 325 -312 310 -339 q 340 -257 339 -284 q 279 -234 298 -256 q 260 -167 260 -213 q 264 -128 260 -145 q 281 -99 269 -111 q 311 -80 292 -87 q 357 -74 330 -74 q 431 -101 408 -74 q 453 -179 453 -129 q 431 -286 453 -239 q 376 -371 409 -332 l 285 -371 z "},"Ț":{"ha":810,"x_min":25,"x_max":783,"o":"m 484 794 l 484 0 l 325 0 l 325 794 l 25 794 l 25 939 l 783 939 l 783 794 l 484 794 m 340 -371 q 380 -312 366 -339 q 396 -257 395 -284 q 335 -234 354 -256 q 315 -167 315 -213 q 320 -128 315 -145 q 336 -99 325 -111 q 367 -80 348 -87 q 413 -74 385 -74 q 486 -101 464 -74 q 509 -179 509 -129 q 487 -286 509 -239 q 432 -371 465 -332 l 340 -371 z "},"ț":{"ha":497,"x_min":26,"x_max":481,"o":"m 481 0 q 412 -15 450 -9 q 339 -21 374 -21 q 240 -7 281 -21 q 173 36 199 7 q 134 109 146 64 q 122 215 122 154 l 122 593 l 26 593 l 26 711 l 122 711 l 122 909 l 268 909 l 268 711 l 440 711 l 440 593 l 268 593 l 268 237 q 272 173 268 199 q 287 131 277 147 q 314 107 297 115 q 354 100 330 100 q 404 105 378 100 q 450 119 431 111 l 481 0 m 228 -371 q 268 -312 253 -339 q 283 -257 282 -284 q 222 -234 241 -256 q 203 -167 203 -213 q 208 -128 203 -145 q 224 -99 212 -111 q 254 -80 235 -87 q 300 -74 273 -74 q 374 -101 351 -74 q 396 -179 396 -129 q 374 -286 396 -239 q 319 -371 352 -332 l 228 -371 z "},"ȷ":{"ha":372,"x_min":-104,"x_max":262,"o":"m 262 -31 q 251 -137 262 -92 q 212 -211 239 -182 q 141 -254 184 -240 q 35 -268 98 -268 q 6 -267 22 -268 q -30 -263 -11 -265 q -68 -257 -48 -260 q -104 -248 -87 -253 l -71 -123 q -22 -138 -47 -133 q 32 -143 3 -143 q 76 -134 60 -143 q 102 -107 93 -125 q 114 -61 111 -89 q 117 4 117 -33 l 117 711 l 262 711 l 262 -31 z "},"ˀ":{"ha":681,"x_min":0,"x_max":619,"o":"m 210 0 l 210 415 q 325 478 277 448 q 404 539 373 509 q 449 604 435 570 q 464 679 464 638 q 453 738 464 711 q 421 785 442 765 q 371 817 401 805 q 301 828 340 828 q 195 802 235 828 q 127 730 155 776 l 0 804 q 48 869 20 840 q 113 917 76 897 q 196 948 149 937 q 300 958 242 958 q 425 943 367 958 q 526 894 483 927 q 594 810 570 861 q 619 689 619 759 q 598 572 619 623 q 542 482 577 522 q 458 410 506 442 q 357 347 410 378 l 357 0 l 210 0 z "},"ˆ":{"ha":722,"x_min":126,"x_max":595,"o":"m 472 819 l 361 958 l 248 819 l 126 819 l 283 1064 l 437 1064 l 595 819 l 472 819 z "},"ˇ":{"ha":722,"x_min":126,"x_max":595,"o":"m 437 819 l 283 819 l 126 1064 l 249 1064 l 359 924 l 473 1064 l 595 1064 l 437 819 z "},"ˉ":{"ha":722,"x_min":143,"x_max":578,"o":"m 143 851 l 143 961 l 578 961 l 578 851 l 143 851 z "},"˘":{"ha":722,"x_min":127,"x_max":595,"o":"m 595 1017 q 580 940 595 977 q 536 874 566 903 q 463 828 507 846 q 359 811 419 811 q 259 828 302 811 q 186 874 216 846 q 142 940 157 903 q 127 1017 127 977 l 235 1017 q 276 959 244 979 q 359 939 309 939 q 448 959 417 939 q 488 1017 478 979 l 595 1017 z "},"˙":{"ha":722,"x_min":273,"x_max":449,"o":"m 449 901 q 428 836 449 854 q 359 818 407 818 q 317 823 334 818 q 291 840 300 829 q 277 866 281 850 q 273 901 273 882 q 292 964 273 944 q 359 985 311 985 q 429 965 409 985 q 449 901 449 945 z "},"˚":{"ha":722,"x_min":215,"x_max":505,"o":"m 505 926 q 469 821 505 859 q 359 783 432 783 q 295 793 322 783 q 250 823 268 804 q 223 868 232 842 q 215 926 215 894 q 251 1031 215 992 q 359 1069 286 1069 q 470 1031 435 1069 q 505 926 505 992 m 422 926 q 406 975 422 959 q 359 990 390 990 q 313 974 329 990 q 297 926 297 957 q 312 879 297 897 q 359 861 326 861 q 408 878 393 861 q 422 926 422 895 z "},"˛":{"ha":669,"x_min":231,"x_max":519,"o":"m 519 -224 q 448 -256 484 -245 q 371 -268 412 -268 q 314 -260 340 -268 q 270 -238 288 -253 q 241 -199 251 -222 q 231 -144 231 -176 q 250 -74 231 -106 q 302 -18 269 -43 q 377 23 334 6 q 465 50 419 40 l 519 0 q 436 -26 469 -13 q 383 -54 403 -40 q 355 -82 363 -68 q 347 -111 347 -96 q 360 -145 347 -134 q 393 -157 374 -157 q 429 -151 410 -157 q 468 -134 449 -145 l 519 -224 z "},"˜":{"ha":722,"x_min":94,"x_max":627,"o":"m 94 831 q 107 909 96 873 q 138 972 117 945 q 189 1013 158 998 q 261 1028 219 1028 q 309 1021 288 1028 q 348 1003 330 1014 q 381 980 366 992 q 410 957 396 968 q 438 939 425 946 q 468 932 452 932 q 494 940 484 932 q 511 961 505 948 q 519 989 517 974 q 524 1018 522 1004 l 627 1018 q 613 940 623 976 q 583 877 603 903 q 532 836 563 850 q 458 821 502 821 q 406 828 429 821 q 367 846 384 836 q 336 870 349 857 q 309 894 322 883 q 283 912 296 905 q 253 920 269 920 q 225 911 235 920 q 208 891 214 903 q 200 862 202 878 q 197 831 198 846 l 94 831 z "},"˝":{"ha":722,"x_min":125,"x_max":696,"o":"m 501 819 l 385 819 l 509 1064 l 696 1064 l 501 819 m 243 819 l 125 819 l 250 1064 l 436 1064 l 243 819 z "},"̀":{"ha":0,"x_min":-204,"x_max":107,"o":"m -11 819 l -204 1064 l -18 1064 l 107 819 l -11 819 z "},"́":{"ha":0,"x_min":-107,"x_max":204,"o":"m 11 819 l -107 819 l 18 1064 l 204 1064 l 11 819 z "},"̂":{"ha":0,"x_min":-235,"x_max":233,"o":"m 111 819 l 0 958 l -114 819 l -235 819 l -78 1064 l 77 1064 l 233 819 l 111 819 z "},"̃":{"ha":0,"x_min":-267,"x_max":265,"o":"m -267 831 q -254 909 -264 873 q -223 972 -243 945 q -172 1013 -203 998 q -100 1028 -142 1028 q -52 1021 -73 1028 q -13 1003 -31 1014 q 20 980 5 992 q 49 957 35 968 q 77 939 63 946 q 107 932 92 932 q 134 940 123 932 q 150 961 144 948 q 159 989 156 974 q 163 1018 161 1004 l 265 1018 q 252 940 262 976 q 222 877 241 903 q 171 836 202 850 q 97 821 140 821 q 45 828 67 821 q 6 846 23 836 q -25 870 -12 857 q -52 894 -39 883 q -78 912 -65 905 q -109 920 -92 920 q -136 911 -125 920 q -153 891 -146 903 q -161 862 -159 878 q -164 831 -163 846 l -267 831 z "},"̄":{"ha":0,"x_min":-218,"x_max":216,"o":"m -218 851 l -218 961 l 216 961 l 216 851 l -218 851 z "},"̆":{"ha":0,"x_min":-233,"x_max":233,"o":"m 233 1023 q 219 947 233 984 q 175 881 204 910 q 102 835 146 852 q -1 818 58 818 q -102 835 -58 818 q -174 881 -145 852 q -218 947 -203 910 q -233 1023 -233 984 l -126 1023 q -84 966 -117 986 q -1 946 -52 946 q 86 966 56 946 q 126 1023 117 986 l 233 1023 z "},"̇":{"ha":0,"x_min":-87,"x_max":87,"o":"m 87 901 q 66 836 87 854 q -1 818 45 818 q -44 823 -27 818 q -70 840 -60 829 q -83 866 -79 850 q -87 901 -87 882 q -68 964 -87 944 q -1 985 -50 985 q 67 965 47 985 q 87 901 87 945 z "},"̈":{"ha":0,"x_min":-228,"x_max":228,"o":"m 228 899 q 207 836 228 854 q 142 818 186 818 q 75 839 93 818 q 57 899 57 860 q 76 960 57 941 q 142 979 95 979 q 208 960 189 979 q 228 899 228 941 m -58 899 q -79 836 -58 854 q -144 818 -100 818 q -211 839 -193 818 q -228 899 -228 860 q -209 960 -228 941 q -144 979 -191 979 q -77 960 -96 979 q -58 899 -58 941 z "},"̉":{"ha":0,"x_min":-132,"x_max":131,"o":"m -132 991 q -82 1017 -115 1005 q -5 1028 -50 1028 q 95 1000 60 1028 q 131 925 131 971 q 122 880 131 899 q 99 846 114 860 q 64 824 84 832 q 22 814 45 817 l 22 787 l -54 787 l -54 872 l -32 872 q 18 911 18 872 q -31 947 18 947 q -64 942 -46 947 q -97 928 -83 937 l -132 991 z "},"̊":{"ha":0,"x_min":-138,"x_max":136,"o":"m 136 920 q 102 819 136 854 q -1 783 68 783 q -105 821 -72 783 q -138 920 -138 858 q -104 1019 -138 983 q -1 1055 -71 1055 q 103 1019 69 1055 q 136 920 136 982 m 64 920 q 47 969 64 953 q -1 986 30 986 q -49 968 -33 986 q -65 920 -65 951 q -51 871 -65 889 q -1 852 -36 852 q 48 870 33 852 q 64 920 64 887 z "},"̌":{"ha":0,"x_min":-235,"x_max":233,"o":"m 77 819 l -78 819 l -235 1064 l -113 1064 l -1 924 l 113 1064 l 233 1064 l 77 819 z "},"̣":{"ha":722,"x_min":273,"x_max":449,"o":"m 449 -172 q 428 -237 449 -218 q 359 -256 407 -256 q 317 -250 334 -256 q 291 -233 300 -244 q 277 -207 281 -222 q 273 -172 273 -192 q 292 -109 273 -128 q 359 -89 311 -89 q 429 -108 409 -89 q 449 -172 449 -127 z "},"ʹ":{"ha":290,"x_min":52,"x_max":257,"o":"m 147 765 l 52 765 l 93 1010 l 257 1010 l 147 765 z "},"͵":{"ha":290,"x_min":41,"x_max":248,"o":"m 153 87 l 248 87 l 207 -157 l 41 -157 l 153 87 z "},";":{"ha":386,"x_min":96,"x_max":289,"o":"m 289 618 q 266 547 289 568 q 192 526 243 526 q 146 532 164 526 q 116 550 127 538 q 100 579 105 562 q 96 618 96 596 q 117 689 96 667 q 192 711 139 711 q 267 689 245 711 q 289 618 289 667 m 289 68 q 281 -12 289 27 q 262 -86 274 -52 q 235 -150 250 -121 q 205 -199 220 -179 l 111 -199 q 139 -148 127 -176 q 159 -94 151 -120 q 171 -44 167 -67 q 176 -8 176 -22 q 115 15 134 -7 q 96 82 96 36 q 100 121 96 104 q 117 150 105 138 q 147 169 128 162 q 193 175 165 175 q 267 147 245 175 q 289 68 289 119 z "},"΄":{"ha":311,"x_min":0,"x_max":311,"o":"m 117 819 l 0 819 l 123 1064 l 311 1064 l 117 819 z "},"΅":{"ha":722,"x_min":58,"x_max":664,"o":"m 664 893 q 644 832 664 849 q 581 815 623 815 q 517 836 534 815 q 500 893 500 857 q 518 954 500 934 q 581 974 536 974 q 645 955 627 974 q 664 893 664 935 m 222 893 q 202 832 222 849 q 139 815 182 815 q 75 836 92 815 q 58 893 58 857 q 76 954 58 934 q 139 974 94 974 q 203 955 184 974 q 222 893 222 935 m 519 1064 l 375 819 l 265 819 l 349 1064 l 519 1064 z "},"Ά":{"ha":905,"x_min":14,"x_max":880,"o":"m 42 0 l 357 939 l 563 939 l 880 0 l 715 0 l 644 216 l 271 216 l 200 0 l 42 0 m 317 358 l 596 358 l 457 781 l 317 358 m 271 939 l 126 694 l 14 694 l 97 939 l 271 939 z "},"·":{"ha":386,"x_min":96,"x_max":289,"o":"m 289 504 q 266 433 289 454 q 192 412 243 412 q 146 418 164 412 q 116 436 127 425 q 100 465 105 448 q 96 504 96 482 q 117 575 96 553 q 192 597 139 597 q 267 575 245 597 q 289 504 289 553 z "},"Έ":{"ha":960,"x_min":-1,"x_max":883,"o":"m 292 0 l 292 939 l 883 939 l 883 798 l 450 798 l 450 559 l 818 559 l 818 418 l 450 418 l 450 144 l 883 144 l 883 0 l 292 0 m 256 939 l 112 694 l -1 694 l 83 939 l 256 939 z "},"Ή":{"ha":1120,"x_min":-1,"x_max":1007,"o":"m 848 0 l 848 414 l 450 414 l 450 0 l 292 0 l 292 939 l 450 939 l 450 558 l 848 558 l 848 939 l 1007 939 l 1007 0 l 848 0 m 256 939 l 112 694 l -1 694 l 83 939 l 256 939 z "},"Ί":{"ha":770,"x_min":-1,"x_max":700,"o":"m 700 0 l 281 0 l 281 127 l 411 127 l 411 811 l 281 811 l 281 939 l 700 939 l 700 811 l 569 811 l 569 127 l 700 127 l 700 0 m 256 939 l 112 694 l -1 694 l 83 939 l 256 939 z "},"Ό":{"ha":1074,"x_min":-1,"x_max":1004,"o":"m 1004 469 q 982 263 1004 354 q 912 110 960 173 q 790 14 865 47 q 611 -20 715 -20 q 432 14 507 -20 q 310 110 358 47 q 240 263 262 173 q 218 469 218 354 q 240 675 218 585 q 310 829 262 766 q 432 925 358 892 q 611 958 507 958 q 790 925 715 958 q 912 830 865 892 q 982 676 960 767 q 1004 469 1004 585 m 839 469 q 827 622 839 557 q 787 731 814 688 q 717 796 760 774 q 611 818 673 818 q 504 796 548 818 q 433 731 460 774 q 394 622 406 688 q 382 469 382 557 q 394 316 382 382 q 434 208 406 251 q 505 142 461 164 q 611 121 549 121 q 717 142 673 121 q 787 207 760 163 q 827 316 814 250 q 839 469 839 381 m 256 939 l 112 694 l -1 694 l 83 939 l 256 939 z "},"Ύ":{"ha":1050,"x_min":-1,"x_max":1029,"o":"m 733 359 l 733 0 l 574 0 l 574 355 l 278 939 l 453 939 l 656 514 l 861 939 l 1029 939 l 733 359 m 256 939 l 112 694 l -1 694 l 83 939 l 256 939 z "},"Ώ":{"ha":1072,"x_min":-1,"x_max":1003,"o":"m 604 958 q 780 931 705 958 q 905 851 855 903 q 979 722 954 798 q 1003 549 1003 646 q 990 400 1003 464 q 953 291 978 337 q 892 216 928 245 q 808 170 856 186 l 808 142 l 989 142 l 989 0 l 668 0 l 668 244 q 740 267 709 250 q 792 319 771 284 q 825 409 814 354 q 836 543 836 463 q 780 749 836 680 q 604 818 723 818 q 502 799 544 818 q 432 744 459 779 q 392 657 404 708 q 379 545 379 607 q 390 406 379 460 q 421 318 400 351 q 474 269 443 286 q 547 244 505 253 l 547 0 l 229 0 l 229 142 l 411 142 l 411 170 q 323 213 360 185 q 262 286 286 241 q 227 395 238 331 q 215 549 215 460 q 236 703 215 629 q 304 833 258 777 q 425 924 351 890 q 604 958 499 958 m 256 939 l 112 694 l -1 694 l 83 939 l 256 939 z "},"ΐ":{"ha":439,"x_min":-119,"x_max":487,"o":"m 427 -3 q 365 -16 401 -11 q 293 -21 330 -21 q 201 -7 238 -21 q 143 36 165 7 q 112 107 121 64 q 103 207 103 150 l 103 711 l 250 711 l 250 218 q 253 161 250 184 q 263 123 256 138 q 285 102 271 109 q 321 96 299 96 q 358 99 338 96 q 393 109 378 103 l 427 -3 m 487 893 q 467 832 487 849 q 404 815 446 815 q 340 836 357 815 q 323 893 323 857 q 341 954 323 934 q 404 974 359 974 q 468 955 450 974 q 487 893 487 935 m 45 893 q 25 832 45 849 q -38 815 5 815 q -102 836 -85 815 q -119 893 -119 857 q -101 954 -119 934 q -38 974 -83 974 q 26 955 7 974 q 45 893 45 935 m 342 1064 l 198 819 l 88 819 l 172 1064 l 342 1064 z "},"Α":{"ha":890,"x_min":26,"x_max":864,"o":"m 26 0 l 342 939 l 547 939 l 864 0 l 700 0 l 628 216 l 256 216 l 184 0 l 26 0 m 301 358 l 581 358 l 441 781 l 301 358 z "},"Β":{"ha":871,"x_min":113,"x_max":803,"o":"m 803 273 q 779 151 803 202 q 708 65 754 99 q 594 16 661 32 q 441 0 527 0 l 113 0 l 113 939 l 416 939 q 570 926 507 939 q 673 886 633 913 q 730 819 712 859 q 747 722 747 778 q 735 635 747 672 q 701 573 722 599 q 650 532 679 548 q 587 509 621 517 q 675 486 635 503 q 743 442 715 470 q 787 372 772 414 q 803 273 803 331 m 586 688 q 576 741 586 720 q 546 775 567 762 q 490 794 524 789 q 404 800 455 800 l 271 800 l 271 559 l 399 559 q 487 568 452 559 q 545 592 523 576 q 576 632 567 608 q 586 688 586 656 m 639 285 q 626 353 639 326 q 586 394 613 379 q 516 415 558 410 q 415 421 473 421 l 271 421 l 271 142 l 383 142 q 492 146 445 142 q 572 165 540 150 q 622 208 605 180 q 639 285 639 236 z "},"Γ":{"ha":722,"x_min":104,"x_max":694,"o":"m 262 804 l 262 0 l 104 0 l 104 939 l 694 939 l 694 804 l 262 804 z "},"Δ":{"ha":863,"x_min":26,"x_max":836,"o":"m 836 0 l 26 0 l 26 68 q 102 282 64 172 q 180 504 141 393 q 258 724 219 614 q 335 939 297 834 l 530 939 q 606 724 568 834 q 683 504 644 614 q 760 282 722 393 q 836 68 798 172 l 836 0 m 646 134 l 454 693 q 439 745 446 719 q 428 789 433 771 l 424 789 q 413 746 419 771 q 397 694 407 720 l 205 134 l 646 134 z "},"Ε":{"ha":781,"x_min":113,"x_max":704,"o":"m 113 0 l 113 939 l 704 939 l 704 798 l 271 798 l 271 559 l 639 559 l 639 418 l 271 418 l 271 144 l 704 144 l 704 0 l 113 0 z "},"Ζ":{"ha":783,"x_min":56,"x_max":718,"o":"m 56 0 l 56 140 l 518 794 l 77 794 l 77 939 l 707 939 l 707 806 l 239 144 l 718 144 l 718 0 l 56 0 z "},"Η":{"ha":940,"x_min":113,"x_max":828,"o":"m 669 0 l 669 414 l 271 414 l 271 0 l 113 0 l 113 939 l 271 939 l 271 558 l 669 558 l 669 939 l 828 939 l 828 0 l 669 0 z "},"Θ":{"ha":981,"x_min":69,"x_max":911,"o":"m 911 469 q 889 265 911 355 q 817 111 867 174 q 687 14 768 47 q 490 -20 607 -20 q 293 14 374 -20 q 163 112 213 48 q 91 266 113 175 q 69 469 69 356 q 91 674 69 583 q 163 828 113 765 q 293 925 213 891 q 490 958 374 958 q 687 925 606 958 q 817 828 767 891 q 889 674 867 765 q 911 469 911 583 m 745 469 q 731 624 745 557 q 688 736 718 691 q 609 804 658 781 q 490 827 560 827 q 370 804 419 827 q 291 736 321 781 q 248 624 261 691 q 235 469 235 557 q 248 314 235 381 q 291 202 261 248 q 370 134 321 157 q 490 111 419 111 q 609 134 560 111 q 688 202 658 157 q 731 314 718 248 q 745 469 745 381 m 323 407 l 323 542 l 656 542 l 656 407 l 323 407 z "},"Ι":{"ha":557,"x_min":69,"x_max":488,"o":"m 488 0 l 69 0 l 69 127 l 199 127 l 199 811 l 69 811 l 69 939 l 488 939 l 488 811 l 357 811 l 357 127 l 488 127 l 488 0 z "},"Κ":{"ha":863,"x_min":113,"x_max":835,"o":"m 635 0 l 343 404 l 271 321 l 271 0 l 113 0 l 113 939 l 271 939 l 271 525 l 623 939 l 812 939 l 446 521 l 835 0 l 635 0 z "},"Λ":{"ha":847,"x_min":26,"x_max":821,"o":"m 26 0 l 336 939 l 514 939 l 821 0 l 657 0 l 421 755 l 182 0 l 26 0 z "},"Μ":{"ha":1105,"x_min":113,"x_max":993,"o":"m 840 0 l 840 704 l 599 248 l 504 248 l 264 704 l 264 0 l 113 0 l 113 939 l 307 939 l 554 460 l 803 939 l 993 939 l 993 0 l 840 0 z "},"Ν":{"ha":949,"x_min":113,"x_max":836,"o":"m 648 0 l 267 737 l 267 0 l 113 0 l 113 939 l 328 939 l 682 253 l 682 939 l 836 939 l 836 0 l 648 0 z "},"Ξ":{"ha":745,"x_min":77,"x_max":668,"o":"m 77 798 l 77 939 l 668 939 l 668 798 l 77 798 m 117 418 l 117 559 l 628 559 l 628 418 l 117 418 m 77 0 l 77 144 l 668 144 l 668 0 l 77 0 z "},"Ο":{"ha":925,"x_min":69,"x_max":856,"o":"m 856 469 q 834 263 856 354 q 764 110 812 173 q 642 14 716 47 q 463 -20 567 -20 q 284 14 358 -20 q 162 110 210 47 q 92 263 114 173 q 69 469 69 354 q 92 675 69 585 q 162 829 114 766 q 284 925 210 892 q 463 958 358 958 q 642 925 567 958 q 764 830 716 892 q 834 676 812 767 q 856 469 856 585 m 690 469 q 678 622 690 557 q 639 731 666 688 q 568 796 612 774 q 463 818 525 818 q 356 796 399 818 q 285 731 312 774 q 245 622 258 688 q 233 469 233 557 q 245 316 233 382 q 285 208 258 251 q 356 142 313 164 q 463 121 400 121 q 568 142 525 121 q 639 207 612 163 q 678 316 666 250 q 690 469 690 381 z "},"Π":{"ha":930,"x_min":113,"x_max":818,"o":"m 113 0 l 113 939 l 818 939 l 818 0 l 657 0 l 657 800 l 272 800 l 272 0 l 113 0 z "},"Ρ":{"ha":821,"x_min":113,"x_max":761,"o":"m 761 631 q 742 485 761 546 q 681 383 722 423 q 576 324 640 343 q 422 304 512 304 l 271 304 l 271 0 l 113 0 l 113 939 l 428 939 q 570 922 508 939 q 674 869 632 905 q 739 773 717 832 q 761 631 761 715 m 596 629 q 582 713 596 680 q 542 765 568 746 q 476 791 515 784 q 387 799 437 799 l 271 799 l 271 444 l 370 444 q 472 450 429 444 q 543 476 515 456 q 583 532 570 495 q 596 629 596 568 z "},"Σ":{"ha":772,"x_min":49,"x_max":713,"o":"m 49 0 l 49 129 l 376 476 l 49 814 l 49 939 l 689 939 l 689 806 l 257 806 l 538 514 l 538 441 l 244 134 l 713 134 l 713 0 l 49 0 z "},"Τ":{"ha":810,"x_min":25,"x_max":783,"o":"m 484 794 l 484 0 l 325 0 l 325 794 l 25 794 l 25 939 l 783 939 l 783 794 l 484 794 z "},"Υ":{"ha":791,"x_min":20,"x_max":771,"o":"m 475 359 l 475 0 l 315 0 l 315 355 l 20 939 l 195 939 l 397 514 l 603 939 l 771 939 l 475 359 z "}}}
